<svg xmlns="http://www.w3.org/2000/svg" width="720" height="520" viewBox="0 0 720 520">
<rect width="100%" height="100%" fill="white"/>
<text x="360.0" y="30" text-anchor="middle" font-family="sans-serif" font-size="18">Audit surface at gamma=0.05, kappa=0</text>
<rect x="80.0" y="372.0" width="150.0" height="78.0" fill="rgb(143,189,121)" stroke="white"/>
<text x="155.0" y="415.0" text-anchor="middle" font-family="sans-serif" font-size="11">0.57</text>
<rect x="230.0" y="372.0" width="150.0" height="78.0" fill="rgb(189,213,177)" stroke="white"/>
<text x="305.0" y="415.0" text-anchor="middle" font-family="sans-serif" font-size="11">0.30</text>
<rect x="380.0" y="372.0" width="150.0" height="78.0" fill="rgb(189,213,177)" stroke="white"/>
<text x="455.0" y="415.0" text-anchor="middle" font-family="sans-serif" font-size="11">0.30</text>
<rect x="530.0" y="372.0" width="150.0" height="78.0" fill="rgb(189,213,177)" stroke="white"/>
<text x="605.0" y="415.0" text-anchor="middle" font-family="sans-serif" font-size="11">0.30</text>
<rect x="80.0" y="294.0" width="150.0" height="78.0" fill="rgb(143,189,121)" stroke="white"/>
<text x="155.0" y="337.0" text-anchor="middle" font-family="sans-serif" font-size="11">0.57</text>
<rect x="230.0" y="294.0" width="150.0" height="78.0" fill="rgb(189,213,177)" stroke="white"/>
<text x="305.0" y="337.0" text-anchor="middle" font-family="sans-serif" font-size="11">0.30</text>
<rect x="380.0" y="294.0" width="150.0" height="78.0" fill="rgb(189,213,177)" stroke="white"/>
<text x="455.0" y="337.0" text-anchor="middle" font-family="sans-serif" font-size="11">0.30</text>
<rect x="530.0" y="294.0" width="150.0" height="78.0" fill="rgb(189,213,177)" stroke="white"/>
<text x="605.0" y="337.0" text-anchor="middle" font-family="sans-serif" font-size="11">0.30</text>
<rect x="80.0" y="216.0" width="150.0" height="78.0" fill="rgb(143,189,121)" stroke="white"/>
<text x="155.0" y="259.0" text-anchor="middle" font-family="sans-serif" font-size="11">0.57</text>
<rect x="230.0" y="216.0" width="150.0" height="78.0" fill="rgb(189,213,177)" stroke="white"/>
<text x="305.0" y="259.0" text-anchor="middle" font-family="sans-serif" font-size="11">0.30</text>
<rect x="380.0" y="216.0" width="150.0" height="78.0" fill="rgb(189,213,177)" stroke="white"/>
<text x="455.0" y="259.0" text-anchor="middle" font-family="sans-serif" font-size="11">0.30</text>
<rect x="530.0" y="216.0" width="150.0" height="78.0" fill="rgb(189,213,177)" stroke="white"/>
<text x="605.0" y="259.0" text-anchor="middle" font-family="sans-serif" font-size="11">0.30</text>
<rect x="80.0" y="138.0" width="150.0" height="78.0" fill="rgb(143,189,121)" stroke="white"/>
<text x="155.0" y="181.0" text-anchor="middle" font-family="sans-serif" font-size="11">0.57</text>
<rect x="230.0" y="138.0" width="150.0" height="78.0" fill="rgb(189,213,177)" stroke="white"/>
<text x="305.0" y="181.0" text-anchor="middle" font-family="sans-serif" font-size="11">0.30</text>
<rect x="380.0" y="138.0" width="150.0" height="78.0" fill="rgb(189,213,177)" stroke="white"/>
<text x="455.0" y="181.0" text-anchor="middle" font-family="sans-serif" font-size="11">0.30</text>
<rect x="530.0" y="138.0" width="150.0" height="78.0" fill="rgb(189,213,177)" stroke="white"/>
<text x="605.0" y="181.0" text-anchor="middle" font-family="sans-serif" font-size="11">0.30</text>
<rect x="80.0" y="60.0" width="150.0" height="78.0" fill="rgb(143,189,121)" stroke="white"/>
<text x="155.0" y="103.0" text-anchor="middle" font-family="sans-serif" font-size="11">0.57</text>
<rect x="230.0" y="60.0" width="150.0" height="78.0" fill="rgb(189,213,177)" stroke="white"/>
<text x="305.0" y="103.0" text-anchor="middle" font-family="sans-serif" font-size="11">0.30</text>
<rect x="380.0" y="60.0" width="150.0" height="78.0" fill="rgb(189,213,177)" stroke="white"/>
<text x="455.0" y="103.0" text-anchor="middle" font-family="sans-serif" font-size="11">0.30</text>
<rect x="530.0" y="60.0" width="150.0" height="78.0" fill="rgb(189,213,177)" stroke="white"/>
<text x="605.0" y="103.0" text-anchor="middle" font-family="sans-serif" font-size="11">0.30</text>
<text x="155.0" y="472" text-anchor="middle" font-family="sans-serif" font-size="11">p=0.0</text>
<text x="305.0" y="472" text-anchor="middle" font-family="sans-serif" font-size="11">p=0.1</text>
<text x="455.0" y="472" text-anchor="middle" font-family="sans-serif" font-size="11">p=0.25</text>
<text x="605.0" y="472" text-anchor="middle" font-family="sans-serif" font-size="11">p=0.5</text>
<text x="70" y="415.0" text-anchor="end" font-family="sans-serif" font-size="11">C=0.0</text>
<text x="70" y="337.0" text-anchor="end" font-family="sans-serif" font-size="11">C=0.25</text>
<text x="70" y="259.0" text-anchor="end" font-family="sans-serif" font-size="11">C=0.5</text>
<text x="70" y="181.0" text-anchor="end" font-family="sans-serif" font-size="11">C=0.75</text>
<text x="70" y="103.0" text-anchor="end" font-family="sans-serif" font-size="11">C=1.0</text>
<text x="360.0" y="502" text-anchor="middle" font-family="sans-serif" font-size="12">audit p</text>
<text x="20" y="260.0" transform="rotate(-90 20 260.0)" font-family="sans-serif" font-size="12">penalty C</text>
</svg>
