<svg xmlns="http://www.w3.org/2000/svg" width="940" height="540" viewBox="0 0 940 540">
<rect width="100%" height="100%" fill="white"/>
<text x="470.0" y="30" text-anchor="middle" font-family="sans-serif" font-size="18">Enforcement Cost Share</text>
<line x1="90" y1="405" x2="910" y2="405" stroke="#111"/>
<line x1="90" y1="60" x2="90" y2="405" stroke="#111"/>
<text x="18" y="270.0" transform="rotate(-90 18 270.0)" font-family="sans-serif" font-size="12">cost share</text>
<rect x="91.2" y="278.4" width="7.9" height="126.6" fill="#1d4ed8"/>
<text x="95.2" y="419" transform="rotate(45 95.2 419)" font-family="sans-serif" font-size="10">PURE_CAPTURE:neighbor_penalty:C0.2</text>
<text x="95.2" y="274.4" text-anchor="middle" font-family="sans-serif" font-size="10">0.37</text>
<rect x="101.6" y="262.0" width="7.9" height="143.0" fill="#1d4ed8"/>
<text x="105.6" y="419" transform="rotate(45 105.6 419)" font-family="sans-serif" font-size="10">PURE_CAPTURE:neighbor_penalty:C0.45</text>
<text x="105.6" y="258.0" text-anchor="middle" font-family="sans-serif" font-size="10">0.41</text>
<rect x="112.0" y="227.0" width="7.9" height="178.0" fill="#1d4ed8"/>
<text x="115.9" y="419" transform="rotate(45 115.9 419)" font-family="sans-serif" font-size="10">PURE_CAPTURE:neighbor_penalty:C0.7</text>
<text x="115.9" y="223.0" text-anchor="middle" font-family="sans-serif" font-size="10">0.52</text>
<rect x="122.4" y="373.4" width="7.9" height="31.6" fill="#1d4ed8"/>
<text x="126.3" y="419" transform="rotate(45 126.3 419)" font-family="sans-serif" font-size="10">PURE_CAPTURE:neighbor_quarantine:C0.2</text>
<text x="126.3" y="369.4" text-anchor="middle" font-family="sans-serif" font-size="10">0.09</text>
<rect x="132.8" y="369.5" width="7.9" height="35.5" fill="#1d4ed8"/>
<text x="136.7" y="419" transform="rotate(45 136.7 419)" font-family="sans-serif" font-size="10">PURE_CAPTURE:neighbor_quarantine:C0.45</text>
<text x="136.7" y="365.5" text-anchor="middle" font-family="sans-serif" font-size="10">0.10</text>
<rect x="143.1" y="365.7" width="7.9" height="39.3" fill="#1d4ed8"/>
<text x="147.1" y="419" transform="rotate(45 147.1 419)" font-family="sans-serif" font-size="10">PURE_CAPTURE:neighbor_quarantine:C0.7</text>
<text x="147.1" y="361.7" text-anchor="middle" font-family="sans-serif" font-size="10">0.11</text>
<rect x="153.5" y="365.3" width="7.9" height="39.7" fill="#1d4ed8"/>
<text x="157.5" y="419" transform="rotate(45 157.5 419)" font-family="sans-serif" font-size="10">PURE_CAPTURE:neighbor_audit_penalty:C0.2</text>
<text x="157.5" y="361.3" text-anchor="middle" font-family="sans-serif" font-size="10">0.12</text>
<rect x="163.9" y="329.3" width="7.9" height="75.7" fill="#1d4ed8"/>
<text x="167.8" y="419" transform="rotate(45 167.8 419)" font-family="sans-serif" font-size="10">PURE_CAPTURE:neighbor_audit_penalty:C0.45</text>
<text x="167.8" y="325.3" text-anchor="middle" font-family="sans-serif" font-size="10">0.22</text>
<rect x="174.3" y="310.4" width="7.9" height="94.6" fill="#1d4ed8"/>
<text x="178.2" y="419" transform="rotate(45 178.2 419)" font-family="sans-serif" font-size="10">PURE_CAPTURE:neighbor_audit_penalty:C0.7</text>
<text x="178.2" y="306.4" text-anchor="middle" font-family="sans-serif" font-size="10">0.27</text>
<rect x="184.7" y="258.1" width="7.9" height="146.9" fill="#1d4ed8"/>
<text x="188.6" y="419" transform="rotate(45 188.6 419)" font-family="sans-serif" font-size="10">PURE_CAPTURE:consequence_plus_diversity:C0.2</text>
<text x="188.6" y="254.1" text-anchor="middle" font-family="sans-serif" font-size="10">0.43</text>
<rect x="195.0" y="217.0" width="7.9" height="188.0" fill="#1d4ed8"/>
<text x="199.0" y="419" transform="rotate(45 199.0 419)" font-family="sans-serif" font-size="10">PURE_CAPTURE:consequence_plus_diversity:C0.45</text>
<text x="199.0" y="213.0" text-anchor="middle" font-family="sans-serif" font-size="10">0.54</text>
<rect x="205.4" y="198.3" width="7.9" height="206.7" fill="#1d4ed8"/>
<text x="209.4" y="419" transform="rotate(45 209.4 419)" font-family="sans-serif" font-size="10">PURE_CAPTURE:consequence_plus_diversity:C0.7</text>
<text x="209.4" y="194.3" text-anchor="middle" font-family="sans-serif" font-size="10">0.60</text>
<rect x="215.8" y="349.1" width="7.9" height="55.9" fill="#1d4ed8"/>
<text x="219.7" y="419" transform="rotate(45 219.7 419)" font-family="sans-serif" font-size="10">MIXED_CAPTURE_CATASTROPHE:neighbor_penalty:C0.2</text>
<text x="219.7" y="345.1" text-anchor="middle" font-family="sans-serif" font-size="10">0.16</text>
<rect x="226.2" y="296.3" width="7.9" height="108.7" fill="#1d4ed8"/>
<text x="230.1" y="419" transform="rotate(45 230.1 419)" font-family="sans-serif" font-size="10">MIXED_CAPTURE_CATASTROPHE:neighbor_penalty:C0.45</text>
<text x="230.1" y="292.3" text-anchor="middle" font-family="sans-serif" font-size="10">0.32</text>
<rect x="236.6" y="257.7" width="7.9" height="147.3" fill="#1d4ed8"/>
<text x="240.5" y="419" transform="rotate(45 240.5 419)" font-family="sans-serif" font-size="10">MIXED_CAPTURE_CATASTROPHE:neighbor_penalty:C0.7</text>
<text x="240.5" y="253.7" text-anchor="middle" font-family="sans-serif" font-size="10">0.43</text>
<rect x="246.9" y="382.4" width="7.9" height="22.6" fill="#1d4ed8"/>
<text x="250.9" y="419" transform="rotate(45 250.9 419)" font-family="sans-serif" font-size="10">MIXED_CAPTURE_CATASTROPHE:neighbor_quarantine:C0.2</text>
<text x="250.9" y="378.4" text-anchor="middle" font-family="sans-serif" font-size="10">0.07</text>
<rect x="257.3" y="380.2" width="7.9" height="24.8" fill="#1d4ed8"/>
<text x="261.3" y="419" transform="rotate(45 261.3 419)" font-family="sans-serif" font-size="10">MIXED_CAPTURE_CATASTROPHE:neighbor_quarantine:C0.45</text>
<text x="261.3" y="376.2" text-anchor="middle" font-family="sans-serif" font-size="10">0.07</text>
<rect x="267.7" y="378.1" width="7.9" height="26.9" fill="#1d4ed8"/>
<text x="271.6" y="419" transform="rotate(45 271.6 419)" font-family="sans-serif" font-size="10">MIXED_CAPTURE_CATASTROPHE:neighbor_quarantine:C0.7</text>
<text x="271.6" y="374.1" text-anchor="middle" font-family="sans-serif" font-size="10">0.08</text>
<rect x="278.1" y="386.7" width="7.9" height="18.3" fill="#1d4ed8"/>
<text x="282.0" y="419" transform="rotate(45 282.0 419)" font-family="sans-serif" font-size="10">MIXED_CAPTURE_CATASTROPHE:neighbor_audit_penalty:C0.2</text>
<text x="282.0" y="382.7" text-anchor="middle" font-family="sans-serif" font-size="10">0.05</text>
<rect x="288.5" y="356.6" width="7.9" height="48.4" fill="#1d4ed8"/>
<text x="292.4" y="419" transform="rotate(45 292.4 419)" font-family="sans-serif" font-size="10">MIXED_CAPTURE_CATASTROPHE:neighbor_audit_penalty:C0.45</text>
<text x="292.4" y="352.6" text-anchor="middle" font-family="sans-serif" font-size="10">0.14</text>
<rect x="298.8" y="335.6" width="7.9" height="69.4" fill="#1d4ed8"/>
<text x="302.8" y="419" transform="rotate(45 302.8 419)" font-family="sans-serif" font-size="10">MIXED_CAPTURE_CATASTROPHE:neighbor_audit_penalty:C0.7</text>
<text x="302.8" y="331.6" text-anchor="middle" font-family="sans-serif" font-size="10">0.20</text>
<rect x="309.2" y="270.6" width="7.9" height="134.4" fill="#1d4ed8"/>
<text x="313.2" y="419" transform="rotate(45 313.2 419)" font-family="sans-serif" font-size="10">MIXED_CAPTURE_CATASTROPHE:consequence_plus_diversity:C0.2</text>
<text x="313.2" y="266.6" text-anchor="middle" font-family="sans-serif" font-size="10">0.39</text>
<rect x="319.6" y="243.4" width="7.9" height="161.6" fill="#1d4ed8"/>
<text x="323.5" y="419" transform="rotate(45 323.5 419)" font-family="sans-serif" font-size="10">MIXED_CAPTURE_CATASTROPHE:consequence_plus_diversity:C0.45</text>
<text x="323.5" y="239.4" text-anchor="middle" font-family="sans-serif" font-size="10">0.47</text>
<rect x="330.0" y="269.2" width="7.9" height="135.8" fill="#1d4ed8"/>
<text x="333.9" y="419" transform="rotate(45 333.9 419)" font-family="sans-serif" font-size="10">MIXED_CAPTURE_CATASTROPHE:consequence_plus_diversity:C0.7</text>
<text x="333.9" y="265.2" text-anchor="middle" font-family="sans-serif" font-size="10">0.39</text>
<rect x="340.4" y="344.4" width="7.9" height="60.6" fill="#1d4ed8"/>
<text x="344.3" y="419" transform="rotate(45 344.3 419)" font-family="sans-serif" font-size="10">SCAVENGER_CATASTROPHE:neighbor_penalty:C0.2</text>
<text x="344.3" y="340.4" text-anchor="middle" font-family="sans-serif" font-size="10">0.18</text>
<rect x="350.7" y="302.8" width="7.9" height="102.2" fill="#1d4ed8"/>
<text x="354.7" y="419" transform="rotate(45 354.7 419)" font-family="sans-serif" font-size="10">SCAVENGER_CATASTROPHE:neighbor_penalty:C0.45</text>
<text x="354.7" y="298.8" text-anchor="middle" font-family="sans-serif" font-size="10">0.30</text>
<rect x="361.1" y="247.3" width="7.9" height="157.7" fill="#1d4ed8"/>
<text x="365.1" y="419" transform="rotate(45 365.1 419)" font-family="sans-serif" font-size="10">SCAVENGER_CATASTROPHE:neighbor_penalty:C0.7</text>
<text x="365.1" y="243.3" text-anchor="middle" font-family="sans-serif" font-size="10">0.46</text>
<rect x="371.5" y="385.1" width="7.9" height="19.9" fill="#1d4ed8"/>
<text x="375.4" y="419" transform="rotate(45 375.4 419)" font-family="sans-serif" font-size="10">SCAVENGER_CATASTROPHE:neighbor_quarantine:C0.2</text>
<text x="375.4" y="381.1" text-anchor="middle" font-family="sans-serif" font-size="10">0.06</text>
<rect x="381.9" y="383.1" width="7.9" height="21.9" fill="#1d4ed8"/>
<text x="385.8" y="419" transform="rotate(45 385.8 419)" font-family="sans-serif" font-size="10">SCAVENGER_CATASTROPHE:neighbor_quarantine:C0.45</text>
<text x="385.8" y="379.1" text-anchor="middle" font-family="sans-serif" font-size="10">0.06</text>
<rect x="392.3" y="381.1" width="7.9" height="23.9" fill="#1d4ed8"/>
<text x="396.2" y="419" transform="rotate(45 396.2 419)" font-family="sans-serif" font-size="10">SCAVENGER_CATASTROPHE:neighbor_quarantine:C0.7</text>
<text x="396.2" y="377.1" text-anchor="middle" font-family="sans-serif" font-size="10">0.07</text>
<rect x="402.6" y="386.3" width="7.9" height="18.7" fill="#1d4ed8"/>
<text x="406.6" y="419" transform="rotate(45 406.6 419)" font-family="sans-serif" font-size="10">SCAVENGER_CATASTROPHE:neighbor_audit_penalty:C0.2</text>
<text x="406.6" y="382.3" text-anchor="middle" font-family="sans-serif" font-size="10">0.05</text>
<rect x="413.0" y="350.9" width="7.9" height="54.1" fill="#1d4ed8"/>
<text x="417.0" y="419" transform="rotate(45 417.0 419)" font-family="sans-serif" font-size="10">SCAVENGER_CATASTROPHE:neighbor_audit_penalty:C0.45</text>
<text x="417.0" y="346.9" text-anchor="middle" font-family="sans-serif" font-size="10">0.16</text>
<rect x="423.4" y="330.5" width="7.9" height="74.5" fill="#1d4ed8"/>
<text x="427.3" y="419" transform="rotate(45 427.3 419)" font-family="sans-serif" font-size="10">SCAVENGER_CATASTROPHE:neighbor_audit_penalty:C0.7</text>
<text x="427.3" y="326.5" text-anchor="middle" font-family="sans-serif" font-size="10">0.22</text>
<rect x="433.8" y="260.3" width="7.9" height="144.7" fill="#1d4ed8"/>
<text x="437.7" y="419" transform="rotate(45 437.7 419)" font-family="sans-serif" font-size="10">SCAVENGER_CATASTROPHE:consequence_plus_diversity:C0.2</text>
<text x="437.7" y="256.3" text-anchor="middle" font-family="sans-serif" font-size="10">0.42</text>
<rect x="444.2" y="244.8" width="7.9" height="160.2" fill="#1d4ed8"/>
<text x="448.1" y="419" transform="rotate(45 448.1 419)" font-family="sans-serif" font-size="10">SCAVENGER_CATASTROPHE:consequence_plus_diversity:C0.45</text>
<text x="448.1" y="240.8" text-anchor="middle" font-family="sans-serif" font-size="10">0.46</text>
<rect x="454.5" y="273.9" width="7.9" height="131.1" fill="#1d4ed8"/>
<text x="458.5" y="419" transform="rotate(45 458.5 419)" font-family="sans-serif" font-size="10">SCAVENGER_CATASTROPHE:consequence_plus_diversity:C0.7</text>
<text x="458.5" y="269.9" text-anchor="middle" font-family="sans-serif" font-size="10">0.38</text>
<rect x="464.9" y="210.1" width="7.9" height="194.9" fill="#1d4ed8"/>
<text x="468.9" y="419" transform="rotate(45 468.9 419)" font-family="sans-serif" font-size="10">PURE_CAPTURE:consequence_plus_diversity:C0.45</text>
<text x="468.9" y="206.1" text-anchor="middle" font-family="sans-serif" font-size="10">0.56</text>
<rect x="475.3" y="214.8" width="7.9" height="190.2" fill="#1d4ed8"/>
<text x="479.2" y="419" transform="rotate(45 479.2 419)" font-family="sans-serif" font-size="10">PURE_CAPTURE:consequence_plus_diversity:C0.45</text>
<text x="479.2" y="210.8" text-anchor="middle" font-family="sans-serif" font-size="10">0.55</text>
<rect x="485.7" y="229.1" width="7.9" height="175.9" fill="#1d4ed8"/>
<text x="489.6" y="419" transform="rotate(45 489.6 419)" font-family="sans-serif" font-size="10">PURE_CAPTURE:consequence_plus_diversity:C0.45</text>
<text x="489.6" y="225.1" text-anchor="middle" font-family="sans-serif" font-size="10">0.51</text>
<rect x="496.1" y="237.7" width="7.9" height="167.3" fill="#1d4ed8"/>
<text x="500.0" y="419" transform="rotate(45 500.0 419)" font-family="sans-serif" font-size="10">PURE_CAPTURE:consequence_plus_diversity:C0.45</text>
<text x="500.0" y="233.7" text-anchor="middle" font-family="sans-serif" font-size="10">0.49</text>
<rect x="506.4" y="244.3" width="7.9" height="160.7" fill="#1d4ed8"/>
<text x="510.4" y="419" transform="rotate(45 510.4 419)" font-family="sans-serif" font-size="10">PURE_CAPTURE:consequence_plus_diversity:C0.45</text>
<text x="510.4" y="240.3" text-anchor="middle" font-family="sans-serif" font-size="10">0.47</text>
<rect x="516.8" y="226.5" width="7.9" height="178.5" fill="#1d4ed8"/>
<text x="520.8" y="419" transform="rotate(45 520.8 419)" font-family="sans-serif" font-size="10">MIXED_CAPTURE_CATASTROPHE:consequence_plus_diversity:C0.45</text>
<text x="520.8" y="222.5" text-anchor="middle" font-family="sans-serif" font-size="10">0.52</text>
<rect x="527.2" y="227.5" width="7.9" height="177.5" fill="#1d4ed8"/>
<text x="531.1" y="419" transform="rotate(45 531.1 419)" font-family="sans-serif" font-size="10">MIXED_CAPTURE_CATASTROPHE:consequence_plus_diversity:C0.45</text>
<text x="531.1" y="223.5" text-anchor="middle" font-family="sans-serif" font-size="10">0.51</text>
<rect x="537.6" y="234.4" width="7.9" height="170.6" fill="#1d4ed8"/>
<text x="541.5" y="419" transform="rotate(45 541.5 419)" font-family="sans-serif" font-size="10">MIXED_CAPTURE_CATASTROPHE:consequence_plus_diversity:C0.45</text>
<text x="541.5" y="230.4" text-anchor="middle" font-family="sans-serif" font-size="10">0.49</text>
<rect x="548.0" y="281.8" width="7.9" height="123.2" fill="#1d4ed8"/>
<text x="551.9" y="419" transform="rotate(45 551.9 419)" font-family="sans-serif" font-size="10">PURE_CAPTURE:neighbor_penalty:C0.45</text>
<text x="551.9" y="277.8" text-anchor="middle" font-family="sans-serif" font-size="10">0.36</text>
<rect x="558.3" y="262.0" width="7.9" height="143.0" fill="#1d4ed8"/>
<text x="562.3" y="419" transform="rotate(45 562.3 419)" font-family="sans-serif" font-size="10">PURE_CAPTURE:neighbor_penalty:C0.45</text>
<text x="562.3" y="258.0" text-anchor="middle" font-family="sans-serif" font-size="10">0.41</text>
<rect x="568.7" y="209.9" width="7.9" height="195.1" fill="#1d4ed8"/>
<text x="572.7" y="419" transform="rotate(45 572.7 419)" font-family="sans-serif" font-size="10">PURE_CAPTURE:neighbor_penalty:C0.45</text>
<text x="572.7" y="205.9" text-anchor="middle" font-family="sans-serif" font-size="10">0.57</text>
<rect x="579.1" y="388.1" width="7.9" height="16.9" fill="#1d4ed8"/>
<text x="583.0" y="419" transform="rotate(45 583.0 419)" font-family="sans-serif" font-size="10">PURE_CAPTURE:neighbor_audit_penalty:C0.45</text>
<text x="583.0" y="384.1" text-anchor="middle" font-family="sans-serif" font-size="10">0.05</text>
<rect x="589.5" y="397.3" width="7.9" height="7.7" fill="#1d4ed8"/>
<text x="593.4" y="419" transform="rotate(45 593.4 419)" font-family="sans-serif" font-size="10">MIXED_CAPTURE_CATASTROPHE:neighbor_audit_penalty:C0.45</text>
<text x="593.4" y="393.3" text-anchor="middle" font-family="sans-serif" font-size="10">0.02</text>
<rect x="599.9" y="385.2" width="7.9" height="19.8" fill="#1d4ed8"/>
<text x="603.8" y="419" transform="rotate(45 603.8 419)" font-family="sans-serif" font-size="10">PURE_CAPTURE:neighbor_audit_penalty:C0.45</text>
<text x="603.8" y="381.2" text-anchor="middle" font-family="sans-serif" font-size="10">0.06</text>
<rect x="610.2" y="396.5" width="7.9" height="8.5" fill="#1d4ed8"/>
<text x="614.2" y="419" transform="rotate(45 614.2 419)" font-family="sans-serif" font-size="10">MIXED_CAPTURE_CATASTROPHE:neighbor_audit_penalty:C0.45</text>
<text x="614.2" y="392.5" text-anchor="middle" font-family="sans-serif" font-size="10">0.02</text>
<rect x="620.6" y="382.4" width="7.9" height="22.6" fill="#1d4ed8"/>
<text x="624.6" y="419" transform="rotate(45 624.6 419)" font-family="sans-serif" font-size="10">PURE_CAPTURE:neighbor_audit_penalty:C0.45</text>
<text x="624.6" y="378.4" text-anchor="middle" font-family="sans-serif" font-size="10">0.07</text>
<rect x="631.0" y="395.6" width="7.9" height="9.4" fill="#1d4ed8"/>
<text x="634.9" y="419" transform="rotate(45 634.9 419)" font-family="sans-serif" font-size="10">MIXED_CAPTURE_CATASTROPHE:neighbor_audit_penalty:C0.45</text>
<text x="634.9" y="391.6" text-anchor="middle" font-family="sans-serif" font-size="10">0.03</text>
<rect x="641.4" y="337.1" width="7.9" height="67.9" fill="#1d4ed8"/>
<text x="645.3" y="419" transform="rotate(45 645.3 419)" font-family="sans-serif" font-size="10">PURE_CAPTURE:neighbor_audit_penalty:C0.45</text>
<text x="645.3" y="333.1" text-anchor="middle" font-family="sans-serif" font-size="10">0.20</text>
<rect x="651.8" y="360.5" width="7.9" height="44.5" fill="#1d4ed8"/>
<text x="655.7" y="419" transform="rotate(45 655.7 419)" font-family="sans-serif" font-size="10">MIXED_CAPTURE_CATASTROPHE:neighbor_audit_penalty:C0.45</text>
<text x="655.7" y="356.5" text-anchor="middle" font-family="sans-serif" font-size="10">0.13</text>
<rect x="662.1" y="329.3" width="7.9" height="75.7" fill="#1d4ed8"/>
<text x="666.1" y="419" transform="rotate(45 666.1 419)" font-family="sans-serif" font-size="10">PURE_CAPTURE:neighbor_audit_penalty:C0.45</text>
<text x="666.1" y="325.3" text-anchor="middle" font-family="sans-serif" font-size="10">0.22</text>
<rect x="672.5" y="356.6" width="7.9" height="48.4" fill="#1d4ed8"/>
<text x="676.5" y="419" transform="rotate(45 676.5 419)" font-family="sans-serif" font-size="10">MIXED_CAPTURE_CATASTROPHE:neighbor_audit_penalty:C0.45</text>
<text x="676.5" y="352.6" text-anchor="middle" font-family="sans-serif" font-size="10">0.14</text>
<rect x="682.9" y="321.9" width="7.9" height="83.1" fill="#1d4ed8"/>
<text x="686.8" y="419" transform="rotate(45 686.8 419)" font-family="sans-serif" font-size="10">PURE_CAPTURE:neighbor_audit_penalty:C0.45</text>
<text x="686.8" y="317.9" text-anchor="middle" font-family="sans-serif" font-size="10">0.24</text>
<rect x="693.3" y="352.9" width="7.9" height="52.1" fill="#1d4ed8"/>
<text x="697.2" y="419" transform="rotate(45 697.2 419)" font-family="sans-serif" font-size="10">MIXED_CAPTURE_CATASTROPHE:neighbor_audit_penalty:C0.45</text>
<text x="697.2" y="348.9" text-anchor="middle" font-family="sans-serif" font-size="10">0.15</text>
<rect x="703.7" y="304.5" width="7.9" height="100.5" fill="#1d4ed8"/>
<text x="707.6" y="419" transform="rotate(45 707.6 419)" font-family="sans-serif" font-size="10">PURE_CAPTURE:neighbor_audit_penalty:C0.45</text>
<text x="707.6" y="300.5" text-anchor="middle" font-family="sans-serif" font-size="10">0.29</text>
<rect x="714.0" y="316.7" width="7.9" height="88.3" fill="#1d4ed8"/>
<text x="718.0" y="419" transform="rotate(45 718.0 419)" font-family="sans-serif" font-size="10">MIXED_CAPTURE_CATASTROPHE:neighbor_audit_penalty:C0.45</text>
<text x="718.0" y="312.7" text-anchor="middle" font-family="sans-serif" font-size="10">0.26</text>
<rect x="724.4" y="292.6" width="7.9" height="112.4" fill="#1d4ed8"/>
<text x="728.4" y="419" transform="rotate(45 728.4 419)" font-family="sans-serif" font-size="10">PURE_CAPTURE:neighbor_audit_penalty:C0.45</text>
<text x="728.4" y="288.6" text-anchor="middle" font-family="sans-serif" font-size="10">0.33</text>
<rect x="734.8" y="309.6" width="7.9" height="95.4" fill="#1d4ed8"/>
<text x="738.7" y="419" transform="rotate(45 738.7 419)" font-family="sans-serif" font-size="10">MIXED_CAPTURE_CATASTROPHE:neighbor_audit_penalty:C0.45</text>
<text x="738.7" y="305.6" text-anchor="middle" font-family="sans-serif" font-size="10">0.28</text>
<rect x="745.2" y="281.8" width="7.9" height="123.2" fill="#1d4ed8"/>
<text x="749.1" y="419" transform="rotate(45 749.1 419)" font-family="sans-serif" font-size="10">PURE_CAPTURE:neighbor_audit_penalty:C0.45</text>
<text x="749.1" y="277.8" text-anchor="middle" font-family="sans-serif" font-size="10">0.36</text>
<rect x="755.5" y="302.9" width="7.9" height="102.1" fill="#1d4ed8"/>
<text x="759.5" y="419" transform="rotate(45 759.5 419)" font-family="sans-serif" font-size="10">MIXED_CAPTURE_CATASTROPHE:neighbor_audit_penalty:C0.45</text>
<text x="759.5" y="298.9" text-anchor="middle" font-family="sans-serif" font-size="10">0.30</text>
<rect x="765.9" y="212.9" width="7.9" height="192.1" fill="#1d4ed8"/>
<text x="769.9" y="419" transform="rotate(45 769.9 419)" font-family="sans-serif" font-size="10">PURE_CAPTURE:consequence_plus_diversity:C0.45</text>
<text x="769.9" y="208.9" text-anchor="middle" font-family="sans-serif" font-size="10">0.56</text>
<rect x="776.3" y="215.4" width="7.9" height="189.6" fill="#1d4ed8"/>
<text x="780.3" y="419" transform="rotate(45 780.3 419)" font-family="sans-serif" font-size="10">PURE_CAPTURE:consequence_plus_diversity:C0.45</text>
<text x="780.3" y="211.4" text-anchor="middle" font-family="sans-serif" font-size="10">0.55</text>
<rect x="786.7" y="226.2" width="7.9" height="178.8" fill="#1d4ed8"/>
<text x="790.6" y="419" transform="rotate(45 790.6 419)" font-family="sans-serif" font-size="10">MIXED_CAPTURE_CATASTROPHE:consequence_plus_diversity:C0.45</text>
<text x="790.6" y="222.2" text-anchor="middle" font-family="sans-serif" font-size="10">0.52</text>
<rect x="797.1" y="224.5" width="7.9" height="180.5" fill="#1d4ed8"/>
<text x="801.0" y="419" transform="rotate(45 801.0 419)" font-family="sans-serif" font-size="10">MIXED_CAPTURE_CATASTROPHE:consequence_plus_diversity:C0.45</text>
<text x="801.0" y="220.5" text-anchor="middle" font-family="sans-serif" font-size="10">0.52</text>
<rect x="807.4" y="365.6" width="7.9" height="39.4" fill="#1d4ed8"/>
<text x="811.4" y="419" transform="rotate(45 811.4 419)" font-family="sans-serif" font-size="10">PURE_CAPTURE:neighbor_quarantine:C0.45</text>
<text x="811.4" y="361.6" text-anchor="middle" font-family="sans-serif" font-size="10">0.11</text>
<rect x="817.8" y="365.4" width="7.9" height="39.6" fill="#1d4ed8"/>
<text x="821.8" y="419" transform="rotate(45 821.8 419)" font-family="sans-serif" font-size="10">PURE_CAPTURE:neighbor_quarantine:C0.45</text>
<text x="821.8" y="361.4" text-anchor="middle" font-family="sans-serif" font-size="10">0.11</text>
<rect x="828.2" y="367.3" width="7.9" height="37.7" fill="#1d4ed8"/>
<text x="832.2" y="419" transform="rotate(45 832.2 419)" font-family="sans-serif" font-size="10">PURE_CAPTURE:neighbor_quarantine:C0.45</text>
<text x="832.2" y="363.3" text-anchor="middle" font-family="sans-serif" font-size="10">0.11</text>
<rect x="838.6" y="368.8" width="7.9" height="36.2" fill="#1d4ed8"/>
<text x="842.5" y="419" transform="rotate(45 842.5 419)" font-family="sans-serif" font-size="10">PURE_CAPTURE:neighbor_quarantine:C0.45</text>
<text x="842.5" y="364.8" text-anchor="middle" font-family="sans-serif" font-size="10">0.11</text>
<rect x="849.0" y="368.0" width="7.9" height="37.0" fill="#1d4ed8"/>
<text x="852.9" y="419" transform="rotate(45 852.9 419)" font-family="sans-serif" font-size="10">PURE_CAPTURE:neighbor_quarantine:C0.45</text>
<text x="852.9" y="364.0" text-anchor="middle" font-family="sans-serif" font-size="10">0.11</text>
<rect x="859.3" y="369.9" width="7.9" height="35.1" fill="#1d4ed8"/>
<text x="863.3" y="419" transform="rotate(45 863.3 419)" font-family="sans-serif" font-size="10">PURE_CAPTURE:neighbor_quarantine:C0.45</text>
<text x="863.3" y="365.9" text-anchor="middle" font-family="sans-serif" font-size="10">0.10</text>
<rect x="869.7" y="370.8" width="7.9" height="34.2" fill="#1d4ed8"/>
<text x="873.7" y="419" transform="rotate(45 873.7 419)" font-family="sans-serif" font-size="10">PURE_CAPTURE:neighbor_quarantine:C0.45</text>
<text x="873.7" y="366.8" text-anchor="middle" font-family="sans-serif" font-size="10">0.10</text>
<rect x="880.1" y="368.3" width="7.9" height="36.7" fill="#1d4ed8"/>
<text x="884.1" y="419" transform="rotate(45 884.1 419)" font-family="sans-serif" font-size="10">PURE_CAPTURE:neighbor_quarantine:C0.45</text>
<text x="884.1" y="364.3" text-anchor="middle" font-family="sans-serif" font-size="10">0.11</text>
<rect x="890.5" y="397.4" width="7.9" height="7.6" fill="#1d4ed8"/>
<text x="894.4" y="419" transform="rotate(45 894.4 419)" font-family="sans-serif" font-size="10">MIXED_CAPTURE_CATASTROPHE:neighbor_quarantine:C0.45</text>
<text x="894.4" y="393.4" text-anchor="middle" font-family="sans-serif" font-size="10">0.02</text>
<rect x="900.9" y="362.7" width="7.9" height="42.3" fill="#1d4ed8"/>
<text x="904.8" y="419" transform="rotate(45 904.8 419)" font-family="sans-serif" font-size="10">MIXED_CAPTURE_CATASTROPHE:neighbor_quarantine:C0.45</text>
<text x="904.8" y="358.7" text-anchor="middle" font-family="sans-serif" font-size="10">0.12</text>
</svg>
