<svg xmlns="http://www.w3.org/2000/svg" width="940" height="540" viewBox="0 0 940 540">
<rect width="100%" height="100%" fill="white"/>
<text x="470.0" y="30" text-anchor="middle" font-family="sans-serif" font-size="18">Pure Catastrophe False Positive Rate</text>
<line x1="90" y1="405" x2="910" y2="405" stroke="#111"/>
<line x1="90" y1="60" x2="90" y2="405" stroke="#111"/>
<text x="18" y="270.0" transform="rotate(-90 18 270.0)" font-family="sans-serif" font-size="12">false positive rate</text>
<rect x="95.2" y="405.0" width="32.8" height="0.0" fill="#1d4ed8"/>
<text x="111.6" y="419" transform="rotate(45 111.6 419)" font-family="sans-serif" font-size="10">neighbor_consequence:C0.0</text>
<text x="111.6" y="401.0" text-anchor="middle" font-family="sans-serif" font-size="10">0.00</text>
<rect x="138.3" y="405.0" width="32.8" height="0.0" fill="#1d4ed8"/>
<text x="154.7" y="419" transform="rotate(45 154.7 419)" font-family="sans-serif" font-size="10">local_global_neighbor:C0.0</text>
<text x="154.7" y="401.0" text-anchor="middle" font-family="sans-serif" font-size="10">0.00</text>
<rect x="181.5" y="405.0" width="32.8" height="0.0" fill="#1d4ed8"/>
<text x="197.9" y="419" transform="rotate(45 197.9 419)" font-family="sans-serif" font-size="10">response_to_neighbor_aid:C0.0</text>
<text x="197.9" y="401.0" text-anchor="middle" font-family="sans-serif" font-size="10">0.00</text>
<rect x="224.7" y="405.0" width="32.8" height="0.0" fill="#1d4ed8"/>
<text x="241.1" y="419" transform="rotate(45 241.1 419)" font-family="sans-serif" font-size="10">neighbor_penalty:C0.2</text>
<text x="241.1" y="401.0" text-anchor="middle" font-family="sans-serif" font-size="10">0.00</text>
<rect x="267.8" y="405.0" width="32.8" height="0.0" fill="#1d4ed8"/>
<text x="284.2" y="419" transform="rotate(45 284.2 419)" font-family="sans-serif" font-size="10">neighbor_penalty:C0.45</text>
<text x="284.2" y="401.0" text-anchor="middle" font-family="sans-serif" font-size="10">0.00</text>
<rect x="311.0" y="405.0" width="32.8" height="0.0" fill="#1d4ed8"/>
<text x="327.4" y="419" transform="rotate(45 327.4 419)" font-family="sans-serif" font-size="10">neighbor_penalty:C0.7</text>
<text x="327.4" y="401.0" text-anchor="middle" font-family="sans-serif" font-size="10">0.00</text>
<rect x="354.1" y="405.0" width="32.8" height="0.0" fill="#1d4ed8"/>
<text x="370.5" y="419" transform="rotate(45 370.5 419)" font-family="sans-serif" font-size="10">neighbor_quarantine:C0.2</text>
<text x="370.5" y="401.0" text-anchor="middle" font-family="sans-serif" font-size="10">0.00</text>
<rect x="397.3" y="405.0" width="32.8" height="0.0" fill="#1d4ed8"/>
<text x="413.7" y="419" transform="rotate(45 413.7 419)" font-family="sans-serif" font-size="10">neighbor_quarantine:C0.45</text>
<text x="413.7" y="401.0" text-anchor="middle" font-family="sans-serif" font-size="10">0.00</text>
<rect x="440.4" y="405.0" width="32.8" height="0.0" fill="#1d4ed8"/>
<text x="456.8" y="419" transform="rotate(45 456.8 419)" font-family="sans-serif" font-size="10">neighbor_quarantine:C0.7</text>
<text x="456.8" y="401.0" text-anchor="middle" font-family="sans-serif" font-size="10">0.00</text>
<rect x="483.6" y="405.0" width="32.8" height="0.0" fill="#1d4ed8"/>
<text x="500.0" y="419" transform="rotate(45 500.0 419)" font-family="sans-serif" font-size="10">neighbor_audit_penalty:C0.2</text>
<text x="500.0" y="401.0" text-anchor="middle" font-family="sans-serif" font-size="10">0.00</text>
<rect x="526.8" y="405.0" width="32.8" height="0.0" fill="#1d4ed8"/>
<text x="543.2" y="419" transform="rotate(45 543.2 419)" font-family="sans-serif" font-size="10">neighbor_audit_penalty:C0.45</text>
<text x="543.2" y="401.0" text-anchor="middle" font-family="sans-serif" font-size="10">0.00</text>
<rect x="569.9" y="405.0" width="32.8" height="0.0" fill="#1d4ed8"/>
<text x="586.3" y="419" transform="rotate(45 586.3 419)" font-family="sans-serif" font-size="10">neighbor_audit_penalty:C0.7</text>
<text x="586.3" y="401.0" text-anchor="middle" font-family="sans-serif" font-size="10">0.00</text>
<rect x="613.1" y="405.0" width="32.8" height="0.0" fill="#1d4ed8"/>
<text x="629.5" y="419" transform="rotate(45 629.5 419)" font-family="sans-serif" font-size="10">consequence_plus_diversity:C0.2</text>
<text x="629.5" y="401.0" text-anchor="middle" font-family="sans-serif" font-size="10">0.00</text>
<rect x="656.2" y="405.0" width="32.8" height="0.0" fill="#1d4ed8"/>
<text x="672.6" y="419" transform="rotate(45 672.6 419)" font-family="sans-serif" font-size="10">consequence_plus_diversity:C0.45</text>
<text x="672.6" y="401.0" text-anchor="middle" font-family="sans-serif" font-size="10">0.00</text>
<rect x="699.4" y="405.0" width="32.8" height="0.0" fill="#1d4ed8"/>
<text x="715.8" y="419" transform="rotate(45 715.8 419)" font-family="sans-serif" font-size="10">consequence_plus_diversity:C0.7</text>
<text x="715.8" y="401.0" text-anchor="middle" font-family="sans-serif" font-size="10">0.00</text>
<rect x="742.5" y="405.0" width="32.8" height="0.0" fill="#1d4ed8"/>
<text x="758.9" y="419" transform="rotate(45 758.9 419)" font-family="sans-serif" font-size="10">diversity_non_adversarial_only:C0.0</text>
<text x="758.9" y="401.0" text-anchor="middle" font-family="sans-serif" font-size="10">0.00</text>
<rect x="785.7" y="405.0" width="32.8" height="0.0" fill="#1d4ed8"/>
<text x="802.1" y="419" transform="rotate(45 802.1 419)" font-family="sans-serif" font-size="10">consequence_plus_diversity:C0.45</text>
<text x="802.1" y="401.0" text-anchor="middle" font-family="sans-serif" font-size="10">0.00</text>
<rect x="828.9" y="405.0" width="32.8" height="0.0" fill="#1d4ed8"/>
<text x="845.3" y="419" transform="rotate(45 845.3 419)" font-family="sans-serif" font-size="10">consequence_plus_diversity:C0.45</text>
<text x="845.3" y="401.0" text-anchor="middle" font-family="sans-serif" font-size="10">0.00</text>
<rect x="872.0" y="60.0" width="32.8" height="345.0" fill="#1d4ed8"/>
<text x="888.4" y="419" transform="rotate(45 888.4 419)" font-family="sans-serif" font-size="10">consequence_plus_diversity:C0.45</text>
<text x="888.4" y="56.0" text-anchor="middle" font-family="sans-serif" font-size="10">4.24</text>
</svg>
