<svg xmlns="http://www.w3.org/2000/svg" width="940" height="540" viewBox="0 0 940 540">
<rect width="100%" height="100%" fill="white"/>
<text x="470.0" y="30" text-anchor="middle" font-family="sans-serif" font-size="18">Viability by Enforcement Setting</text>
<line x1="90" y1="405" x2="910" y2="405" stroke="#111"/>
<line x1="90" y1="60" x2="90" y2="405" stroke="#111"/>
<text x="18" y="270.0" transform="rotate(-90 18 270.0)" font-family="sans-serif" font-size="12">viable</text>
<rect x="91.2" y="405.0" width="7.9" height="0.0" fill="#1d4ed8"/>
<text x="95.2" y="419" transform="rotate(45 95.2 419)" font-family="sans-serif" font-size="10">PURE_CAPTURE:neighbor_penalty:C0.2</text>
<text x="95.2" y="401.0" text-anchor="middle" font-family="sans-serif" font-size="10">0.00</text>
<rect x="101.6" y="405.0" width="7.9" height="0.0" fill="#1d4ed8"/>
<text x="105.6" y="419" transform="rotate(45 105.6 419)" font-family="sans-serif" font-size="10">PURE_CAPTURE:neighbor_penalty:C0.45</text>
<text x="105.6" y="401.0" text-anchor="middle" font-family="sans-serif" font-size="10">0.00</text>
<rect x="112.0" y="405.0" width="7.9" height="0.0" fill="#1d4ed8"/>
<text x="115.9" y="419" transform="rotate(45 115.9 419)" font-family="sans-serif" font-size="10">PURE_CAPTURE:neighbor_penalty:C0.7</text>
<text x="115.9" y="401.0" text-anchor="middle" font-family="sans-serif" font-size="10">0.00</text>
<rect x="122.4" y="405.0" width="7.9" height="0.0" fill="#1d4ed8"/>
<text x="126.3" y="419" transform="rotate(45 126.3 419)" font-family="sans-serif" font-size="10">PURE_CAPTURE:neighbor_quarantine:C0.2</text>
<text x="126.3" y="401.0" text-anchor="middle" font-family="sans-serif" font-size="10">0.00</text>
<rect x="132.8" y="405.0" width="7.9" height="0.0" fill="#1d4ed8"/>
<text x="136.7" y="419" transform="rotate(45 136.7 419)" font-family="sans-serif" font-size="10">PURE_CAPTURE:neighbor_quarantine:C0.45</text>
<text x="136.7" y="401.0" text-anchor="middle" font-family="sans-serif" font-size="10">0.00</text>
<rect x="143.1" y="405.0" width="7.9" height="0.0" fill="#1d4ed8"/>
<text x="147.1" y="419" transform="rotate(45 147.1 419)" font-family="sans-serif" font-size="10">PURE_CAPTURE:neighbor_quarantine:C0.7</text>
<text x="147.1" y="401.0" text-anchor="middle" font-family="sans-serif" font-size="10">0.00</text>
<rect x="153.5" y="405.0" width="7.9" height="0.0" fill="#1d4ed8"/>
<text x="157.5" y="419" transform="rotate(45 157.5 419)" font-family="sans-serif" font-size="10">PURE_CAPTURE:neighbor_audit_penalty:C0.2</text>
<text x="157.5" y="401.0" text-anchor="middle" font-family="sans-serif" font-size="10">0.00</text>
<rect x="163.9" y="405.0" width="7.9" height="0.0" fill="#1d4ed8"/>
<text x="167.8" y="419" transform="rotate(45 167.8 419)" font-family="sans-serif" font-size="10">PURE_CAPTURE:neighbor_audit_penalty:C0.45</text>
<text x="167.8" y="401.0" text-anchor="middle" font-family="sans-serif" font-size="10">0.00</text>
<rect x="174.3" y="405.0" width="7.9" height="0.0" fill="#1d4ed8"/>
<text x="178.2" y="419" transform="rotate(45 178.2 419)" font-family="sans-serif" font-size="10">PURE_CAPTURE:neighbor_audit_penalty:C0.7</text>
<text x="178.2" y="401.0" text-anchor="middle" font-family="sans-serif" font-size="10">0.00</text>
<rect x="184.7" y="405.0" width="7.9" height="0.0" fill="#1d4ed8"/>
<text x="188.6" y="419" transform="rotate(45 188.6 419)" font-family="sans-serif" font-size="10">PURE_CAPTURE:consequence_plus_diversity:C0.2</text>
<text x="188.6" y="401.0" text-anchor="middle" font-family="sans-serif" font-size="10">0.00</text>
<rect x="195.0" y="405.0" width="7.9" height="0.0" fill="#1d4ed8"/>
<text x="199.0" y="419" transform="rotate(45 199.0 419)" font-family="sans-serif" font-size="10">PURE_CAPTURE:consequence_plus_diversity:C0.45</text>
<text x="199.0" y="401.0" text-anchor="middle" font-family="sans-serif" font-size="10">0.00</text>
<rect x="205.4" y="405.0" width="7.9" height="0.0" fill="#1d4ed8"/>
<text x="209.4" y="419" transform="rotate(45 209.4 419)" font-family="sans-serif" font-size="10">PURE_CAPTURE:consequence_plus_diversity:C0.7</text>
<text x="209.4" y="401.0" text-anchor="middle" font-family="sans-serif" font-size="10">0.00</text>
<rect x="215.8" y="405.0" width="7.9" height="0.0" fill="#1d4ed8"/>
<text x="219.7" y="419" transform="rotate(45 219.7 419)" font-family="sans-serif" font-size="10">MIXED_CAPTURE_CATASTROPHE:neighbor_penalty:C0.2</text>
<text x="219.7" y="401.0" text-anchor="middle" font-family="sans-serif" font-size="10">0.00</text>
<rect x="226.2" y="405.0" width="7.9" height="0.0" fill="#1d4ed8"/>
<text x="230.1" y="419" transform="rotate(45 230.1 419)" font-family="sans-serif" font-size="10">MIXED_CAPTURE_CATASTROPHE:neighbor_penalty:C0.45</text>
<text x="230.1" y="401.0" text-anchor="middle" font-family="sans-serif" font-size="10">0.00</text>
<rect x="236.6" y="405.0" width="7.9" height="0.0" fill="#1d4ed8"/>
<text x="240.5" y="419" transform="rotate(45 240.5 419)" font-family="sans-serif" font-size="10">MIXED_CAPTURE_CATASTROPHE:neighbor_penalty:C0.7</text>
<text x="240.5" y="401.0" text-anchor="middle" font-family="sans-serif" font-size="10">0.00</text>
<rect x="246.9" y="405.0" width="7.9" height="0.0" fill="#1d4ed8"/>
<text x="250.9" y="419" transform="rotate(45 250.9 419)" font-family="sans-serif" font-size="10">MIXED_CAPTURE_CATASTROPHE:neighbor_quarantine:C0.2</text>
<text x="250.9" y="401.0" text-anchor="middle" font-family="sans-serif" font-size="10">0.00</text>
<rect x="257.3" y="405.0" width="7.9" height="0.0" fill="#1d4ed8"/>
<text x="261.3" y="419" transform="rotate(45 261.3 419)" font-family="sans-serif" font-size="10">MIXED_CAPTURE_CATASTROPHE:neighbor_quarantine:C0.45</text>
<text x="261.3" y="401.0" text-anchor="middle" font-family="sans-serif" font-size="10">0.00</text>
<rect x="267.7" y="405.0" width="7.9" height="0.0" fill="#1d4ed8"/>
<text x="271.6" y="419" transform="rotate(45 271.6 419)" font-family="sans-serif" font-size="10">MIXED_CAPTURE_CATASTROPHE:neighbor_quarantine:C0.7</text>
<text x="271.6" y="401.0" text-anchor="middle" font-family="sans-serif" font-size="10">0.00</text>
<rect x="278.1" y="405.0" width="7.9" height="0.0" fill="#1d4ed8"/>
<text x="282.0" y="419" transform="rotate(45 282.0 419)" font-family="sans-serif" font-size="10">MIXED_CAPTURE_CATASTROPHE:neighbor_audit_penalty:C0.2</text>
<text x="282.0" y="401.0" text-anchor="middle" font-family="sans-serif" font-size="10">0.00</text>
<rect x="288.5" y="405.0" width="7.9" height="0.0" fill="#1d4ed8"/>
<text x="292.4" y="419" transform="rotate(45 292.4 419)" font-family="sans-serif" font-size="10">MIXED_CAPTURE_CATASTROPHE:neighbor_audit_penalty:C0.45</text>
<text x="292.4" y="401.0" text-anchor="middle" font-family="sans-serif" font-size="10">0.00</text>
<rect x="298.8" y="405.0" width="7.9" height="0.0" fill="#1d4ed8"/>
<text x="302.8" y="419" transform="rotate(45 302.8 419)" font-family="sans-serif" font-size="10">MIXED_CAPTURE_CATASTROPHE:neighbor_audit_penalty:C0.7</text>
<text x="302.8" y="401.0" text-anchor="middle" font-family="sans-serif" font-size="10">0.00</text>
<rect x="309.2" y="405.0" width="7.9" height="0.0" fill="#1d4ed8"/>
<text x="313.2" y="419" transform="rotate(45 313.2 419)" font-family="sans-serif" font-size="10">MIXED_CAPTURE_CATASTROPHE:consequence_plus_diversity:C0.2</text>
<text x="313.2" y="401.0" text-anchor="middle" font-family="sans-serif" font-size="10">0.00</text>
<rect x="319.6" y="405.0" width="7.9" height="0.0" fill="#1d4ed8"/>
<text x="323.5" y="419" transform="rotate(45 323.5 419)" font-family="sans-serif" font-size="10">MIXED_CAPTURE_CATASTROPHE:consequence_plus_diversity:C0.45</text>
<text x="323.5" y="401.0" text-anchor="middle" font-family="sans-serif" font-size="10">0.00</text>
<rect x="330.0" y="405.0" width="7.9" height="0.0" fill="#1d4ed8"/>
<text x="333.9" y="419" transform="rotate(45 333.9 419)" font-family="sans-serif" font-size="10">MIXED_CAPTURE_CATASTROPHE:consequence_plus_diversity:C0.7</text>
<text x="333.9" y="401.0" text-anchor="middle" font-family="sans-serif" font-size="10">0.00</text>
<rect x="340.4" y="405.0" width="7.9" height="0.0" fill="#1d4ed8"/>
<text x="344.3" y="419" transform="rotate(45 344.3 419)" font-family="sans-serif" font-size="10">SCAVENGER_CATASTROPHE:neighbor_penalty:C0.2</text>
<text x="344.3" y="401.0" text-anchor="middle" font-family="sans-serif" font-size="10">0.00</text>
<rect x="350.7" y="405.0" width="7.9" height="0.0" fill="#1d4ed8"/>
<text x="354.7" y="419" transform="rotate(45 354.7 419)" font-family="sans-serif" font-size="10">SCAVENGER_CATASTROPHE:neighbor_penalty:C0.45</text>
<text x="354.7" y="401.0" text-anchor="middle" font-family="sans-serif" font-size="10">0.00</text>
<rect x="361.1" y="405.0" width="7.9" height="0.0" fill="#1d4ed8"/>
<text x="365.1" y="419" transform="rotate(45 365.1 419)" font-family="sans-serif" font-size="10">SCAVENGER_CATASTROPHE:neighbor_penalty:C0.7</text>
<text x="365.1" y="401.0" text-anchor="middle" font-family="sans-serif" font-size="10">0.00</text>
<rect x="371.5" y="405.0" width="7.9" height="0.0" fill="#1d4ed8"/>
<text x="375.4" y="419" transform="rotate(45 375.4 419)" font-family="sans-serif" font-size="10">SCAVENGER_CATASTROPHE:neighbor_quarantine:C0.2</text>
<text x="375.4" y="401.0" text-anchor="middle" font-family="sans-serif" font-size="10">0.00</text>
<rect x="381.9" y="405.0" width="7.9" height="0.0" fill="#1d4ed8"/>
<text x="385.8" y="419" transform="rotate(45 385.8 419)" font-family="sans-serif" font-size="10">SCAVENGER_CATASTROPHE:neighbor_quarantine:C0.45</text>
<text x="385.8" y="401.0" text-anchor="middle" font-family="sans-serif" font-size="10">0.00</text>
<rect x="392.3" y="405.0" width="7.9" height="0.0" fill="#1d4ed8"/>
<text x="396.2" y="419" transform="rotate(45 396.2 419)" font-family="sans-serif" font-size="10">SCAVENGER_CATASTROPHE:neighbor_quarantine:C0.7</text>
<text x="396.2" y="401.0" text-anchor="middle" font-family="sans-serif" font-size="10">0.00</text>
<rect x="402.6" y="405.0" width="7.9" height="0.0" fill="#1d4ed8"/>
<text x="406.6" y="419" transform="rotate(45 406.6 419)" font-family="sans-serif" font-size="10">SCAVENGER_CATASTROPHE:neighbor_audit_penalty:C0.2</text>
<text x="406.6" y="401.0" text-anchor="middle" font-family="sans-serif" font-size="10">0.00</text>
<rect x="413.0" y="405.0" width="7.9" height="0.0" fill="#1d4ed8"/>
<text x="417.0" y="419" transform="rotate(45 417.0 419)" font-family="sans-serif" font-size="10">SCAVENGER_CATASTROPHE:neighbor_audit_penalty:C0.45</text>
<text x="417.0" y="401.0" text-anchor="middle" font-family="sans-serif" font-size="10">0.00</text>
<rect x="423.4" y="405.0" width="7.9" height="0.0" fill="#1d4ed8"/>
<text x="427.3" y="419" transform="rotate(45 427.3 419)" font-family="sans-serif" font-size="10">SCAVENGER_CATASTROPHE:neighbor_audit_penalty:C0.7</text>
<text x="427.3" y="401.0" text-anchor="middle" font-family="sans-serif" font-size="10">0.00</text>
<rect x="433.8" y="405.0" width="7.9" height="0.0" fill="#1d4ed8"/>
<text x="437.7" y="419" transform="rotate(45 437.7 419)" font-family="sans-serif" font-size="10">SCAVENGER_CATASTROPHE:consequence_plus_diversity:C0.2</text>
<text x="437.7" y="401.0" text-anchor="middle" font-family="sans-serif" font-size="10">0.00</text>
<rect x="444.2" y="405.0" width="7.9" height="0.0" fill="#1d4ed8"/>
<text x="448.1" y="419" transform="rotate(45 448.1 419)" font-family="sans-serif" font-size="10">SCAVENGER_CATASTROPHE:consequence_plus_diversity:C0.45</text>
<text x="448.1" y="401.0" text-anchor="middle" font-family="sans-serif" font-size="10">0.00</text>
<rect x="454.5" y="405.0" width="7.9" height="0.0" fill="#1d4ed8"/>
<text x="458.5" y="419" transform="rotate(45 458.5 419)" font-family="sans-serif" font-size="10">SCAVENGER_CATASTROPHE:consequence_plus_diversity:C0.7</text>
<text x="458.5" y="401.0" text-anchor="middle" font-family="sans-serif" font-size="10">0.00</text>
<rect x="464.9" y="405.0" width="7.9" height="0.0" fill="#1d4ed8"/>
<text x="468.9" y="419" transform="rotate(45 468.9 419)" font-family="sans-serif" font-size="10">PURE_CAPTURE:consequence_plus_diversity:C0.45</text>
<text x="468.9" y="401.0" text-anchor="middle" font-family="sans-serif" font-size="10">0.00</text>
<rect x="475.3" y="405.0" width="7.9" height="0.0" fill="#1d4ed8"/>
<text x="479.2" y="419" transform="rotate(45 479.2 419)" font-family="sans-serif" font-size="10">PURE_CAPTURE:consequence_plus_diversity:C0.45</text>
<text x="479.2" y="401.0" text-anchor="middle" font-family="sans-serif" font-size="10">0.00</text>
<rect x="485.7" y="405.0" width="7.9" height="0.0" fill="#1d4ed8"/>
<text x="489.6" y="419" transform="rotate(45 489.6 419)" font-family="sans-serif" font-size="10">PURE_CAPTURE:consequence_plus_diversity:C0.45</text>
<text x="489.6" y="401.0" text-anchor="middle" font-family="sans-serif" font-size="10">0.00</text>
<rect x="496.1" y="405.0" width="7.9" height="0.0" fill="#1d4ed8"/>
<text x="500.0" y="419" transform="rotate(45 500.0 419)" font-family="sans-serif" font-size="10">PURE_CAPTURE:consequence_plus_diversity:C0.45</text>
<text x="500.0" y="401.0" text-anchor="middle" font-family="sans-serif" font-size="10">0.00</text>
<rect x="506.4" y="405.0" width="7.9" height="0.0" fill="#1d4ed8"/>
<text x="510.4" y="419" transform="rotate(45 510.4 419)" font-family="sans-serif" font-size="10">PURE_CAPTURE:consequence_plus_diversity:C0.45</text>
<text x="510.4" y="401.0" text-anchor="middle" font-family="sans-serif" font-size="10">0.00</text>
<rect x="516.8" y="405.0" width="7.9" height="0.0" fill="#1d4ed8"/>
<text x="520.8" y="419" transform="rotate(45 520.8 419)" font-family="sans-serif" font-size="10">MIXED_CAPTURE_CATASTROPHE:consequence_plus_diversity:C0.45</text>
<text x="520.8" y="401.0" text-anchor="middle" font-family="sans-serif" font-size="10">0.00</text>
<rect x="527.2" y="405.0" width="7.9" height="0.0" fill="#1d4ed8"/>
<text x="531.1" y="419" transform="rotate(45 531.1 419)" font-family="sans-serif" font-size="10">MIXED_CAPTURE_CATASTROPHE:consequence_plus_diversity:C0.45</text>
<text x="531.1" y="401.0" text-anchor="middle" font-family="sans-serif" font-size="10">0.00</text>
<rect x="537.6" y="405.0" width="7.9" height="0.0" fill="#1d4ed8"/>
<text x="541.5" y="419" transform="rotate(45 541.5 419)" font-family="sans-serif" font-size="10">MIXED_CAPTURE_CATASTROPHE:consequence_plus_diversity:C0.45</text>
<text x="541.5" y="401.0" text-anchor="middle" font-family="sans-serif" font-size="10">0.00</text>
<rect x="548.0" y="405.0" width="7.9" height="0.0" fill="#1d4ed8"/>
<text x="551.9" y="419" transform="rotate(45 551.9 419)" font-family="sans-serif" font-size="10">PURE_CAPTURE:neighbor_penalty:C0.45</text>
<text x="551.9" y="401.0" text-anchor="middle" font-family="sans-serif" font-size="10">0.00</text>
<rect x="558.3" y="405.0" width="7.9" height="0.0" fill="#1d4ed8"/>
<text x="562.3" y="419" transform="rotate(45 562.3 419)" font-family="sans-serif" font-size="10">PURE_CAPTURE:neighbor_penalty:C0.45</text>
<text x="562.3" y="401.0" text-anchor="middle" font-family="sans-serif" font-size="10">0.00</text>
<rect x="568.7" y="405.0" width="7.9" height="0.0" fill="#1d4ed8"/>
<text x="572.7" y="419" transform="rotate(45 572.7 419)" font-family="sans-serif" font-size="10">PURE_CAPTURE:neighbor_penalty:C0.45</text>
<text x="572.7" y="401.0" text-anchor="middle" font-family="sans-serif" font-size="10">0.00</text>
<rect x="579.1" y="405.0" width="7.9" height="0.0" fill="#1d4ed8"/>
<text x="583.0" y="419" transform="rotate(45 583.0 419)" font-family="sans-serif" font-size="10">PURE_CAPTURE:neighbor_audit_penalty:C0.45</text>
<text x="583.0" y="401.0" text-anchor="middle" font-family="sans-serif" font-size="10">0.00</text>
<rect x="589.5" y="405.0" width="7.9" height="0.0" fill="#1d4ed8"/>
<text x="593.4" y="419" transform="rotate(45 593.4 419)" font-family="sans-serif" font-size="10">MIXED_CAPTURE_CATASTROPHE:neighbor_audit_penalty:C0.45</text>
<text x="593.4" y="401.0" text-anchor="middle" font-family="sans-serif" font-size="10">0.00</text>
<rect x="599.9" y="405.0" width="7.9" height="0.0" fill="#1d4ed8"/>
<text x="603.8" y="419" transform="rotate(45 603.8 419)" font-family="sans-serif" font-size="10">PURE_CAPTURE:neighbor_audit_penalty:C0.45</text>
<text x="603.8" y="401.0" text-anchor="middle" font-family="sans-serif" font-size="10">0.00</text>
<rect x="610.2" y="405.0" width="7.9" height="0.0" fill="#1d4ed8"/>
<text x="614.2" y="419" transform="rotate(45 614.2 419)" font-family="sans-serif" font-size="10">MIXED_CAPTURE_CATASTROPHE:neighbor_audit_penalty:C0.45</text>
<text x="614.2" y="401.0" text-anchor="middle" font-family="sans-serif" font-size="10">0.00</text>
<rect x="620.6" y="405.0" width="7.9" height="0.0" fill="#1d4ed8"/>
<text x="624.6" y="419" transform="rotate(45 624.6 419)" font-family="sans-serif" font-size="10">PURE_CAPTURE:neighbor_audit_penalty:C0.45</text>
<text x="624.6" y="401.0" text-anchor="middle" font-family="sans-serif" font-size="10">0.00</text>
<rect x="631.0" y="405.0" width="7.9" height="0.0" fill="#1d4ed8"/>
<text x="634.9" y="419" transform="rotate(45 634.9 419)" font-family="sans-serif" font-size="10">MIXED_CAPTURE_CATASTROPHE:neighbor_audit_penalty:C0.45</text>
<text x="634.9" y="401.0" text-anchor="middle" font-family="sans-serif" font-size="10">0.00</text>
<rect x="641.4" y="405.0" width="7.9" height="0.0" fill="#1d4ed8"/>
<text x="645.3" y="419" transform="rotate(45 645.3 419)" font-family="sans-serif" font-size="10">PURE_CAPTURE:neighbor_audit_penalty:C0.45</text>
<text x="645.3" y="401.0" text-anchor="middle" font-family="sans-serif" font-size="10">0.00</text>
<rect x="651.8" y="405.0" width="7.9" height="0.0" fill="#1d4ed8"/>
<text x="655.7" y="419" transform="rotate(45 655.7 419)" font-family="sans-serif" font-size="10">MIXED_CAPTURE_CATASTROPHE:neighbor_audit_penalty:C0.45</text>
<text x="655.7" y="401.0" text-anchor="middle" font-family="sans-serif" font-size="10">0.00</text>
<rect x="662.1" y="405.0" width="7.9" height="0.0" fill="#1d4ed8"/>
<text x="666.1" y="419" transform="rotate(45 666.1 419)" font-family="sans-serif" font-size="10">PURE_CAPTURE:neighbor_audit_penalty:C0.45</text>
<text x="666.1" y="401.0" text-anchor="middle" font-family="sans-serif" font-size="10">0.00</text>
<rect x="672.5" y="405.0" width="7.9" height="0.0" fill="#1d4ed8"/>
<text x="676.5" y="419" transform="rotate(45 676.5 419)" font-family="sans-serif" font-size="10">MIXED_CAPTURE_CATASTROPHE:neighbor_audit_penalty:C0.45</text>
<text x="676.5" y="401.0" text-anchor="middle" font-family="sans-serif" font-size="10">0.00</text>
<rect x="682.9" y="405.0" width="7.9" height="0.0" fill="#1d4ed8"/>
<text x="686.8" y="419" transform="rotate(45 686.8 419)" font-family="sans-serif" font-size="10">PURE_CAPTURE:neighbor_audit_penalty:C0.45</text>
<text x="686.8" y="401.0" text-anchor="middle" font-family="sans-serif" font-size="10">0.00</text>
<rect x="693.3" y="405.0" width="7.9" height="0.0" fill="#1d4ed8"/>
<text x="697.2" y="419" transform="rotate(45 697.2 419)" font-family="sans-serif" font-size="10">MIXED_CAPTURE_CATASTROPHE:neighbor_audit_penalty:C0.45</text>
<text x="697.2" y="401.0" text-anchor="middle" font-family="sans-serif" font-size="10">0.00</text>
<rect x="703.7" y="405.0" width="7.9" height="0.0" fill="#1d4ed8"/>
<text x="707.6" y="419" transform="rotate(45 707.6 419)" font-family="sans-serif" font-size="10">PURE_CAPTURE:neighbor_audit_penalty:C0.45</text>
<text x="707.6" y="401.0" text-anchor="middle" font-family="sans-serif" font-size="10">0.00</text>
<rect x="714.0" y="405.0" width="7.9" height="0.0" fill="#1d4ed8"/>
<text x="718.0" y="419" transform="rotate(45 718.0 419)" font-family="sans-serif" font-size="10">MIXED_CAPTURE_CATASTROPHE:neighbor_audit_penalty:C0.45</text>
<text x="718.0" y="401.0" text-anchor="middle" font-family="sans-serif" font-size="10">0.00</text>
<rect x="724.4" y="405.0" width="7.9" height="0.0" fill="#1d4ed8"/>
<text x="728.4" y="419" transform="rotate(45 728.4 419)" font-family="sans-serif" font-size="10">PURE_CAPTURE:neighbor_audit_penalty:C0.45</text>
<text x="728.4" y="401.0" text-anchor="middle" font-family="sans-serif" font-size="10">0.00</text>
<rect x="734.8" y="405.0" width="7.9" height="0.0" fill="#1d4ed8"/>
<text x="738.7" y="419" transform="rotate(45 738.7 419)" font-family="sans-serif" font-size="10">MIXED_CAPTURE_CATASTROPHE:neighbor_audit_penalty:C0.45</text>
<text x="738.7" y="401.0" text-anchor="middle" font-family="sans-serif" font-size="10">0.00</text>
<rect x="745.2" y="405.0" width="7.9" height="0.0" fill="#1d4ed8"/>
<text x="749.1" y="419" transform="rotate(45 749.1 419)" font-family="sans-serif" font-size="10">PURE_CAPTURE:neighbor_audit_penalty:C0.45</text>
<text x="749.1" y="401.0" text-anchor="middle" font-family="sans-serif" font-size="10">0.00</text>
<rect x="755.5" y="405.0" width="7.9" height="0.0" fill="#1d4ed8"/>
<text x="759.5" y="419" transform="rotate(45 759.5 419)" font-family="sans-serif" font-size="10">MIXED_CAPTURE_CATASTROPHE:neighbor_audit_penalty:C0.45</text>
<text x="759.5" y="401.0" text-anchor="middle" font-family="sans-serif" font-size="10">0.00</text>
<rect x="765.9" y="405.0" width="7.9" height="0.0" fill="#1d4ed8"/>
<text x="769.9" y="419" transform="rotate(45 769.9 419)" font-family="sans-serif" font-size="10">PURE_CAPTURE:consequence_plus_diversity:C0.45</text>
<text x="769.9" y="401.0" text-anchor="middle" font-family="sans-serif" font-size="10">0.00</text>
<rect x="776.3" y="405.0" width="7.9" height="0.0" fill="#1d4ed8"/>
<text x="780.3" y="419" transform="rotate(45 780.3 419)" font-family="sans-serif" font-size="10">PURE_CAPTURE:consequence_plus_diversity:C0.45</text>
<text x="780.3" y="401.0" text-anchor="middle" font-family="sans-serif" font-size="10">0.00</text>
<rect x="786.7" y="405.0" width="7.9" height="0.0" fill="#1d4ed8"/>
<text x="790.6" y="419" transform="rotate(45 790.6 419)" font-family="sans-serif" font-size="10">MIXED_CAPTURE_CATASTROPHE:consequence_plus_diversity:C0.45</text>
<text x="790.6" y="401.0" text-anchor="middle" font-family="sans-serif" font-size="10">0.00</text>
<rect x="797.1" y="405.0" width="7.9" height="0.0" fill="#1d4ed8"/>
<text x="801.0" y="419" transform="rotate(45 801.0 419)" font-family="sans-serif" font-size="10">MIXED_CAPTURE_CATASTROPHE:consequence_plus_diversity:C0.45</text>
<text x="801.0" y="401.0" text-anchor="middle" font-family="sans-serif" font-size="10">0.00</text>
<rect x="807.4" y="405.0" width="7.9" height="0.0" fill="#1d4ed8"/>
<text x="811.4" y="419" transform="rotate(45 811.4 419)" font-family="sans-serif" font-size="10">PURE_CAPTURE:neighbor_quarantine:C0.45</text>
<text x="811.4" y="401.0" text-anchor="middle" font-family="sans-serif" font-size="10">0.00</text>
<rect x="817.8" y="405.0" width="7.9" height="0.0" fill="#1d4ed8"/>
<text x="821.8" y="419" transform="rotate(45 821.8 419)" font-family="sans-serif" font-size="10">PURE_CAPTURE:neighbor_quarantine:C0.45</text>
<text x="821.8" y="401.0" text-anchor="middle" font-family="sans-serif" font-size="10">0.00</text>
<rect x="828.2" y="405.0" width="7.9" height="0.0" fill="#1d4ed8"/>
<text x="832.2" y="419" transform="rotate(45 832.2 419)" font-family="sans-serif" font-size="10">PURE_CAPTURE:neighbor_quarantine:C0.45</text>
<text x="832.2" y="401.0" text-anchor="middle" font-family="sans-serif" font-size="10">0.00</text>
<rect x="838.6" y="405.0" width="7.9" height="0.0" fill="#1d4ed8"/>
<text x="842.5" y="419" transform="rotate(45 842.5 419)" font-family="sans-serif" font-size="10">PURE_CAPTURE:neighbor_quarantine:C0.45</text>
<text x="842.5" y="401.0" text-anchor="middle" font-family="sans-serif" font-size="10">0.00</text>
<rect x="849.0" y="405.0" width="7.9" height="0.0" fill="#1d4ed8"/>
<text x="852.9" y="419" transform="rotate(45 852.9 419)" font-family="sans-serif" font-size="10">PURE_CAPTURE:neighbor_quarantine:C0.45</text>
<text x="852.9" y="401.0" text-anchor="middle" font-family="sans-serif" font-size="10">0.00</text>
<rect x="859.3" y="405.0" width="7.9" height="0.0" fill="#1d4ed8"/>
<text x="863.3" y="419" transform="rotate(45 863.3 419)" font-family="sans-serif" font-size="10">PURE_CAPTURE:neighbor_quarantine:C0.45</text>
<text x="863.3" y="401.0" text-anchor="middle" font-family="sans-serif" font-size="10">0.00</text>
<rect x="869.7" y="405.0" width="7.9" height="0.0" fill="#1d4ed8"/>
<text x="873.7" y="419" transform="rotate(45 873.7 419)" font-family="sans-serif" font-size="10">PURE_CAPTURE:neighbor_quarantine:C0.45</text>
<text x="873.7" y="401.0" text-anchor="middle" font-family="sans-serif" font-size="10">0.00</text>
<rect x="880.1" y="405.0" width="7.9" height="0.0" fill="#1d4ed8"/>
<text x="884.1" y="419" transform="rotate(45 884.1 419)" font-family="sans-serif" font-size="10">PURE_CAPTURE:neighbor_quarantine:C0.45</text>
<text x="884.1" y="401.0" text-anchor="middle" font-family="sans-serif" font-size="10">0.00</text>
<rect x="890.5" y="405.0" width="7.9" height="0.0" fill="#1d4ed8"/>
<text x="894.4" y="419" transform="rotate(45 894.4 419)" font-family="sans-serif" font-size="10">MIXED_CAPTURE_CATASTROPHE:neighbor_quarantine:C0.45</text>
<text x="894.4" y="401.0" text-anchor="middle" font-family="sans-serif" font-size="10">0.00</text>
<rect x="900.9" y="405.0" width="7.9" height="0.0" fill="#1d4ed8"/>
<text x="904.8" y="419" transform="rotate(45 904.8 419)" font-family="sans-serif" font-size="10">MIXED_CAPTURE_CATASTROPHE:neighbor_quarantine:C0.45</text>
<text x="904.8" y="401.0" text-anchor="middle" font-family="sans-serif" font-size="10">0.00</text>
</svg>
