<svg xmlns="http://www.w3.org/2000/svg" width="820" height="560" viewBox="0 0 820 560">
<rect width="100%" height="100%" fill="white"/>
<text x="410.0" y="30" text-anchor="middle" font-family="sans-serif" font-size="18">Recovery proxy: catastrophe severity x policy</text>
<rect x="120.0" y="340.0" width="165.0" height="140.0" fill="rgb(85,245,35)" stroke="white"/>
<text x="202.5" y="414.0" text-anchor="middle" font-family="sans-serif" font-size="10">1.00</text>
<rect x="285.0" y="340.0" width="165.0" height="140.0" fill="rgb(85,245,35)" stroke="white"/>
<text x="367.5" y="414.0" text-anchor="middle" font-family="sans-serif" font-size="10">1.00</text>
<rect x="450.0" y="340.0" width="165.0" height="140.0" fill="rgb(85,245,35)" stroke="white"/>
<text x="532.5" y="414.0" text-anchor="middle" font-family="sans-serif" font-size="10">1.00</text>
<rect x="615.0" y="340.0" width="165.0" height="140.0" fill="rgb(85,245,35)" stroke="white"/>
<text x="697.5" y="414.0" text-anchor="middle" font-family="sans-serif" font-size="10">1.00</text>
<rect x="120.0" y="200.0" width="165.0" height="140.0" fill="rgb(85,245,35)" stroke="white"/>
<text x="202.5" y="274.0" text-anchor="middle" font-family="sans-serif" font-size="10">1.00</text>
<rect x="285.0" y="200.0" width="165.0" height="140.0" fill="rgb(85,245,35)" stroke="white"/>
<text x="367.5" y="274.0" text-anchor="middle" font-family="sans-serif" font-size="10">1.00</text>
<rect x="450.0" y="200.0" width="165.0" height="140.0" fill="rgb(85,245,35)" stroke="white"/>
<text x="532.5" y="274.0" text-anchor="middle" font-family="sans-serif" font-size="10">1.00</text>
<rect x="615.0" y="200.0" width="165.0" height="140.0" fill="rgb(85,245,35)" stroke="white"/>
<text x="697.5" y="274.0" text-anchor="middle" font-family="sans-serif" font-size="10">1.00</text>
<rect x="120.0" y="60.0" width="165.0" height="140.0" fill="rgb(85,245,35)" stroke="white"/>
<text x="202.5" y="134.0" text-anchor="middle" font-family="sans-serif" font-size="10">1.00</text>
<rect x="285.0" y="60.0" width="165.0" height="140.0" fill="rgb(85,245,35)" stroke="white"/>
<text x="367.5" y="134.0" text-anchor="middle" font-family="sans-serif" font-size="10">1.00</text>
<rect x="450.0" y="60.0" width="165.0" height="140.0" fill="rgb(85,245,35)" stroke="white"/>
<text x="532.5" y="134.0" text-anchor="middle" font-family="sans-serif" font-size="10">1.00</text>
<rect x="615.0" y="60.0" width="165.0" height="140.0" fill="rgb(85,245,35)" stroke="white"/>
<text x="697.5" y="134.0" text-anchor="middle" font-family="sans-serif" font-size="10">1.00</text>
<text x="202.5" y="502" text-anchor="middle" font-family="sans-serif" font-size="10">always_aid_sagging</text>
<text x="367.5" y="502" text-anchor="middle" font-family="sans-serif" font-size="10">always_cut_sagging</text>
<text x="532.5" y="502" text-anchor="middle" font-family="sans-serif" font-size="10">local_global</text>
<text x="697.5" y="502" text-anchor="middle" font-family="sans-serif" font-size="10">response_to_aid</text>
<text x="112" y="414.0" text-anchor="end" font-family="sans-serif" font-size="10">0.25</text>
<text x="112" y="274.0" text-anchor="end" font-family="sans-serif" font-size="10">0.45</text>
<text x="112" y="134.0" text-anchor="end" font-family="sans-serif" font-size="10">0.65</text>
<text x="410.0" y="544" text-anchor="middle" font-family="sans-serif" font-size="12">policy</text>
<text x="18" y="280.0" transform="rotate(-90 18 280.0)" font-family="sans-serif" font-size="12">catastrophe_severity</text>
</svg>
