<svg xmlns="http://www.w3.org/2000/svg" width="900" height="520" viewBox="0 0 900 520">
<rect width="100%" height="100%" fill="white"/>
<text x="450.0" y="28" text-anchor="middle" font-family="sans-serif" font-size="18">MI vs Permanence</text>
<line x1="70" y1="460" x2="870" y2="460" stroke="#111"/>
<line x1="70" y1="50" x2="70" y2="460" stroke="#111"/>
<text x="450.0" y="504" text-anchor="middle" font-family="sans-serif" font-size="12">mutual information</text>
<text x="18" y="260.0" transform="rotate(-90 18 260.0)" font-family="sans-serif" font-size="12">permanence</text>
<polyline fill="none" stroke="#1d4ed8" stroke-width="2" points="70.0,460.0 70.0,460.0 70.0,460.0 70.0,460.0 70.0,460.0 70.0,460.0 70.0,460.0 70.0,460.0 70.0,460.0 70.0,460.0 70.0,460.0 70.0,460.0 70.0,460.0 70.0,460.0 70.0,460.0 70.0,460.0 70.0,460.0 70.0,460.0 70.0,460.0 70.0,460.0 70.0,460.0 70.0,460.0 70.0,460.0 70.0,460.0 70.0,460.0 70.0,460.0 70.0,460.0 70.0,460.0 70.0,460.0 70.0,460.0 70.0,460.0 70.0,460.0 70.0,378.0 70.0,350.7 70.0,350.7 70.0,350.7 70.0,323.3 70.0,323.3 70.0,323.3 70.0,323.3 70.0,323.3 70.0,296.0 70.0,296.0 70.0,296.0 70.0,296.0 70.0,296.0 70.0,296.0 70.0,296.0"/>
<text x="640" y="68" font-family="sans-serif" font-size="11" fill="#1d4ed8">A</text>
<polyline fill="none" stroke="#b45309" stroke-width="2" points="70.0,460.0 70.0,460.0 70.0,460.0 70.0,460.0 70.0,460.0"/>
<text x="640" y="86" font-family="sans-serif" font-size="11" fill="#b45309">B</text>
<polyline fill="none" stroke="#047857" stroke-width="2" points="70.0,460.0 70.0,460.0 70.0,460.0 70.0,460.0 70.0,460.0 70.0,460.0 70.0,460.0 70.0,460.0 70.0,460.0 70.0,50.0 70.0,50.0 70.0,50.0 70.0,50.0 70.0,50.0 70.0,50.0 70.0,50.0 70.0,50.0 70.0,50.0 70.0,50.0 70.0,50.0 70.0,50.0 70.0,50.0 70.0,50.0 70.0,50.0 70.0,50.0 70.0,50.0 70.0,50.0 70.0,50.0 70.0,50.0 70.0,50.0 70.0,50.0 70.0,50.0 70.0,50.0 70.0,50.0 70.0,50.0 70.0,50.0 70.0,50.0 70.4,460.0 71.7,460.0 74.1,50.0 75.0,460.0 78.2,50.0 81.0,50.0 95.6,50.0 109.8,50.0 109.9,460.0 117.7,50.0 119.6,50.0 121.0,50.0 121.2,50.0 145.9,460.0 164.2,460.0 165.3,50.0 244.1,460.0 284.9,460.0 349.5,460.0 627.3,77.3 767.0,460.0 807.2,460.0 870.0,460.0"/>
<text x="640" y="104" font-family="sans-serif" font-size="11" fill="#047857">G</text>
</svg>
