<svg xmlns="http://www.w3.org/2000/svg" width="960" height="540" viewBox="0 0 960 540">
<rect width="100%" height="100%" fill="white"/>
<text x="480.0" y="28" text-anchor="middle" font-family="sans-serif" font-size="18">Signal-gene correlation over time</text>
<line x1="70" y1="480" x2="930" y2="480" stroke="#111"/>
<line x1="70" y1="50" x2="70" y2="480" stroke="#111"/>
<text x="480.0" y="525" text-anchor="middle" font-family="sans-serif" font-size="12">step</text>
<text x="18" y="270.0" transform="rotate(-90 18 270.0)" font-family="sans-serif" font-size="12">corr(signal, behavior_gene)</text>
<polyline fill="none" stroke="#6b7280" stroke-width="2" points="70.0,50.0 77.2,50.0 84.5,50.0 91.7,50.0 98.9,50.0 106.1,50.0 113.4,50.0"/>
<polyline fill="none" stroke="#6b7280" stroke-width="2" points="70.0,50.0 77.2,50.0 84.5,50.0 91.7,50.0 98.9,50.0 106.1,50.0 113.4,50.0 120.6,50.0 127.8,50.0"/>
<polyline fill="none" stroke="#6b7280" stroke-width="2" points="70.0,50.0 77.2,50.0 84.5,50.0 91.7,50.0 98.9,50.0 106.1,50.0 113.4,50.0 120.6,50.0 127.8,50.0 135.0,50.0 142.3,50.0 149.5,50.0"/>
<polyline fill="none" stroke="#1d4ed8" stroke-width="2" points="70.0,50.0 77.2,50.0 84.5,50.0 91.7,50.0 98.9,50.0 106.1,50.0 113.4,50.0 120.6,50.0 127.8,50.0 135.0,50.0 142.3,50.0 149.5,50.0 156.7,50.0 163.9,50.0 171.2,50.0 178.4,50.0 185.6,50.0 192.9,66.5 200.1,66.5 207.3,50.0 214.5,83.1 221.8,153.2 229.0,139.6 236.2,167.3 243.4,172.9 250.7,179.0 257.9,217.2 265.1,193.3 272.4,215.4 279.6,157.5 286.8,103.8 294.0,193.3 301.3,193.3 308.5,193.3 315.7,193.3 322.9,193.3 330.2,336.7 337.4,336.7 344.6,336.7 351.8,193.3 359.1,193.3 366.3,193.3 373.5,50.0 380.8,50.0 388.0,50.0 395.2,50.0 402.4,50.0 409.7,480.0 416.9,480.0"/>
<polyline fill="none" stroke="#1d4ed8" stroke-width="2" points="70.0,50.0 77.2,50.0 84.5,50.0 91.7,50.0 98.9,50.0 106.1,50.0 113.4,50.0 120.6,50.0 127.8,64.3 135.0,64.3 142.3,64.3 149.5,64.3 156.7,78.7 163.9,93.0 171.2,78.7 178.4,78.7 185.6,136.0 192.9,150.3 200.1,193.3 207.3,193.3 214.5,193.3 221.8,207.7 229.0,207.7 236.2,179.0 243.4,193.3 250.7,207.7 257.9,265.0 265.1,236.3 272.4,265.0 279.6,265.0 286.8,236.3 294.0,265.0 301.3,293.7 308.5,293.7 315.7,279.3 322.9,265.0 330.2,336.7 337.4,336.7 344.6,322.3 351.8,322.3 359.1,279.3 366.3,265.0 373.5,250.7 380.8,250.7 388.0,279.3 395.2,250.7 402.4,250.7 409.7,265.0 416.9,308.0 424.1,293.7 431.3,265.0 438.6,279.3 445.8,293.7 453.0,265.0 460.3,279.3 467.5,236.3 474.7,279.3 481.9,293.7 489.2,308.0 496.4,279.3 503.6,316.9 510.8,287.2 518.1,302.1 525.3,302.1 532.5,287.2 539.7,287.2 547.0,287.2 554.2,302.1 561.4,346.6 568.7,331.7 575.9,346.6 583.1,331.7 590.3,331.7 597.6,302.1 604.8,331.7 612.0,302.1 619.2,302.1 626.5,287.2 633.7,316.9 640.9,272.4 648.2,287.2 655.4,346.6 662.6,346.6 669.8,331.7 677.1,331.7 684.3,316.9 691.5,316.9 698.7,287.2 706.0,302.1 713.2,316.9 720.4,287.2 727.6,287.2 734.9,257.6 742.1,287.2 749.3,287.2 756.6,272.4 763.8,287.2 771.0,257.6 778.2,272.4 785.5,331.7 792.7,316.9 799.9,257.6 807.1,257.6 814.4,227.9 821.6,227.9 828.8,227.9 836.1,242.8 843.3,213.1 850.5,242.8 857.7,257.6 865.0,257.6 872.2,257.6 879.4,257.6 886.6,242.8 893.9,272.4 901.1,287.2 908.3,302.1 915.5,287.2 922.8,257.6 930.0,257.6"/>
<polyline fill="none" stroke="#1d4ed8" stroke-width="2" points="70.0,50.0 77.2,50.0 84.5,50.0 91.7,50.0 98.9,64.3 106.1,107.3 113.4,107.3 120.6,136.0 127.8,150.3 135.0,136.0 142.3,164.7 149.5,150.3 156.7,150.3 163.9,150.3 171.2,164.7 178.4,179.0 185.6,207.7 192.9,207.7 200.1,236.3 207.3,222.0 214.5,207.7 221.8,207.7 229.0,222.0 236.2,207.7 243.4,222.0 250.7,250.7 257.9,279.3 265.1,265.0 272.4,265.0 279.6,250.7 286.8,236.3 294.0,265.0 301.3,293.7 308.5,279.3 315.7,265.0 322.9,250.7 330.2,250.7 337.4,250.7 344.6,265.0 351.8,265.0 359.1,279.3 366.3,279.3 373.5,257.6 380.8,257.6 388.0,257.6 395.2,272.4 402.4,287.2 409.7,272.4 416.9,287.2 424.1,287.2 431.3,302.1 438.6,287.2 445.8,287.2 453.0,257.6 460.3,272.4 467.5,272.4 474.7,287.2 481.9,272.4 489.2,272.4 496.4,257.6 503.6,257.6 510.8,242.8 518.1,227.9 525.3,242.8 532.5,249.6 539.7,249.6 547.0,249.6 554.2,249.6 561.4,249.6 568.7,249.6 575.9,249.6 583.1,249.6 590.3,280.4 597.6,280.4 604.8,280.4 612.0,280.4 619.2,249.6 626.5,265.0 633.7,311.1 640.9,295.7 648.2,295.7 655.4,280.4 662.6,295.7 669.8,280.4 677.1,280.4 684.3,280.4 691.5,304.8 698.7,288.9 706.0,304.8 713.2,304.8 720.4,304.8 727.6,320.7 734.9,288.9 742.1,288.9 749.3,273.0 756.6,257.0 763.8,241.1 771.0,241.1 778.2,241.1 785.5,273.0 792.7,273.0 799.9,225.2 807.1,209.3 814.4,193.3 821.6,209.3 828.8,209.3 836.1,225.2 843.3,225.2 850.5,273.0 857.7,273.0 865.0,273.0 872.2,257.0 879.4,257.0 886.6,241.1 893.9,257.0 901.1,273.0 908.3,273.0 915.5,257.0 922.8,225.2 930.0,225.2"/>
<polyline fill="none" stroke="#047857" stroke-width="2" points="70.0,50.0 77.2,50.0 84.5,50.0 91.7,50.0 98.9,50.0 106.1,50.0 113.4,78.7 120.6,109.3 127.8,126.8 135.0,145.6 142.3,139.6 149.5,143.5 156.7,143.5 163.9,147.7 171.2,206.4 178.4,245.5 185.6,323.6 192.9,295.7 200.1,316.2 207.3,254.8 214.5,336.7 221.8,316.2 229.0,357.1 236.2,336.7 243.4,357.1 250.7,357.1 257.9,389.5 265.1,384.4 272.4,360.6 279.6,357.1 286.8,347.7 294.0,347.7 301.3,300.8 308.5,300.8 315.7,284.5 322.9,265.0 330.2,351.0 337.4,336.7 344.6,336.7 351.8,336.7 359.1,234.3 366.3,295.7 373.5,295.7 380.8,295.7 388.0,295.7 395.2,295.7 402.4,295.7 409.7,357.1 416.9,418.6 424.1,418.6 431.3,418.6 438.6,418.6 445.8,418.6 453.0,357.1 460.3,357.1 467.5,357.1 474.7,357.1 481.9,418.6 489.2,418.6 496.4,480.0 503.6,480.0 510.8,480.0 518.1,480.0 525.3,480.0 532.5,480.0 539.7,480.0 547.0,480.0 554.2,372.5 561.4,372.5 568.7,372.5 575.9,372.5 583.1,372.5 590.3,372.5 597.6,265.0 604.8,193.3 612.0,193.3 619.2,193.3 626.5,193.3 633.7,193.3 640.9,336.7 648.2,336.7 655.4,265.0 662.6,265.0 669.8,265.0 677.1,265.0 684.3,265.0 691.5,265.0 698.7,265.0 706.0,265.0 713.2,265.0 720.4,265.0 727.6,265.0 734.9,50.0 742.1,50.0 749.3,50.0 756.6,50.0 763.8,50.0 771.0,50.0 778.2,50.0 785.5,480.0 792.7,480.0 799.9,50.0 807.1,50.0 814.4,50.0 821.6,50.0 828.8,480.0 836.1,480.0 843.3,480.0 850.5,480.0 857.7,50.0 865.0,50.0 872.2,50.0 879.4,50.0 886.6,50.0 893.9,50.0 901.1,50.0 908.3,50.0 915.5,50.0 922.8,50.0 930.0,50.0"/>
<polyline fill="none" stroke="#047857" stroke-width="2" points="70.0,50.0 77.2,50.0 84.5,50.0 91.7,64.3 98.9,121.7 106.1,222.0 113.4,336.7 120.6,322.3 127.8,308.0 135.0,351.0 142.3,293.7 149.5,351.0 156.7,236.3 163.9,236.3 171.2,250.7 178.4,265.0 185.6,279.3 192.9,279.3 200.1,279.3 207.3,308.0 214.5,322.3 221.8,308.0 229.0,308.0 236.2,265.0 243.4,236.3 250.7,279.3 257.9,322.3 265.1,351.0 272.4,351.0 279.6,351.0 286.8,308.0 294.0,322.3 301.3,336.7 308.5,293.7 315.7,250.7 322.9,250.7 330.2,250.7 337.4,279.3 344.6,279.3 351.8,279.3 359.1,308.0 366.3,308.0 373.5,250.7 380.8,250.7 388.0,222.0 395.2,207.7 402.4,207.7 409.7,236.3 416.9,236.3 424.1,236.3 431.3,222.0 438.6,236.3 445.8,213.1 453.0,242.8 460.3,249.6 467.5,265.0 474.7,249.6 481.9,218.9 489.2,203.6 496.4,218.9 503.6,203.6 510.8,234.3 518.1,234.3 525.3,265.0 532.5,265.0 539.7,280.4 547.0,295.7 554.2,295.7 561.4,326.4 568.7,311.1 575.9,295.7 583.1,295.7 590.3,298.1 597.6,314.6 604.8,298.1 612.0,281.5 619.2,273.6 626.5,308.0 633.7,325.2 640.9,359.6 648.2,342.4 655.4,342.4 662.6,342.4 669.8,359.6 677.1,359.6 684.3,354.6 691.5,372.5 698.7,372.5 706.0,336.7 713.2,354.6 720.4,318.8 727.6,336.7 734.9,336.7 742.1,336.7 749.3,318.8 756.6,300.8 763.8,282.9 771.0,300.8 778.2,300.8 785.5,336.7 792.7,318.8 799.9,318.8 807.1,300.8 814.4,300.8 821.6,318.8 828.8,318.8 836.1,300.8 843.3,282.9 850.5,318.8 857.7,336.7 865.0,336.7 872.2,318.8 879.4,300.8 886.6,318.8 893.9,336.7 901.1,372.5 908.3,354.6 915.5,354.6 922.8,336.7 930.0,336.7"/>
<polyline fill="none" stroke="#047857" stroke-width="2" points="70.0,50.0 77.2,50.0 84.5,50.0 91.7,64.3 98.9,121.7 106.1,207.7 113.4,308.0 120.6,279.3 127.8,222.0 135.0,279.3 142.3,279.3 149.5,293.7 156.7,265.0 163.9,236.3 171.2,250.7 178.4,250.7 185.6,265.0 192.9,293.7 200.1,293.7 207.3,322.3 214.5,322.3 221.8,308.0 229.0,336.7 236.2,293.7 243.4,293.7 250.7,308.0 257.9,351.0 265.1,351.0 272.4,322.3 279.6,308.0 286.8,293.7 294.0,293.7 301.3,336.7 308.5,322.3 315.7,308.0 322.9,308.0 330.2,293.7 337.4,308.0 344.6,308.0 351.8,322.3 359.1,322.3 366.3,293.7 373.5,236.3 380.8,222.0 388.0,222.0 395.2,236.3 402.4,265.0 409.7,250.7 416.9,265.0 424.1,279.3 431.3,293.7 438.6,293.7 445.8,293.7 453.0,279.3 460.3,302.1 467.5,287.2 474.7,287.2 481.9,302.1 489.2,302.1 496.4,302.1 503.6,280.4 510.8,265.0 518.1,249.6 525.3,265.0 532.5,280.4 539.7,280.4 547.0,311.1 554.2,311.1 561.4,311.1 568.7,311.1 575.9,280.4 583.1,295.7 590.3,311.1 597.6,326.4 604.8,326.4 612.0,295.7 619.2,288.9 626.5,304.8 633.7,336.7 640.9,304.8 648.2,288.9 655.4,304.8 662.6,304.8 669.8,273.0 677.1,273.0 684.3,281.5 691.5,281.5 698.7,265.0 706.0,298.1 713.2,314.6 720.4,281.5 727.6,314.6 734.9,281.5 742.1,281.5 749.3,265.0 756.6,231.9 763.8,231.9 771.0,248.5 778.2,265.0 785.5,314.6 792.7,314.6 799.9,281.5 807.1,265.0 814.4,281.5 821.6,281.5 828.8,265.0 836.1,298.1 843.3,298.1 850.5,331.2 857.7,331.2 865.0,331.2 872.2,314.6 879.4,314.6 886.6,331.2 893.9,331.2 901.1,331.2 908.3,314.6 915.5,314.6 922.8,314.6 930.0,314.6"/>
<rect x="710" y="62" width="12" height="12" fill="#6b7280"/>
<text x="728" y="73" font-family="sans-serif" font-size="11">scalar-low</text>
<rect x="710" y="80" width="12" height="12" fill="#6b7280"/>
<text x="728" y="91" font-family="sans-serif" font-size="11">scalar-mid</text>
<rect x="710" y="98" width="12" height="12" fill="#6b7280"/>
<text x="728" y="109" font-family="sans-serif" font-size="11">scalar-high</text>
<rect x="710" y="116" width="12" height="12" fill="#1d4ed8"/>
<text x="728" y="127" font-family="sans-serif" font-size="11">geometric-low</text>
<rect x="710" y="134" width="12" height="12" fill="#1d4ed8"/>
<text x="728" y="145" font-family="sans-serif" font-size="11">geometric-mid</text>
<rect x="710" y="152" width="12" height="12" fill="#1d4ed8"/>
<text x="728" y="163" font-family="sans-serif" font-size="11">geometric-high</text>
<rect x="710" y="170" width="12" height="12" fill="#047857"/>
<text x="728" y="181" font-family="sans-serif" font-size="11">lexicographic-low</text>
<rect x="710" y="188" width="12" height="12" fill="#047857"/>
<text x="728" y="199" font-family="sans-serif" font-size="11">lexicographic-mid</text>
<rect x="710" y="206" width="12" height="12" fill="#047857"/>
<text x="728" y="217" font-family="sans-serif" font-size="11">lexicographic-high</text>
</svg>
