<svg xmlns="http://www.w3.org/2000/svg" width="980" height="560" viewBox="0 0 980 560">
<rect width="100%" height="100%" fill="white"/>
<text x="490.0" y="30" text-anchor="middle" font-family="sans-serif" font-size="18">Part A First: Best Anti-Concentration Permanence</text>
<line x1="90" y1="400" x2="950" y2="400" stroke="#111"/>
<line x1="90" y1="60" x2="90" y2="400" stroke="#111"/>
<text x="18" y="280.0" transform="rotate(-90 18 280.0)" font-family="sans-serif" font-size="12">permanence</text>
<rect x="110.6" y="400.0" width="130.7" height="0.0" fill="#0f766e"/>
<text x="176.0" y="414" transform="rotate(45 176.0 414)" font-family="sans-serif" font-size="10">W2_pure_capture</text>
<text x="176.0" y="396.0" text-anchor="middle" font-family="sans-serif" font-size="10">0.00</text>
<rect x="282.6" y="400.0" width="130.7" height="0.0" fill="#0f766e"/>
<text x="348.0" y="414" transform="rotate(45 348.0 414)" font-family="sans-serif" font-size="10">W4_scavenger_catastrophe</text>
<text x="348.0" y="396.0" text-anchor="middle" font-family="sans-serif" font-size="10">0.00</text>
<rect x="454.6" y="400.0" width="130.7" height="0.0" fill="#0f766e"/>
<text x="520.0" y="414" transform="rotate(45 520.0 414)" font-family="sans-serif" font-size="10">W6_mutation_corridor</text>
<text x="520.0" y="396.0" text-anchor="middle" font-family="sans-serif" font-size="10">0.00</text>
<rect x="626.6" y="400.0" width="130.7" height="0.0" fill="#0f766e"/>
<text x="692.0" y="414" transform="rotate(45 692.0 414)" font-family="sans-serif" font-size="10">W5_monoculture_shock</text>
<text x="692.0" y="396.0" text-anchor="middle" font-family="sans-serif" font-size="10">0.00</text>
<rect x="798.6" y="400.0" width="130.7" height="0.0" fill="#0f766e"/>
<text x="864.0" y="414" transform="rotate(45 864.0 414)" font-family="sans-serif" font-size="10">W3_catastrophe_ambiguity</text>
<text x="864.0" y="396.0" text-anchor="middle" font-family="sans-serif" font-size="10">0.00</text>
</svg>
