<svg xmlns="http://www.w3.org/2000/svg" width="960" height="560" viewBox="0 0 960 560">
<rect width="100%" height="100%" fill="white"/>
<text x="480.0" y="30" text-anchor="middle" font-family="sans-serif" font-size="18">Capture by Action Channel</text>
<line x1="90" y1="400" x2="930" y2="400" stroke="#111"/>
<line x1="90" y1="60" x2="90" y2="400" stroke="#111"/>
<text x="18" y="280.0" transform="rotate(-90 18 280.0)" font-family="sans-serif" font-size="12">capture probability</text>
<rect x="101.2" y="60.0" width="70.9" height="340.0" fill="#047857"/>
<text x="136.7" y="414" transform="rotate(45 136.7 414)" font-family="sans-serif" font-size="10">extraction_cap</text>
<text x="136.7" y="56.0" text-anchor="middle" font-family="sans-serif" font-size="10">1.00</text>
<rect x="194.5" y="60.0" width="70.9" height="340.0" fill="#047857"/>
<text x="230.0" y="414" transform="rotate(45 230.0 414)" font-family="sans-serif" font-size="10">influence_throttle</text>
<text x="230.0" y="56.0" text-anchor="middle" font-family="sans-serif" font-size="10">1.00</text>
<rect x="287.9" y="60.0" width="70.9" height="340.0" fill="#047857"/>
<text x="323.3" y="414" transform="rotate(45 323.3 414)" font-family="sans-serif" font-size="10">anti_concentration</text>
<text x="323.3" y="56.0" text-anchor="middle" font-family="sans-serif" font-size="10">1.00</text>
<rect x="381.2" y="60.0" width="70.9" height="340.0" fill="#047857"/>
<text x="416.7" y="414" transform="rotate(45 416.7 414)" font-family="sans-serif" font-size="10">migration_friction</text>
<text x="416.7" y="56.0" text-anchor="middle" font-family="sans-serif" font-size="10">1.00</text>
<rect x="474.5" y="60.0" width="70.9" height="340.0" fill="#047857"/>
<text x="510.0" y="414" transform="rotate(45 510.0 414)" font-family="sans-serif" font-size="10">aid_escrow</text>
<text x="510.0" y="56.0" text-anchor="middle" font-family="sans-serif" font-size="10">1.00</text>
<rect x="567.9" y="60.0" width="70.9" height="340.0" fill="#047857"/>
<text x="603.3" y="414" transform="rotate(45 603.3 414)" font-family="sans-serif" font-size="10">replication_throttle</text>
<text x="603.3" y="56.0" text-anchor="middle" font-family="sans-serif" font-size="10">1.00</text>
<rect x="661.2" y="60.0" width="70.9" height="340.0" fill="#047857"/>
<text x="696.7" y="414" transform="rotate(45 696.7 414)" font-family="sans-serif" font-size="10">combined_action_contai</text>
<text x="696.7" y="56.0" text-anchor="middle" font-family="sans-serif" font-size="10">1.00</text>
<rect x="754.5" y="60.0" width="70.9" height="340.0" fill="#047857"/>
<text x="790.0" y="414" transform="rotate(45 790.0 414)" font-family="sans-serif" font-size="10">combined_plus_diversit</text>
<text x="790.0" y="56.0" text-anchor="middle" font-family="sans-serif" font-size="10">1.00</text>
<rect x="847.9" y="60.0" width="70.9" height="340.0" fill="#047857"/>
<text x="883.3" y="414" transform="rotate(45 883.3 414)" font-family="sans-serif" font-size="10">combined_plus_response</text>
<text x="883.3" y="56.0" text-anchor="middle" font-family="sans-serif" font-size="10">1.00</text>
</svg>
