<svg xmlns="http://www.w3.org/2000/svg" width="960" height="560" viewBox="0 0 960 560">
<rect width="100%" height="100%" fill="white"/>
<text x="480.0" y="30" text-anchor="middle" font-family="sans-serif" font-size="18">Resource Concentration by Action Channel</text>
<line x1="90" y1="400" x2="930" y2="400" stroke="#111"/>
<line x1="90" y1="60" x2="90" y2="400" stroke="#111"/>
<text x="18" y="280.0" transform="rotate(-90 18 280.0)" font-family="sans-serif" font-size="12">resource HHI</text>
<rect x="101.2" y="342.4" width="70.9" height="57.6" fill="#047857"/>
<text x="136.7" y="414" transform="rotate(45 136.7 414)" font-family="sans-serif" font-size="10">extraction_cap</text>
<text x="136.7" y="338.4" text-anchor="middle" font-family="sans-serif" font-size="10">0.17</text>
<rect x="194.5" y="342.3" width="70.9" height="57.7" fill="#047857"/>
<text x="230.0" y="414" transform="rotate(45 230.0 414)" font-family="sans-serif" font-size="10">influence_throttle</text>
<text x="230.0" y="338.3" text-anchor="middle" font-family="sans-serif" font-size="10">0.17</text>
<rect x="287.9" y="350.8" width="70.9" height="49.2" fill="#047857"/>
<text x="323.3" y="414" transform="rotate(45 323.3 414)" font-family="sans-serif" font-size="10">anti_concentration</text>
<text x="323.3" y="346.8" text-anchor="middle" font-family="sans-serif" font-size="10">0.14</text>
<rect x="381.2" y="342.2" width="70.9" height="57.8" fill="#047857"/>
<text x="416.7" y="414" transform="rotate(45 416.7 414)" font-family="sans-serif" font-size="10">migration_friction</text>
<text x="416.7" y="338.2" text-anchor="middle" font-family="sans-serif" font-size="10">0.17</text>
<rect x="474.5" y="340.0" width="70.9" height="60.0" fill="#047857"/>
<text x="510.0" y="414" transform="rotate(45 510.0 414)" font-family="sans-serif" font-size="10">aid_escrow</text>
<text x="510.0" y="336.0" text-anchor="middle" font-family="sans-serif" font-size="10">0.18</text>
<rect x="567.9" y="342.2" width="70.9" height="57.8" fill="#047857"/>
<text x="603.3" y="414" transform="rotate(45 603.3 414)" font-family="sans-serif" font-size="10">replication_throttle</text>
<text x="603.3" y="338.2" text-anchor="middle" font-family="sans-serif" font-size="10">0.17</text>
<rect x="661.2" y="343.1" width="70.9" height="56.9" fill="#047857"/>
<text x="696.7" y="414" transform="rotate(45 696.7 414)" font-family="sans-serif" font-size="10">combined_action_contai</text>
<text x="696.7" y="339.1" text-anchor="middle" font-family="sans-serif" font-size="10">0.17</text>
<rect x="754.5" y="343.1" width="70.9" height="56.9" fill="#047857"/>
<text x="790.0" y="414" transform="rotate(45 790.0 414)" font-family="sans-serif" font-size="10">combined_plus_diversit</text>
<text x="790.0" y="339.1" text-anchor="middle" font-family="sans-serif" font-size="10">0.17</text>
<rect x="847.9" y="347.2" width="70.9" height="52.8" fill="#047857"/>
<text x="883.3" y="414" transform="rotate(45 883.3 414)" font-family="sans-serif" font-size="10">combined_plus_response</text>
<text x="883.3" y="343.2" text-anchor="middle" font-family="sans-serif" font-size="10">0.16</text>
</svg>
