<svg xmlns="http://www.w3.org/2000/svg" width="980" height="560" viewBox="0 0 980 560">
<rect width="100%" height="100%" fill="white"/>
<text x="490.0" y="30" text-anchor="middle" font-family="sans-serif" font-size="18">PURE_CAPTURE: Hawk Population</text>
<line x1="90" y1="390.0" x2="950" y2="390.0" stroke="#111"/>
<line x1="90" y1="60" x2="90" y2="390" stroke="#111"/>
<text x="18" y="280.0" transform="rotate(-90 18 280.0)" font-family="sans-serif" font-size="12">hawk population</text>
<rect x="94.1" y="92.9" width="26.1" height="297.1" fill="#1d4ed8"/>
<text x="107.2" y="404" transform="rotate(45 107.2 404)" font-family="sans-serif" font-size="10">no_intervention</text>
<text x="107.2" y="88.9" text-anchor="middle" font-family="sans-serif" font-size="10">685.91</text>
<rect x="128.5" y="390.0" width="26.1" height="0.0" fill="#1d4ed8"/>
<text x="141.6" y="404" transform="rotate(45 141.6 404)" font-family="sans-serif" font-size="10">oracle_kill_hawks</text>
<text x="141.6" y="386.0" text-anchor="middle" font-family="sans-serif" font-size="10">0.00</text>
<rect x="162.9" y="356.4" width="26.1" height="33.6" fill="#1d4ed8"/>
<text x="176.0" y="404" transform="rotate(45 176.0 404)" font-family="sans-serif" font-size="10">oracle_freeze_hawk_repro</text>
<text x="176.0" y="352.4" text-anchor="middle" font-family="sans-serif" font-size="10">77.55</text>
<rect x="197.3" y="278.7" width="26.1" height="111.3" fill="#1d4ed8"/>
<text x="210.4" y="404" transform="rotate(45 210.4 404)" font-family="sans-serif" font-size="10">freeze_all_reproduction_</text>
<text x="210.4" y="274.7" text-anchor="middle" font-family="sans-serif" font-size="10">256.96</text>
<rect x="231.7" y="145.6" width="26.1" height="244.4" fill="#1d4ed8"/>
<text x="244.8" y="404" transform="rotate(45 244.8 404)" font-family="sans-serif" font-size="10">resource_cap_bad_zones</text>
<text x="244.8" y="141.6" text-anchor="middle" font-family="sans-serif" font-size="10">564.28</text>
<rect x="266.1" y="94.4" width="26.1" height="295.6" fill="#1d4ed8"/>
<text x="279.2" y="404" transform="rotate(45 279.2 404)" font-family="sans-serif" font-size="10">no_outgoing_migration_ba</text>
<text x="279.2" y="90.4" text-anchor="middle" font-family="sans-serif" font-size="10">682.55</text>
<rect x="300.5" y="150.8" width="26.1" height="239.2" fill="#1d4ed8"/>
<text x="313.6" y="404" transform="rotate(45 313.6 404)" font-family="sans-serif" font-size="10">no_interceptable_aid_bad</text>
<text x="313.6" y="146.8" text-anchor="middle" font-family="sans-serif" font-size="10">552.16</text>
<rect x="334.9" y="60.0" width="26.1" height="330.0" fill="#1d4ed8"/>
<text x="348.0" y="404" transform="rotate(45 348.0 404)" font-family="sans-serif" font-size="10">edge_cut_bad_zones</text>
<text x="348.0" y="56.0" text-anchor="middle" font-family="sans-serif" font-size="10">761.82</text>
<rect x="369.3" y="338.6" width="26.1" height="51.4" fill="#1d4ed8"/>
<text x="382.4" y="404" transform="rotate(45 382.4 404)" font-family="sans-serif" font-size="10">global_density_cap</text>
<text x="382.4" y="334.6" text-anchor="middle" font-family="sans-serif" font-size="10">118.66</text>
<rect x="403.7" y="337.8" width="26.1" height="52.2" fill="#1d4ed8"/>
<text x="416.8" y="404" transform="rotate(45 416.8 404)" font-family="sans-serif" font-size="10">combined_maximal</text>
<text x="416.8" y="333.8" text-anchor="middle" font-family="sans-serif" font-size="10">120.61</text>
<rect x="438.1" y="278.7" width="26.1" height="111.3" fill="#1d4ed8"/>
<text x="451.2" y="404" transform="rotate(45 451.2 404)" font-family="sans-serif" font-size="10">freeze_all_reproduction_</text>
<text x="451.2" y="274.7" text-anchor="middle" font-family="sans-serif" font-size="10">256.96</text>
<rect x="472.5" y="68.2" width="26.1" height="321.8" fill="#1d4ed8"/>
<text x="485.6" y="404" transform="rotate(45 485.6 404)" font-family="sans-serif" font-size="10">resource_cap_bad_zones</text>
<text x="485.6" y="64.2" text-anchor="middle" font-family="sans-serif" font-size="10">742.86</text>
<rect x="506.9" y="113.3" width="26.1" height="276.7" fill="#1d4ed8"/>
<text x="520.0" y="404" transform="rotate(45 520.0 404)" font-family="sans-serif" font-size="10">no_interceptable_aid_bad</text>
<text x="520.0" y="109.3" text-anchor="middle" font-family="sans-serif" font-size="10">638.76</text>
<rect x="541.3" y="60.1" width="26.1" height="329.9" fill="#1d4ed8"/>
<text x="554.4" y="404" transform="rotate(45 554.4 404)" font-family="sans-serif" font-size="10">edge_cut_bad_zones</text>
<text x="554.4" y="56.1" text-anchor="middle" font-family="sans-serif" font-size="10">761.69</text>
<rect x="575.7" y="332.3" width="26.1" height="57.7" fill="#1d4ed8"/>
<text x="588.8" y="404" transform="rotate(45 588.8 404)" font-family="sans-serif" font-size="10">combined_maximal</text>
<text x="588.8" y="328.3" text-anchor="middle" font-family="sans-serif" font-size="10">133.21</text>
<rect x="610.1" y="278.7" width="26.1" height="111.3" fill="#1d4ed8"/>
<text x="623.2" y="404" transform="rotate(45 623.2 404)" font-family="sans-serif" font-size="10">freeze_all_reproduction_</text>
<text x="623.2" y="274.7" text-anchor="middle" font-family="sans-serif" font-size="10">256.96</text>
<rect x="644.5" y="121.7" width="26.1" height="268.3" fill="#1d4ed8"/>
<text x="657.6" y="404" transform="rotate(45 657.6 404)" font-family="sans-serif" font-size="10">resource_cap_bad_zones</text>
<text x="657.6" y="117.7" text-anchor="middle" font-family="sans-serif" font-size="10">619.31</text>
<rect x="678.9" y="139.6" width="26.1" height="250.4" fill="#1d4ed8"/>
<text x="692.0" y="404" transform="rotate(45 692.0 404)" font-family="sans-serif" font-size="10">no_interceptable_aid_bad</text>
<text x="692.0" y="135.6" text-anchor="middle" font-family="sans-serif" font-size="10">578.00</text>
<rect x="713.3" y="60.0" width="26.1" height="330.0" fill="#1d4ed8"/>
<text x="726.4" y="404" transform="rotate(45 726.4 404)" font-family="sans-serif" font-size="10">edge_cut_bad_zones</text>
<text x="726.4" y="56.0" text-anchor="middle" font-family="sans-serif" font-size="10">761.86</text>
<rect x="747.7" y="332.2" width="26.1" height="57.8" fill="#1d4ed8"/>
<text x="760.8" y="404" transform="rotate(45 760.8 404)" font-family="sans-serif" font-size="10">combined_maximal</text>
<text x="760.8" y="328.2" text-anchor="middle" font-family="sans-serif" font-size="10">133.38</text>
<rect x="782.1" y="278.7" width="26.1" height="111.3" fill="#1d4ed8"/>
<text x="795.2" y="404" transform="rotate(45 795.2 404)" font-family="sans-serif" font-size="10">freeze_all_reproduction_</text>
<text x="795.2" y="274.7" text-anchor="middle" font-family="sans-serif" font-size="10">256.96</text>
<rect x="816.5" y="146.7" width="26.1" height="243.3" fill="#1d4ed8"/>
<text x="829.6" y="404" transform="rotate(45 829.6 404)" font-family="sans-serif" font-size="10">resource_cap_bad_zones</text>
<text x="829.6" y="142.7" text-anchor="middle" font-family="sans-serif" font-size="10">561.62</text>
<rect x="850.9" y="157.4" width="26.1" height="232.6" fill="#1d4ed8"/>
<text x="864.0" y="404" transform="rotate(45 864.0 404)" font-family="sans-serif" font-size="10">no_interceptable_aid_bad</text>
<text x="864.0" y="153.4" text-anchor="middle" font-family="sans-serif" font-size="10">537.11</text>
<rect x="885.3" y="60.0" width="26.1" height="330.0" fill="#1d4ed8"/>
<text x="898.4" y="404" transform="rotate(45 898.4 404)" font-family="sans-serif" font-size="10">edge_cut_bad_zones</text>
<text x="898.4" y="56.0" text-anchor="middle" font-family="sans-serif" font-size="10">761.80</text>
<rect x="919.7" y="332.4" width="26.1" height="57.6" fill="#1d4ed8"/>
<text x="932.8" y="404" transform="rotate(45 932.8 404)" font-family="sans-serif" font-size="10">combined_maximal</text>
<text x="932.8" y="328.4" text-anchor="middle" font-family="sans-serif" font-size="10">132.91</text>
</svg>
