<svg xmlns="http://www.w3.org/2000/svg" width="960" height="540" viewBox="0 0 960 540">
<rect width="100%" height="100%" fill="white"/>
<text x="480.0" y="28" text-anchor="middle" font-family="sans-serif" font-size="18">Signal-gene correlation over time</text>
<line x1="70" y1="480" x2="930" y2="480" stroke="#111"/>
<line x1="70" y1="50" x2="70" y2="480" stroke="#111"/>
<text x="480.0" y="525" text-anchor="middle" font-family="sans-serif" font-size="12">step</text>
<text x="18" y="270.0" transform="rotate(-90 18 270.0)" font-family="sans-serif" font-size="12">corr(signal, behavior_gene)</text>
<polyline fill="none" stroke="#6b7280" stroke-width="2" points="70.0,50.0 80.9,50.0 91.8,50.0 102.7,50.0"/>
<polyline fill="none" stroke="#6b7280" stroke-width="2" points="70.0,50.0 80.9,50.0 91.8,50.0 102.7,50.0"/>
<polyline fill="none" stroke="#6b7280" stroke-width="2" points="70.0,50.0 80.9,50.0 91.8,50.0 102.7,50.0"/>
<polyline fill="none" stroke="#1d4ed8" stroke-width="2" points="70.0,50.0 80.9,50.0 91.8,50.0 102.7,70.3 113.5,131.2 124.4,293.7 135.3,471.7 146.2,388.4 157.1,372.5 168.0,408.3 178.9,372.5 189.7,444.2 200.6,372.5 211.5,480.0 222.4,408.3 233.3,316.5 244.2,392.7 255.1,278.4 265.9,354.6 276.8,240.4 287.7,334.3 298.6,293.7 309.5,212.4 320.4,90.6 331.3,131.2 342.2,131.2 353.0,267.6 363.9,237.4 374.8,237.4 385.7,190.6 396.6,143.7 407.5,96.9 418.4,100.8 429.2,100.8 440.1,50.0 451.0,50.0 461.9,50.0 472.8,50.0 483.7,50.0 494.6,50.0 505.4,50.0 516.3,50.0 527.2,50.0 538.1,50.0 549.0,50.0 559.9,50.0 570.8,50.0 581.6,50.0 592.5,50.0 603.4,50.0 614.3,50.0 625.2,50.0 636.1,50.0 647.0,50.0 657.8,50.0 668.7,50.0 679.6,50.0"/>
<polyline fill="none" stroke="#1d4ed8" stroke-width="2" points="70.0,50.0 80.9,50.0 91.8,50.0 102.7,70.3 113.5,131.2 124.4,293.7 135.3,471.7 146.2,388.4 157.1,372.5 168.0,408.3 178.9,336.7 189.7,300.8 200.6,229.2 211.5,354.6 222.4,430.7 233.3,354.6 244.2,354.6 255.1,334.3 265.9,415.5 276.8,253.1 287.7,334.3 298.6,253.1 309.5,171.8 320.4,90.6 331.3,171.8 342.2,212.4 353.0,253.1 363.9,253.1 374.8,253.1 385.7,253.1 396.6,171.8 407.5,90.6 418.4,93.5 429.2,50.0 440.1,50.0 451.0,50.0 461.9,50.0 472.8,50.0 483.7,50.0 494.6,50.0 505.4,50.0 516.3,50.0 527.2,50.0 538.1,50.0 549.0,50.0 559.9,50.0 570.8,50.0 581.6,50.0 592.5,50.0 603.4,50.0 614.3,50.0 625.2,50.0 636.1,50.0 647.0,50.0 657.8,50.0 668.7,50.0 679.6,50.0 690.5,50.0 701.4,50.0 712.3,50.0 723.2,50.0 734.1,50.0 744.9,50.0"/>
<polyline fill="none" stroke="#1d4ed8" stroke-width="2" points="70.0,50.0 80.9,50.0 91.8,50.0 102.7,70.3 113.5,131.2 124.4,293.7 135.3,448.3 146.2,274.4 157.1,336.7 168.0,336.7 178.9,374.9 189.7,311.1 200.6,331.2 211.5,378.0 222.4,405.3 233.3,303.8 244.2,354.6 255.1,354.6 265.9,456.1 276.8,354.6 287.7,354.6 298.6,303.8 309.5,202.3 320.4,100.8 331.3,151.5 342.2,160.8 353.0,216.1 363.9,216.1 374.8,216.1 385.7,216.1 396.6,160.8 407.5,105.4 418.4,105.4 429.2,50.0 440.1,50.0 451.0,50.0 461.9,50.0 472.8,50.0 483.7,50.0 494.6,50.0 505.4,50.0 516.3,50.0 527.2,50.0 538.1,50.0 549.0,50.0 559.9,50.0 570.8,50.0 581.6,50.0 592.5,50.0 603.4,50.0 614.3,50.0 625.2,50.0 636.1,50.0 647.0,50.0 657.8,50.0 668.7,50.0 679.6,50.0 690.5,50.0 701.4,50.0 712.3,50.0 723.2,50.0 734.1,50.0"/>
<polyline fill="none" stroke="#047857" stroke-width="2" points="70.0,50.0 80.9,50.0 91.8,50.0 102.7,70.3 113.5,131.2 124.4,293.7 135.3,471.7 146.2,388.4 157.1,372.5 168.0,408.3 178.9,372.5 189.7,444.2 200.6,372.5 211.5,480.0 222.4,408.3 233.3,316.5 244.2,392.7 255.1,278.4 265.9,354.6 276.8,240.4 287.7,334.3 298.6,293.7 309.5,171.8 320.4,50.0 331.3,90.6 342.2,50.0 353.0,180.5 363.9,143.7 374.8,143.7 385.7,143.7 396.6,143.7 407.5,50.0 418.4,50.0 429.2,50.0 440.1,50.0 451.0,50.0 461.9,50.0 472.8,50.0 483.7,50.0 494.6,50.0 505.4,50.0 516.3,50.0 527.2,50.0 538.1,50.0 549.0,50.0 559.9,50.0 570.8,50.0 581.6,50.0 592.5,50.0 603.4,50.0 614.3,50.0 625.2,50.0 636.1,50.0 647.0,50.0 657.8,50.0 668.7,50.0"/>
<polyline fill="none" stroke="#047857" stroke-width="2" points="70.0,50.0 80.9,50.0 91.8,50.0 102.7,70.3 113.5,131.2 124.4,293.7 135.3,471.7 146.2,388.4 157.1,372.5 168.0,408.3 178.9,336.7 189.7,300.8 200.6,229.2 211.5,354.6 222.4,430.7 233.3,354.6 244.2,316.5 255.1,334.3 265.9,415.5 276.8,253.1 287.7,334.3 298.6,253.1 309.5,171.8 320.4,90.6 331.3,171.8 342.2,212.4 353.0,253.1 363.9,253.1 374.8,253.1 385.7,253.1 396.6,171.8 407.5,50.0 418.4,50.0 429.2,50.0 440.1,50.0 451.0,50.0 461.9,50.0 472.8,50.0 483.7,50.0 494.6,50.0 505.4,50.0 516.3,50.0 527.2,50.0 538.1,50.0 549.0,50.0 559.9,50.0 570.8,50.0 581.6,50.0 592.5,50.0 603.4,50.0 614.3,50.0 625.2,50.0 636.1,50.0 647.0,50.0 657.8,50.0 668.7,50.0 679.6,50.0 690.5,50.0 701.4,50.0 712.3,50.0 723.2,50.0"/>
<polyline fill="none" stroke="#047857" stroke-width="2" points="70.0,50.0 80.9,50.0 91.8,50.0 102.7,70.3 113.5,131.2 124.4,293.7 135.3,448.3 146.2,274.4 157.1,336.7 168.0,336.7 178.9,374.9 189.7,311.1 200.6,331.2 211.5,378.0 222.4,405.3 233.3,303.8 244.2,354.6 255.1,354.6 265.9,456.1 276.8,354.6 287.7,354.6 298.6,303.8 309.5,202.3 320.4,100.8 331.3,100.8 342.2,105.4 353.0,160.8 363.9,160.8 374.8,160.8 385.7,160.8 396.6,105.4 407.5,50.0 418.4,50.0 429.2,50.0 440.1,50.0 451.0,50.0 461.9,50.0 472.8,50.0 483.7,50.0 494.6,50.0 505.4,50.0 516.3,50.0 527.2,50.0 538.1,50.0 549.0,50.0 559.9,50.0 570.8,50.0 581.6,50.0 592.5,50.0 603.4,50.0 614.3,50.0 625.2,50.0 636.1,50.0 647.0,50.0 657.8,50.0 668.7,50.0 679.6,50.0 690.5,50.0 701.4,50.0 712.3,50.0"/>
<rect x="710" y="62" width="12" height="12" fill="#6b7280"/>
<text x="728" y="73" font-family="sans-serif" font-size="11">scalar-low</text>
<rect x="710" y="80" width="12" height="12" fill="#6b7280"/>
<text x="728" y="91" font-family="sans-serif" font-size="11">scalar-mid</text>
<rect x="710" y="98" width="12" height="12" fill="#6b7280"/>
<text x="728" y="109" font-family="sans-serif" font-size="11">scalar-high</text>
<rect x="710" y="116" width="12" height="12" fill="#1d4ed8"/>
<text x="728" y="127" font-family="sans-serif" font-size="11">geometric-low</text>
<rect x="710" y="134" width="12" height="12" fill="#1d4ed8"/>
<text x="728" y="145" font-family="sans-serif" font-size="11">geometric-mid</text>
<rect x="710" y="152" width="12" height="12" fill="#1d4ed8"/>
<text x="728" y="163" font-family="sans-serif" font-size="11">geometric-high</text>
<rect x="710" y="170" width="12" height="12" fill="#047857"/>
<text x="728" y="181" font-family="sans-serif" font-size="11">lexicographic-low</text>
<rect x="710" y="188" width="12" height="12" fill="#047857"/>
<text x="728" y="199" font-family="sans-serif" font-size="11">lexicographic-mid</text>
<rect x="710" y="206" width="12" height="12" fill="#047857"/>
<text x="728" y="217" font-family="sans-serif" font-size="11">lexicographic-high</text>
</svg>
