<svg xmlns="http://www.w3.org/2000/svg" width="960" height="540" viewBox="0 0 960 540">
<rect width="100%" height="100%" fill="white"/>
<text x="480.0" y="28" text-anchor="middle" font-family="sans-serif" font-size="18">Signal-gene correlation over time</text>
<line x1="70" y1="480" x2="930" y2="480" stroke="#111"/>
<line x1="70" y1="50" x2="70" y2="480" stroke="#111"/>
<text x="480.0" y="525" text-anchor="middle" font-family="sans-serif" font-size="12">step</text>
<text x="18" y="270.0" transform="rotate(-90 18 270.0)" font-family="sans-serif" font-size="12">corr(s, a)</text>
<polyline fill="none" stroke="#6b7280" stroke-width="2" points="70.0,50.0 77.2,50.0 84.5,50.0 91.7,50.0 98.9,50.0 106.1,50.0 113.4,50.0 120.6,50.0 127.8,50.0 135.0,50.0 142.3,50.0 149.5,50.0 156.7,50.0"/>
<polyline fill="none" stroke="#6b7280" stroke-width="2" points="70.0,50.0 77.2,50.0 84.5,50.0 91.7,50.0 98.9,50.0 106.1,50.0 113.4,50.0 120.6,50.0 127.8,50.0 135.0,50.0 142.3,50.0 149.5,50.0 156.7,50.0 163.9,50.0 171.2,50.0 178.4,50.0"/>
<polyline fill="none" stroke="#6b7280" stroke-width="2" points="70.0,50.0 77.2,50.0 84.5,50.0 91.7,50.0 98.9,50.0 106.1,50.0 113.4,50.0 120.6,50.0 127.8,50.0 135.0,50.0 142.3,50.0 149.5,50.0 156.7,50.0 163.9,50.0"/>
<polyline fill="none" stroke="#1d4ed8" stroke-width="2" points="70.0,50.0 77.2,50.0 84.5,50.0 91.7,50.0 98.9,50.0 106.1,50.0 113.4,50.0 120.6,50.0 127.8,50.0 135.0,50.0 142.3,50.0 149.5,50.0 156.7,50.0 163.9,50.0 171.2,50.0 178.4,50.0 185.6,50.0 192.9,50.0 200.1,50.0 207.3,50.0 214.5,64.8 221.8,64.8 229.0,64.8 236.2,64.8 243.4,64.8 250.7,64.8 257.9,64.8 265.1,64.8 272.4,64.8 279.6,79.7 286.8,79.7 294.0,79.7 301.3,79.7 308.5,79.7 315.7,79.7 322.9,79.7 330.2,79.7 337.4,79.7 344.6,79.7 351.8,79.7 359.1,79.7 366.3,79.7 373.5,79.7 380.8,79.7 388.0,79.7 395.2,79.7 402.4,79.7 409.7,94.5 416.9,109.3 424.1,109.3 431.3,94.5 438.6,94.5 445.8,109.3 453.0,124.1 460.3,124.1 467.5,124.1 474.7,124.1 481.9,124.1 489.2,124.1 496.4,139.0 503.6,139.0 510.8,153.8 518.1,168.6 525.3,183.4 532.5,183.4 539.7,213.1 547.0,213.1 554.2,227.9 561.4,213.1 568.7,213.1 575.9,227.9 583.1,227.9 590.3,227.9 597.6,227.9 604.8,272.4 612.0,287.2 619.2,272.4 626.5,316.9 633.7,302.1 640.9,316.9 648.2,346.6 655.4,331.7 662.6,361.4 669.8,361.4 677.1,376.2 684.3,376.2 691.5,361.4 698.7,376.2 706.0,376.2 713.2,391.0 720.4,376.2 727.6,376.2 734.9,391.0 742.1,391.0 749.3,391.0 756.6,391.0 763.8,391.0 771.0,391.0 778.2,391.0 785.5,391.0 792.7,405.9 799.9,405.9 807.1,391.0 814.4,405.9 821.6,405.9 828.8,405.9 836.1,405.9 843.3,405.9 850.5,405.9 857.7,405.9 865.0,405.9 872.2,405.9 879.4,420.7 886.6,405.9 893.9,435.5 901.1,420.7 908.3,435.5 915.5,435.5 922.8,420.7 930.0,435.5"/>
<polyline fill="none" stroke="#1d4ed8" stroke-width="2" points="70.0,50.0 77.2,50.0 84.5,50.0 91.7,50.0 98.9,50.0 106.1,50.0 113.4,50.0 120.6,50.0 127.8,50.0 135.0,50.0 142.3,50.0 149.5,50.0 156.7,50.0 163.9,50.0 171.2,50.0 178.4,50.0 185.6,50.0 192.9,50.0 200.1,50.0 207.3,50.0 214.5,50.0 221.8,50.0 229.0,50.0 236.2,50.0 243.4,50.0 250.7,50.0 257.9,50.0 265.1,50.0 272.4,50.0 279.6,50.0 286.8,50.0 294.0,64.8 301.3,64.8 308.5,64.8 315.7,64.8 322.9,64.8 330.2,64.8 337.4,64.8 344.6,64.8 351.8,50.0 359.1,50.0 366.3,50.0 373.5,50.0 380.8,50.0 388.0,50.0 395.2,50.0 402.4,50.0 409.7,50.0 416.9,50.0 424.1,50.0 431.3,50.0 438.6,64.8 445.8,50.0 453.0,64.8 460.3,50.0 467.5,50.0 474.7,50.0 481.9,50.0 489.2,50.0 496.4,50.0 503.6,64.8 510.8,64.8 518.1,64.8 525.3,64.8 532.5,79.7 539.7,79.7 547.0,79.7 554.2,79.7 561.4,79.7 568.7,109.3 575.9,79.7 583.1,94.5 590.3,79.7 597.6,94.5 604.8,94.5 612.0,94.5 619.2,109.3 626.5,94.5 633.7,94.5 640.9,109.3 648.2,94.5 655.4,109.3 662.6,109.3 669.8,109.3 677.1,124.1 684.3,124.1 691.5,124.1 698.7,124.1 706.0,124.1 713.2,124.1 720.4,124.1 727.6,124.1 734.9,124.1 742.1,124.1 749.3,124.1 756.6,124.1 763.8,124.1 771.0,124.1 778.2,124.1 785.5,124.1 792.7,124.1 799.9,124.1 807.1,124.1 814.4,153.8 821.6,153.8 828.8,153.8 836.1,124.1 843.3,124.1 850.5,168.6 857.7,168.6 865.0,153.8 872.2,153.8 879.4,139.0 886.6,168.6 893.9,168.6 901.1,168.6 908.3,168.6 915.5,198.3 922.8,183.4 930.0,168.6"/>
<polyline fill="none" stroke="#1d4ed8" stroke-width="2" points="70.0,50.0 77.2,50.0 84.5,50.0 91.7,50.0 98.9,50.0 106.1,50.0 113.4,50.0 120.6,50.0 127.8,50.0 135.0,50.0 142.3,50.0 149.5,50.0 156.7,50.0 163.9,50.0 171.2,50.0 178.4,50.0 185.6,50.0 192.9,50.0 200.1,50.0 207.3,50.0 214.5,50.0 221.8,50.0 229.0,50.0 236.2,50.0 243.4,50.0 250.7,50.0 257.9,50.0 265.1,50.0 272.4,50.0 279.6,50.0 286.8,50.0 294.0,50.0 301.3,50.0 308.5,50.0 315.7,50.0 322.9,50.0 330.2,50.0 337.4,50.0 344.6,50.0 351.8,50.0 359.1,50.0 366.3,50.0 373.5,50.0 380.8,50.0 388.0,50.0 395.2,50.0 402.4,50.0 409.7,50.0 416.9,50.0 424.1,50.0 431.3,50.0 438.6,50.0 445.8,50.0 453.0,50.0 460.3,50.0 467.5,50.0 474.7,50.0 481.9,50.0 489.2,50.0 496.4,50.0 503.6,50.0 510.8,50.0 518.1,50.0 525.3,50.0 532.5,50.0 539.7,50.0 547.0,50.0 554.2,50.0 561.4,50.0 568.7,50.0 575.9,50.0 583.1,50.0 590.3,50.0 597.6,50.0 604.8,64.8 612.0,64.8 619.2,50.0 626.5,50.0 633.7,64.8 640.9,64.8 648.2,64.8 655.4,64.8 662.6,64.8 669.8,64.8 677.1,64.8 684.3,64.8 691.5,64.8 698.7,50.0 706.0,64.8 713.2,64.8 720.4,50.0 727.6,50.0 734.9,50.0 742.1,50.0 749.3,50.0 756.6,50.0 763.8,50.0 771.0,50.0 778.2,50.0 785.5,50.0 792.7,50.0 799.9,50.0 807.1,50.0 814.4,50.0 821.6,50.0 828.8,50.0 836.1,64.8 843.3,64.8 850.5,64.8 857.7,64.8 865.0,64.8 872.2,64.8 879.4,64.8 886.6,64.8 893.9,64.8 901.1,64.8 908.3,64.8 915.5,64.8 922.8,79.7 930.0,79.7"/>
<polyline fill="none" stroke="#047857" stroke-width="2" points="70.0,50.0 77.2,50.0 84.5,50.0 91.7,50.0 98.9,50.0 106.1,50.0 113.4,50.0 120.6,50.0 127.8,50.0 135.0,50.0 142.3,50.0 149.5,50.0 156.7,50.0 163.9,50.0 171.2,50.0 178.4,50.0 185.6,50.0 192.9,50.0 200.1,50.0 207.3,50.0 214.5,50.0 221.8,50.0 229.0,50.0 236.2,50.0 243.4,64.8 250.7,50.0 257.9,64.8 265.1,64.8 272.4,64.8 279.6,64.8 286.8,79.7 294.0,79.7 301.3,79.7 308.5,79.7 315.7,79.7 322.9,79.7 330.2,79.7 337.4,79.7 344.6,79.7 351.8,79.7 359.1,94.5 366.3,94.5 373.5,94.5 380.8,94.5 388.0,109.3 395.2,153.8 402.4,168.6 409.7,168.6 416.9,198.3 424.1,213.1 431.3,213.1 438.6,213.1 445.8,227.9 453.0,257.6 460.3,272.4 467.5,302.1 474.7,316.9 481.9,346.6 489.2,346.6 496.4,346.6 503.6,361.4 510.8,361.4 518.1,376.2 525.3,391.0 532.5,391.0 539.7,391.0 547.0,391.0 554.2,405.9 561.4,405.9 568.7,405.9 575.9,435.5 583.1,435.5 590.3,435.5 597.6,435.5 604.8,435.5 612.0,435.5 619.2,435.5 626.5,435.5 633.7,435.5 640.9,435.5 648.2,450.3 655.4,465.2 662.6,450.3 669.8,465.2 677.1,465.2 684.3,465.2 691.5,465.2 698.7,465.2 706.0,465.2 713.2,465.2 720.4,465.2 727.6,465.2 734.9,465.2 742.1,465.2 749.3,465.2 756.6,465.2 763.8,465.2 771.0,465.2 778.2,465.2 785.5,465.2 792.7,465.2 799.9,465.2 807.1,480.0 814.4,465.2 821.6,480.0 828.8,465.2 836.1,480.0 843.3,465.2 850.5,480.0 857.7,480.0 865.0,480.0 872.2,480.0 879.4,480.0 886.6,480.0 893.9,480.0 901.1,480.0 908.3,480.0 915.5,480.0 922.8,480.0 930.0,480.0"/>
<polyline fill="none" stroke="#047857" stroke-width="2" points="70.0,50.0 77.2,50.0 84.5,50.0 91.7,50.0 98.9,50.0 106.1,50.0 113.4,50.0 120.6,50.0 127.8,50.0 135.0,50.0 142.3,50.0 149.5,50.0 156.7,50.0 163.9,50.0 171.2,50.0 178.4,50.0 185.6,50.0 192.9,50.0 200.1,50.0 207.3,50.0 214.5,50.0 221.8,50.0 229.0,50.0 236.2,50.0 243.4,50.0 250.7,50.0 257.9,50.0 265.1,50.0 272.4,50.0 279.6,50.0 286.8,50.0 294.0,50.0 301.3,50.0 308.5,50.0 315.7,50.0 322.9,50.0 330.2,50.0 337.4,50.0 344.6,50.0 351.8,50.0 359.1,50.0 366.3,50.0 373.5,50.0 380.8,50.0 388.0,50.0 395.2,50.0 402.4,50.0 409.7,50.0 416.9,50.0 424.1,50.0 431.3,50.0 438.6,50.0 445.8,50.0 453.0,50.0 460.3,50.0 467.5,50.0 474.7,50.0 481.9,50.0 489.2,50.0 496.4,50.0 503.6,50.0 510.8,50.0 518.1,50.0 525.3,50.0 532.5,50.0 539.7,50.0 547.0,50.0 554.2,64.8 561.4,64.8 568.7,64.8 575.9,64.8 583.1,79.7 590.3,64.8 597.6,94.5 604.8,94.5 612.0,94.5 619.2,94.5 626.5,94.5 633.7,94.5 640.9,94.5 648.2,94.5 655.4,109.3 662.6,109.3 669.8,109.3 677.1,124.1 684.3,109.3 691.5,109.3 698.7,124.1 706.0,124.1 713.2,139.0 720.4,139.0 727.6,153.8 734.9,139.0 742.1,139.0 749.3,139.0 756.6,153.8 763.8,139.0 771.0,153.8 778.2,153.8 785.5,153.8 792.7,168.6 799.9,168.6 807.1,168.6 814.4,168.6 821.6,153.8 828.8,168.6 836.1,198.3 843.3,213.1 850.5,213.1 857.7,213.1 865.0,213.1 872.2,213.1 879.4,213.1 886.6,227.9 893.9,227.9 901.1,242.8 908.3,227.9 915.5,242.8 922.8,227.9 930.0,242.8"/>
<polyline fill="none" stroke="#047857" stroke-width="2" points="70.0,50.0 77.2,50.0 84.5,50.0 91.7,50.0 98.9,50.0 106.1,50.0 113.4,50.0 120.6,50.0 127.8,50.0 135.0,50.0 142.3,50.0 149.5,50.0 156.7,50.0 163.9,50.0 171.2,50.0 178.4,50.0 185.6,50.0 192.9,50.0 200.1,50.0 207.3,50.0 214.5,50.0 221.8,50.0 229.0,50.0 236.2,50.0 243.4,50.0 250.7,50.0 257.9,50.0 265.1,50.0 272.4,50.0 279.6,50.0 286.8,50.0 294.0,50.0 301.3,50.0 308.5,50.0 315.7,50.0 322.9,50.0 330.2,50.0 337.4,50.0 344.6,50.0 351.8,50.0 359.1,50.0 366.3,50.0 373.5,50.0 380.8,50.0 388.0,50.0 395.2,50.0 402.4,50.0 409.7,50.0 416.9,50.0 424.1,50.0 431.3,50.0 438.6,50.0 445.8,50.0 453.0,50.0 460.3,50.0 467.5,50.0 474.7,50.0 481.9,50.0 489.2,50.0 496.4,50.0 503.6,50.0 510.8,50.0 518.1,50.0 525.3,50.0 532.5,50.0 539.7,50.0 547.0,50.0 554.2,50.0 561.4,50.0 568.7,50.0 575.9,50.0 583.1,50.0 590.3,50.0 597.6,50.0 604.8,50.0 612.0,50.0 619.2,50.0 626.5,50.0 633.7,50.0 640.9,50.0 648.2,50.0 655.4,50.0 662.6,50.0 669.8,50.0 677.1,50.0 684.3,50.0 691.5,50.0 698.7,50.0 706.0,50.0 713.2,50.0 720.4,50.0 727.6,50.0 734.9,50.0 742.1,50.0 749.3,50.0 756.6,50.0 763.8,50.0 771.0,50.0 778.2,50.0 785.5,50.0 792.7,50.0 799.9,50.0 807.1,50.0 814.4,50.0 821.6,50.0 828.8,50.0 836.1,50.0 843.3,50.0 850.5,50.0 857.7,50.0 865.0,50.0 872.2,50.0 879.4,50.0 886.6,50.0 893.9,50.0 901.1,50.0 908.3,64.8 915.5,50.0 922.8,50.0 930.0,64.8"/>
<rect x="710" y="62" width="12" height="12" fill="#6b7280"/>
<text x="728" y="73" font-family="sans-serif" font-size="11">scalar-low</text>
<rect x="710" y="80" width="12" height="12" fill="#6b7280"/>
<text x="728" y="91" font-family="sans-serif" font-size="11">scalar-mid</text>
<rect x="710" y="98" width="12" height="12" fill="#6b7280"/>
<text x="728" y="109" font-family="sans-serif" font-size="11">scalar-high</text>
<rect x="710" y="116" width="12" height="12" fill="#1d4ed8"/>
<text x="728" y="127" font-family="sans-serif" font-size="11">geometric-low</text>
<rect x="710" y="134" width="12" height="12" fill="#1d4ed8"/>
<text x="728" y="145" font-family="sans-serif" font-size="11">geometric-mid</text>
<rect x="710" y="152" width="12" height="12" fill="#1d4ed8"/>
<text x="728" y="163" font-family="sans-serif" font-size="11">geometric-high</text>
<rect x="710" y="170" width="12" height="12" fill="#047857"/>
<text x="728" y="181" font-family="sans-serif" font-size="11">lexicographic-low</text>
<rect x="710" y="188" width="12" height="12" fill="#047857"/>
<text x="728" y="199" font-family="sans-serif" font-size="11">lexicographic-mid</text>
<rect x="710" y="206" width="12" height="12" fill="#047857"/>
<text x="728" y="217" font-family="sans-serif" font-size="11">lexicographic-high</text>
</svg>
