<svg xmlns="http://www.w3.org/2000/svg" width="960" height="540" viewBox="0 0 960 540">
<rect width="100%" height="100%" fill="white"/>
<text x="480.0" y="28" text-anchor="middle" font-family="sans-serif" font-size="18">Signal-gene correlation over time</text>
<line x1="70" y1="480" x2="930" y2="480" stroke="#111"/>
<line x1="70" y1="50" x2="70" y2="480" stroke="#111"/>
<text x="480.0" y="525" text-anchor="middle" font-family="sans-serif" font-size="12">step</text>
<text x="18" y="270.0" transform="rotate(-90 18 270.0)" font-family="sans-serif" font-size="12">corr(signal, behavior_gene)</text>
<polyline fill="none" stroke="#6b7280" stroke-width="2" points="70.0,50.0 77.2,50.0 84.5,50.0 91.7,50.0 98.9,50.0 106.1,50.0 113.4,50.0 120.6,50.0 127.8,50.0 135.0,50.0 142.3,50.0 149.5,50.0 156.7,50.0 163.9,50.0"/>
<polyline fill="none" stroke="#6b7280" stroke-width="2" points="70.0,50.0 77.2,50.0 84.5,50.0 91.7,50.0 98.9,50.0 106.1,50.0 113.4,50.0 120.6,50.0 127.8,50.0 135.0,50.0 142.3,50.0 149.5,50.0 156.7,50.0 163.9,50.0"/>
<polyline fill="none" stroke="#6b7280" stroke-width="2" points="70.0,50.0 77.2,50.0 84.5,50.0 91.7,50.0 98.9,50.0 106.1,50.0 113.4,50.0 120.6,50.0 127.8,50.0 135.0,50.0 142.3,50.0 149.5,50.0 156.7,50.0 163.9,50.0"/>
<polyline fill="none" stroke="#1d4ed8" stroke-width="2" points="70.0,50.0 77.2,50.0 84.5,50.0 91.7,50.0 98.9,50.0 106.1,50.0 113.4,50.0 120.6,50.0 127.8,69.8 135.0,89.6 142.3,228.1 149.5,366.7 156.7,366.7 163.9,307.3 171.2,346.9 178.4,386.5 185.6,327.1 192.9,406.3 200.1,336.7 207.3,398.1 214.5,439.0 221.8,295.7 229.0,377.6 236.2,234.3 243.4,275.2 250.7,234.3 257.9,377.6 265.1,336.7 272.4,336.7 279.6,295.7 286.8,254.8 294.0,480.0 301.3,357.1 308.5,275.2 315.7,418.6 322.9,316.2 330.2,398.1 337.4,316.2 344.6,275.2 351.8,357.1 359.1,336.7 366.3,336.7 373.5,254.8 380.8,316.2 388.0,346.9 395.2,304.5 402.4,262.1 409.7,304.5 416.9,325.7 424.1,177.2 431.3,240.9 438.6,177.2 445.8,177.2 453.0,219.7 460.3,240.9 467.5,198.5 474.7,177.2 481.9,156.0 489.2,156.0 496.4,134.8 503.6,177.2 510.8,219.7 518.1,177.2 525.3,198.5 532.5,177.2 539.7,219.7 547.0,156.0 554.2,134.8 561.4,134.8 568.7,134.8 575.9,113.6 583.1,156.0 590.3,134.8 597.6,156.0 604.8,156.0 612.0,177.2 619.2,113.6 626.5,134.8 633.7,198.5 640.9,198.5 648.2,156.0 655.4,134.8 662.6,156.0 669.8,113.6 677.1,113.6 684.3,156.0 691.5,156.0 698.7,156.0 706.0,92.4 713.2,92.4 720.4,134.8 727.6,138.0 734.9,138.0 742.1,116.0 749.3,160.0 756.6,182.0 763.8,141.4 771.0,141.4 778.2,118.5 785.5,164.2 792.7,164.2 799.9,118.5 807.1,118.5 814.4,95.7 821.6,118.5 828.8,95.7 836.1,50.0 843.3,50.0 850.5,95.7 857.7,95.7 865.0,118.5 872.2,118.5 879.4,118.5 886.6,97.5 893.9,97.5 901.1,121.3 908.3,145.0 915.5,121.3 922.8,99.5 930.0,99.5"/>
<polyline fill="none" stroke="#1d4ed8" stroke-width="2" points="70.0,50.0 77.2,50.0 84.5,50.0 91.7,50.0 98.9,50.0 106.1,50.0 113.4,50.0 120.6,50.0 127.8,69.8 135.0,89.6 142.3,228.1 149.5,386.5 156.7,386.5 163.9,307.3 171.2,366.7 178.4,366.7 185.6,307.3 192.9,366.7 200.1,357.1 207.3,336.7 214.5,398.1 221.8,295.7 229.0,418.6 236.2,275.2 243.4,295.7 250.7,234.3 257.9,398.1 265.1,336.7 272.4,357.1 279.6,336.7 286.8,254.8 294.0,439.0 301.3,377.6 308.5,295.7 315.7,398.1 322.9,295.7 330.2,398.1 337.4,316.2 344.6,275.2 351.8,398.1 359.1,398.1 366.3,398.1 373.5,275.2 380.8,283.3 388.0,368.1 395.2,325.7 402.4,283.3 409.7,325.7 416.9,325.7 424.1,219.7 431.3,240.9 438.6,198.5 445.8,177.2 453.0,198.5 460.3,219.7 467.5,198.5 474.7,156.0 481.9,156.0 489.2,156.0 496.4,134.8 503.6,177.2 510.8,240.9 518.1,177.2 525.3,198.5 532.5,177.2 539.7,177.2 547.0,156.0 554.2,156.0 561.4,156.0 568.7,156.0 575.9,113.6 583.1,156.0 590.3,134.8 597.6,177.2 604.8,134.8 612.0,156.0 619.2,113.6 626.5,134.8 633.7,219.7 640.9,219.7 648.2,156.0 655.4,134.8 662.6,134.8 669.8,92.4 677.1,92.4 684.3,134.8 691.5,134.8 698.7,134.8 706.0,113.6 713.2,113.6 720.4,134.8 727.6,156.0 734.9,134.8 742.1,92.4 749.3,113.6 756.6,138.0 763.8,116.0 771.0,116.0 778.2,94.0 785.5,116.0 792.7,138.0 799.9,116.0 807.1,116.0 814.4,116.0 821.6,116.0 828.8,116.0 836.1,94.0 843.3,94.0 850.5,116.0 857.7,95.7 865.0,118.5 872.2,118.5 879.4,118.5 886.6,118.5 893.9,97.5 901.1,121.3 908.3,145.0 915.5,121.3 922.8,121.3 930.0,121.3"/>
<polyline fill="none" stroke="#1d4ed8" stroke-width="2" points="70.0,50.0 77.2,50.0 84.5,50.0 91.7,50.0 98.9,50.0 106.1,50.0 113.4,50.0 120.6,50.0 127.8,69.8 135.0,89.6 142.3,208.3 149.5,327.1 156.7,346.9 163.9,307.3 171.2,366.7 178.4,346.9 185.6,267.7 192.9,336.7 200.1,377.6 207.3,336.7 214.5,398.1 221.8,357.1 229.0,377.6 236.2,275.2 243.4,275.2 250.7,254.8 257.9,377.6 265.1,336.7 272.4,377.6 279.6,336.7 286.8,275.2 294.0,459.5 301.3,377.6 308.5,254.8 315.7,377.6 322.9,316.2 330.2,398.1 337.4,336.7 344.6,275.2 351.8,357.1 359.1,377.6 366.3,398.1 373.5,295.7 380.8,304.5 388.0,389.3 395.2,368.1 402.4,283.3 409.7,325.7 416.9,304.5 424.1,177.2 431.3,198.5 438.6,177.2 445.8,177.2 453.0,240.9 460.3,219.7 467.5,198.5 474.7,134.8 481.9,156.0 489.2,134.8 496.4,134.8 503.6,177.2 510.8,240.9 518.1,156.0 525.3,177.2 532.5,177.2 539.7,177.2 547.0,134.8 554.2,134.8 561.4,134.8 568.7,134.8 575.9,113.6 583.1,156.0 590.3,156.0 597.6,198.5 604.8,177.2 612.0,198.5 619.2,134.8 626.5,156.0 633.7,219.7 640.9,198.5 648.2,156.0 655.4,134.8 662.6,92.4 669.8,71.2 677.1,71.2 684.3,134.8 691.5,134.8 698.7,134.8 706.0,92.4 713.2,113.6 720.4,134.8 727.6,156.0 734.9,134.8 742.1,92.4 749.3,113.6 756.6,134.8 763.8,113.6 771.0,113.6 778.2,113.6 785.5,156.0 792.7,156.0 799.9,134.8 807.1,138.0 814.4,94.0 821.6,138.0 828.8,138.0 836.1,116.0 843.3,116.0 850.5,116.0 857.7,94.0 865.0,116.0 872.2,116.0 879.4,116.0 886.6,116.0 893.9,116.0 901.1,116.0 908.3,118.5 915.5,95.7 922.8,118.5 930.0,118.5"/>
<polyline fill="none" stroke="#047857" stroke-width="2" points="70.0,50.0 77.2,50.0 84.5,50.0 91.7,50.0 98.9,50.0 106.1,50.0 113.4,50.0 120.6,50.0 127.8,69.8 135.0,89.6 142.3,228.1 149.5,366.7 156.7,366.7 163.9,307.3 171.2,346.9 178.4,386.5 185.6,327.1 192.9,406.3 200.1,336.7 207.3,398.1 214.5,439.0 221.8,295.7 229.0,377.6 236.2,234.3 243.4,275.2 250.7,234.3 257.9,377.6 265.1,336.7 272.4,336.7 279.6,295.7 286.8,254.8 294.0,480.0 301.3,357.1 308.5,275.2 315.7,418.6 322.9,316.2 330.2,398.1 337.4,316.2 344.6,275.2 351.8,357.1 359.1,316.2 366.3,316.2 373.5,275.2 380.8,316.2 388.0,346.9 395.2,325.7 402.4,262.1 409.7,304.5 416.9,304.5 424.1,156.0 431.3,156.0 438.6,156.0 445.8,156.0 453.0,219.7 460.3,240.9 467.5,198.5 474.7,156.0 481.9,134.8 489.2,134.8 496.4,113.6 503.6,177.2 510.8,240.9 518.1,177.2 525.3,198.5 532.5,177.2 539.7,219.7 547.0,156.0 554.2,134.8 561.4,134.8 568.7,134.8 575.9,113.6 583.1,156.0 590.3,156.0 597.6,177.2 604.8,177.2 612.0,198.5 619.2,134.8 626.5,156.0 633.7,240.9 640.9,240.9 648.2,177.2 655.4,156.0 662.6,134.8 669.8,92.4 677.1,92.4 684.3,134.8 691.5,134.8 698.7,134.8 706.0,92.4 713.2,92.4 720.4,113.6 727.6,116.0 734.9,94.0 742.1,94.0 749.3,138.0 756.6,160.0 763.8,141.4 771.0,141.4 778.2,118.5 785.5,164.2 792.7,164.2 799.9,118.5 807.1,118.5 814.4,95.7 821.6,141.4 828.8,118.5 836.1,50.0 843.3,50.0 850.5,95.7 857.7,95.7 865.0,118.5 872.2,118.5 879.4,118.5 886.6,97.5 893.9,97.5 901.1,121.3 908.3,145.0 915.5,121.3 922.8,99.5 930.0,99.5"/>
<polyline fill="none" stroke="#047857" stroke-width="2" points="70.0,50.0 77.2,50.0 84.5,50.0 91.7,50.0 98.9,50.0 106.1,50.0 113.4,50.0 120.6,50.0 127.8,69.8 135.0,89.6 142.3,228.1 149.5,386.5 156.7,386.5 163.9,307.3 171.2,366.7 178.4,366.7 185.6,307.3 192.9,366.7 200.1,357.1 207.3,336.7 214.5,398.1 221.8,295.7 229.0,418.6 236.2,275.2 243.4,295.7 250.7,234.3 257.9,398.1 265.1,336.7 272.4,357.1 279.6,336.7 286.8,254.8 294.0,439.0 301.3,377.6 308.5,295.7 315.7,398.1 322.9,295.7 330.2,398.1 337.4,316.2 344.6,275.2 351.8,398.1 359.1,377.6 366.3,357.1 373.5,275.2 380.8,283.3 388.0,368.1 395.2,304.5 402.4,262.1 409.7,325.7 416.9,304.5 424.1,198.5 431.3,198.5 438.6,177.2 445.8,177.2 453.0,198.5 460.3,219.7 467.5,198.5 474.7,177.2 481.9,156.0 489.2,156.0 496.4,134.8 503.6,177.2 510.8,240.9 518.1,156.0 525.3,177.2 532.5,177.2 539.7,156.0 547.0,134.8 554.2,156.0 561.4,156.0 568.7,156.0 575.9,113.6 583.1,156.0 590.3,134.8 597.6,177.2 604.8,134.8 612.0,156.0 619.2,113.6 626.5,134.8 633.7,219.7 640.9,219.7 648.2,156.0 655.4,134.8 662.6,113.6 669.8,92.4 677.1,113.6 684.3,134.8 691.5,134.8 698.7,134.8 706.0,113.6 713.2,113.6 720.4,134.8 727.6,156.0 734.9,134.8 742.1,92.4 749.3,116.0 756.6,138.0 763.8,116.0 771.0,116.0 778.2,94.0 785.5,138.0 792.7,138.0 799.9,116.0 807.1,116.0 814.4,94.0 821.6,94.0 828.8,116.0 836.1,94.0 843.3,94.0 850.5,116.0 857.7,95.7 865.0,118.5 872.2,118.5 879.4,118.5 886.6,118.5 893.9,97.5 901.1,121.3 908.3,145.0 915.5,97.5 922.8,121.3 930.0,121.3"/>
<polyline fill="none" stroke="#047857" stroke-width="2" points="70.0,50.0 77.2,50.0 84.5,50.0 91.7,50.0 98.9,50.0 106.1,50.0 113.4,50.0 120.6,50.0 127.8,69.8 135.0,89.6 142.3,208.3 149.5,327.1 156.7,346.9 163.9,307.3 171.2,366.7 178.4,346.9 185.6,267.7 192.9,336.7 200.1,377.6 207.3,336.7 214.5,398.1 221.8,357.1 229.0,377.6 236.2,275.2 243.4,275.2 250.7,254.8 257.9,377.6 265.1,336.7 272.4,377.6 279.6,336.7 286.8,275.2 294.0,459.5 301.3,377.6 308.5,254.8 315.7,377.6 322.9,316.2 330.2,398.1 337.4,336.7 344.6,275.2 351.8,357.1 359.1,377.6 366.3,377.6 373.5,295.7 380.8,304.5 388.0,368.1 395.2,346.9 402.4,262.1 409.7,325.7 416.9,304.5 424.1,177.2 431.3,156.0 438.6,177.2 445.8,177.2 453.0,219.7 460.3,198.5 467.5,177.2 474.7,156.0 481.9,156.0 489.2,134.8 496.4,134.8 503.6,177.2 510.8,219.7 518.1,156.0 525.3,177.2 532.5,177.2 539.7,177.2 547.0,134.8 554.2,134.8 561.4,134.8 568.7,134.8 575.9,113.6 583.1,156.0 590.3,156.0 597.6,198.5 604.8,177.2 612.0,198.5 619.2,134.8 626.5,156.0 633.7,219.7 640.9,198.5 648.2,156.0 655.4,134.8 662.6,92.4 669.8,71.2 677.1,71.2 684.3,134.8 691.5,134.8 698.7,134.8 706.0,92.4 713.2,113.6 720.4,134.8 727.6,156.0 734.9,156.0 742.1,113.6 749.3,134.8 756.6,134.8 763.8,113.6 771.0,113.6 778.2,113.6 785.5,156.0 792.7,156.0 799.9,138.0 807.1,138.0 814.4,94.0 821.6,138.0 828.8,160.0 836.1,116.0 843.3,116.0 850.5,116.0 857.7,94.0 865.0,116.0 872.2,116.0 879.4,94.0 886.6,94.0 893.9,116.0 901.1,94.0 908.3,116.0 915.5,94.0 922.8,118.5 930.0,118.5"/>
<rect x="710" y="62" width="12" height="12" fill="#6b7280"/>
<text x="728" y="73" font-family="sans-serif" font-size="11">scalar-low</text>
<rect x="710" y="80" width="12" height="12" fill="#6b7280"/>
<text x="728" y="91" font-family="sans-serif" font-size="11">scalar-mid</text>
<rect x="710" y="98" width="12" height="12" fill="#6b7280"/>
<text x="728" y="109" font-family="sans-serif" font-size="11">scalar-high</text>
<rect x="710" y="116" width="12" height="12" fill="#1d4ed8"/>
<text x="728" y="127" font-family="sans-serif" font-size="11">geometric-low</text>
<rect x="710" y="134" width="12" height="12" fill="#1d4ed8"/>
<text x="728" y="145" font-family="sans-serif" font-size="11">geometric-mid</text>
<rect x="710" y="152" width="12" height="12" fill="#1d4ed8"/>
<text x="728" y="163" font-family="sans-serif" font-size="11">geometric-high</text>
<rect x="710" y="170" width="12" height="12" fill="#047857"/>
<text x="728" y="181" font-family="sans-serif" font-size="11">lexicographic-low</text>
<rect x="710" y="188" width="12" height="12" fill="#047857"/>
<text x="728" y="199" font-family="sans-serif" font-size="11">lexicographic-mid</text>
<rect x="710" y="206" width="12" height="12" fill="#047857"/>
<text x="728" y="217" font-family="sans-serif" font-size="11">lexicographic-high</text>
</svg>
