<svg xmlns="http://www.w3.org/2000/svg" width="960" height="540" viewBox="0 0 960 540">
<rect width="100%" height="100%" fill="white"/>
<text x="480.0" y="28" text-anchor="middle" font-family="sans-serif" font-size="18">Failure mode 2: collective hack / signal-gene decoupling</text>
<line x1="70" y1="480" x2="930" y2="480" stroke="#111"/>
<line x1="70" y1="50" x2="70" y2="480" stroke="#111"/>
<text x="480.0" y="525" text-anchor="middle" font-family="sans-serif" font-size="12">step</text>
<text x="18" y="270.0" transform="rotate(-90 18 270.0)" font-family="sans-serif" font-size="12">value</text>
<polyline fill="none" stroke="#6b7280" stroke-width="2" points="70.0,372.5 136.2,379.1 202.3,397.8 268.5,402.4 334.6,404.4 400.8,405.6 466.9,418.0 533.1,423.9 599.2,441.6 665.4,450.3 731.5,458.7 797.7,465.9 863.8,470.7 930.0,473.9"/>
<polyline fill="none" stroke="#1d4ed8" stroke-width="2" points="70.0,85.1 136.2,73.2 202.3,65.3 268.5,60.1 334.6,56.7 400.8,54.4 466.9,52.9 533.1,51.9 599.2,51.3 665.4,50.8 731.5,50.6 797.7,50.4 863.8,50.2 930.0,50.2"/>
<polyline fill="none" stroke="#9ca3af" stroke-width="2" points="70.0,480.0 136.2,480.0 202.3,480.0 268.5,480.0 334.6,480.0 400.8,480.0 466.9,480.0 533.1,480.0 599.2,480.0 665.4,480.0 731.5,480.0 797.7,480.0 863.8,480.0 930.0,480.0"/>
<polyline fill="none" stroke="#93c5fd" stroke-width="2" points="70.0,50.0 136.2,50.0 202.3,50.0 268.5,50.0 334.6,50.0 400.8,50.0 466.9,50.0 533.1,50.0 599.2,50.0 665.4,50.0 731.5,50.0 797.7,50.0 863.8,50.0 930.0,50.0"/>
<rect x="710" y="62" width="12" height="12" fill="#6b7280"/>
<text x="728" y="73" font-family="sans-serif" font-size="11">signal g0</text>
<rect x="710" y="80" width="12" height="12" fill="#1d4ed8"/>
<text x="728" y="91" font-family="sans-serif" font-size="11">signal g1</text>
<rect x="710" y="98" width="12" height="12" fill="#9ca3af"/>
<text x="728" y="109" font-family="sans-serif" font-size="11">alloc g0</text>
<rect x="710" y="116" width="12" height="12" fill="#93c5fd"/>
<text x="728" y="127" font-family="sans-serif" font-size="11">alloc g1</text>
</svg>
