<svg xmlns="http://www.w3.org/2000/svg" width="960" height="540" viewBox="0 0 960 540">
<rect width="100%" height="100%" fill="white"/>
<text x="480.0" y="28" text-anchor="middle" font-family="sans-serif" font-size="18">Failure mode 2: collective hack / signal-gene decoupling</text>
<line x1="70" y1="480" x2="930" y2="480" stroke="#111"/>
<line x1="70" y1="50" x2="70" y2="480" stroke="#111"/>
<text x="480.0" y="525" text-anchor="middle" font-family="sans-serif" font-size="12">step</text>
<text x="18" y="270.0" transform="rotate(-90 18 270.0)" font-family="sans-serif" font-size="12">value</text>
<polyline fill="none" stroke="#6b7280" stroke-width="2" points="70.0,374.1 192.9,381.0 315.7,402.8 438.6,414.7 561.4,416.4 684.3,424.0 807.1,436.3 930.0,443.4"/>
<polyline fill="none" stroke="#1d4ed8" stroke-width="2" points="70.0,82.3 192.9,75.2 315.7,69.6 438.6,65.3 561.4,61.9 684.3,59.3 807.1,57.3 930.0,55.7"/>
<polyline fill="none" stroke="#9ca3af" stroke-width="2" points="70.0,480.0 192.9,480.0 315.7,480.0 438.6,480.0 561.4,480.0 684.3,480.0 807.1,480.0 930.0,480.0"/>
<polyline fill="none" stroke="#93c5fd" stroke-width="2" points="70.0,50.0 192.9,50.0 315.7,50.0 438.6,50.0 561.4,50.0 684.3,50.0 807.1,50.0 930.0,50.0"/>
<rect x="710" y="62" width="12" height="12" fill="#6b7280"/>
<text x="728" y="73" font-family="sans-serif" font-size="11">signal g0</text>
<rect x="710" y="80" width="12" height="12" fill="#1d4ed8"/>
<text x="728" y="91" font-family="sans-serif" font-size="11">signal g1</text>
<rect x="710" y="98" width="12" height="12" fill="#9ca3af"/>
<text x="728" y="109" font-family="sans-serif" font-size="11">alloc g0</text>
<rect x="710" y="116" width="12" height="12" fill="#93c5fd"/>
<text x="728" y="127" font-family="sans-serif" font-size="11">alloc g1</text>
</svg>
