<svg xmlns="http://www.w3.org/2000/svg" width="960" height="540" viewBox="0 0 960 540">
<rect width="100%" height="100%" fill="white"/>
<text x="480.0" y="28" text-anchor="middle" font-family="sans-serif" font-size="18">Blind arbiter true-gene permanence curve</text>
<line x1="70" y1="480" x2="930" y2="480" stroke="#111"/>
<line x1="70" y1="50" x2="70" y2="480" stroke="#111"/>
<text x="480.0" y="525" text-anchor="middle" font-family="sans-serif" font-size="12">R = horizon_harm / horizon_observation</text>
<text x="18" y="270.0" transform="rotate(-90 18 270.0)" font-family="sans-serif" font-size="12">true permanence rate</text>
<line x1="181.4" y1="50" x2="181.4" y2="480" stroke="#999" stroke-dasharray="4,4"/>
<text x="181.4" y="496" text-anchor="middle" font-family="sans-serif" font-size="10">R=1</text>
<polyline fill="none" stroke="#6b7280" stroke-width="2" points="70.0,480.0 90.6,480.0 96.3,480.0 123.0,480.0 158.7,480.0 208.6,480.0 317.5,480.0 499.0,480.0 930.0,480.0"/>
<polygon fill="#6b7280" fill-opacity="0.15" stroke="none" points="70.0,480.0 90.6,480.0 96.3,480.0 123.0,480.0 158.7,480.0 208.6,480.0 317.5,480.0 499.0,480.0 930.0,480.0 930.0,480.0 499.0,480.0 317.5,480.0 208.6,480.0 158.7,480.0 123.0,480.0 96.3,480.0 90.6,480.0 70.0,480.0"/>
<polyline fill="none" stroke="#6b7280" stroke-width="2" points="70.0,480.0 90.6,480.0 96.3,480.0 123.0,480.0 158.7,480.0 208.6,480.0 317.5,480.0 499.0,480.0 930.0,480.0"/>
<polyline fill="none" stroke="#1d4ed8" stroke-width="2" points="70.0,336.7 90.6,336.7 96.3,336.7 123.0,336.7 158.7,336.7 208.6,336.7 317.5,336.7 499.0,50.0 930.0,50.0"/>
<polygon fill="#1d4ed8" fill-opacity="0.15" stroke="none" points="70.0,480.0 90.6,480.0 96.3,480.0 123.0,480.0 158.7,480.0 208.6,480.0 317.5,480.0 499.0,480.0 930.0,480.0 930.0,480.0 499.0,480.0 317.5,480.0 208.6,480.0 158.7,480.0 123.0,480.0 96.3,480.0 90.6,480.0 70.0,480.0"/>
<polyline fill="none" stroke="#1d4ed8" stroke-width="2" points="70.0,336.7 90.6,336.7 96.3,336.7 123.0,336.7 158.7,336.7 208.6,336.7 317.5,336.7 499.0,50.0 930.0,50.0"/>
<polyline fill="none" stroke="#047857" stroke-width="2" points="70.0,336.7 90.6,336.7 96.3,336.7 123.0,336.7 158.7,336.7 208.6,336.7 317.5,336.7 499.0,193.3 930.0,50.0"/>
<polygon fill="#047857" fill-opacity="0.15" stroke="none" points="70.0,480.0 90.6,480.0 96.3,480.0 123.0,480.0 158.7,480.0 208.6,480.0 317.5,480.0 499.0,480.0 930.0,480.0 930.0,480.0 499.0,480.0 317.5,480.0 208.6,480.0 158.7,480.0 123.0,480.0 96.3,480.0 90.6,480.0 70.0,480.0"/>
<polyline fill="none" stroke="#047857" stroke-width="2" points="70.0,336.7 90.6,336.7 96.3,336.7 123.0,336.7 158.7,336.7 208.6,336.7 317.5,336.7 499.0,193.3 930.0,50.0"/>
<rect x="710" y="62" width="12" height="12" fill="#6b7280"/>
<text x="728" y="73" font-family="sans-serif" font-size="11">scalar</text>
<rect x="710" y="80" width="12" height="12" fill="#1d4ed8"/>
<text x="728" y="91" font-family="sans-serif" font-size="11">geometric</text>
<rect x="710" y="98" width="12" height="12" fill="#047857"/>
<text x="728" y="109" font-family="sans-serif" font-size="11">lexicographic</text>
</svg>
