<svg xmlns="http://www.w3.org/2000/svg" width="900" height="520" viewBox="0 0 900 520">
<rect width="100%" height="100%" fill="white"/>
<text x="450.0" y="30" text-anchor="middle" font-family="sans-serif" font-size="18">Consequence vs Feature Permanence</text>
<line x1="80" y1="400" x2="870" y2="400" stroke="#111"/>
<line x1="80" y1="60" x2="80" y2="400" stroke="#111"/>
<text x="18" y="260.0" transform="rotate(-90 18 260.0)" font-family="sans-serif" font-size="12">permanence</text>
<rect x="95.8" y="400.0" width="100.1" height="0.0" fill="#1d4ed8"/>
<text x="145.8" y="414" transform="rotate(45 145.8 414)" font-family="sans-serif" font-size="10">T1_proxy_trap</text>
<text x="145.8" y="396.0" text-anchor="middle" font-family="sans-serif" font-size="10">0.00</text>
<rect x="227.5" y="400.0" width="100.1" height="0.0" fill="#1d4ed8"/>
<text x="277.5" y="414" transform="rotate(45 277.5 414)" font-family="sans-serif" font-size="10">T2_sag_ambiguity_trap</text>
<text x="277.5" y="396.0" text-anchor="middle" font-family="sans-serif" font-size="10">0.00</text>
<rect x="359.1" y="400.0" width="100.1" height="0.0" fill="#1d4ed8"/>
<text x="409.2" y="414" transform="rotate(45 409.2 414)" font-family="sans-serif" font-size="10">T3_monoculture_trap</text>
<text x="409.2" y="396.0" text-anchor="middle" font-family="sans-serif" font-size="10">0.00</text>
<rect x="490.8" y="400.0" width="100.1" height="0.0" fill="#1d4ed8"/>
<text x="540.8" y="414" transform="rotate(45 540.8 414)" font-family="sans-serif" font-size="10">T1_proxy_trap cons</text>
<text x="540.8" y="396.0" text-anchor="middle" font-family="sans-serif" font-size="10">0.00</text>
<rect x="622.5" y="400.0" width="100.1" height="0.0" fill="#1d4ed8"/>
<text x="672.5" y="414" transform="rotate(45 672.5 414)" font-family="sans-serif" font-size="10">T2_sag_ambiguity_trap cons</text>
<text x="672.5" y="396.0" text-anchor="middle" font-family="sans-serif" font-size="10">0.00</text>
<rect x="754.1" y="400.0" width="100.1" height="0.0" fill="#1d4ed8"/>
<text x="804.2" y="414" transform="rotate(45 804.2 414)" font-family="sans-serif" font-size="10">T3_monoculture_trap cons</text>
<text x="804.2" y="396.0" text-anchor="middle" font-family="sans-serif" font-size="10">0.00</text>
</svg>
