<svg xmlns="http://www.w3.org/2000/svg" width="900" height="520" viewBox="0 0 900 520">
<rect width="100%" height="100%" fill="white"/>
<text x="450.0" y="30" text-anchor="middle" font-family="sans-serif" font-size="18">Diversity Policy vs Shock Survival</text>
<line x1="80" y1="400" x2="870" y2="400" stroke="#111"/>
<line x1="80" y1="60" x2="80" y2="400" stroke="#111"/>
<text x="18" y="260.0" transform="rotate(-90 18 260.0)" font-family="sans-serif" font-size="12">permanence</text>
<rect x="99.0" y="400.0" width="120.1" height="0.0" fill="#1d4ed8"/>
<text x="159.0" y="414" transform="rotate(45 159.0 414)" font-family="sans-serif" font-size="10">no_diversity_floor</text>
<text x="159.0" y="396.0" text-anchor="middle" font-family="sans-serif" font-size="10">0.00</text>
<rect x="257.0" y="400.0" width="120.1" height="0.0" fill="#1d4ed8"/>
<text x="317.0" y="414" transform="rotate(45 317.0 414)" font-family="sans-serif" font-size="10">no_diversity_floor</text>
<text x="317.0" y="396.0" text-anchor="middle" font-family="sans-serif" font-size="10">0.00</text>
<rect x="415.0" y="71.3" width="120.1" height="328.7" fill="#1d4ed8"/>
<text x="475.0" y="414" transform="rotate(45 475.0 414)" font-family="sans-serif" font-size="10">diversity_all_types</text>
<text x="475.0" y="67.3" text-anchor="middle" font-family="sans-serif" font-size="10">0.97</text>
<rect x="573.0" y="60.0" width="120.1" height="340.0" fill="#1d4ed8"/>
<text x="633.0" y="414" transform="rotate(45 633.0 414)" font-family="sans-serif" font-size="10">diversity_non_adversarial_only</text>
<text x="633.0" y="56.0" text-anchor="middle" font-family="sans-serif" font-size="10">1.00</text>
<rect x="731.0" y="400.0" width="120.1" height="0.0" fill="#1d4ed8"/>
<text x="791.0" y="414" transform="rotate(45 791.0 414)" font-family="sans-serif" font-size="10">no_diversity_floor</text>
<text x="791.0" y="396.0" text-anchor="middle" font-family="sans-serif" font-size="10">0.00</text>
</svg>
