<svg xmlns="http://www.w3.org/2000/svg" width="900" height="520" viewBox="0 0 900 520">
<rect width="100%" height="100%" fill="white"/>
<text x="450.0" y="30" text-anchor="middle" font-family="sans-serif" font-size="18">Neighbor vs Self Consequence</text>
<line x1="80" y1="400" x2="870" y2="400" stroke="#111"/>
<line x1="80" y1="60" x2="80" y2="400" stroke="#111"/>
<text x="18" y="260.0" transform="rotate(-90 18 260.0)" font-family="sans-serif" font-size="12">permanence</text>
<rect x="87.9" y="400.0" width="50.0" height="0.0" fill="#1d4ed8"/>
<text x="112.9" y="414" transform="rotate(45 112.9 414)" font-family="sans-serif" font-size="10">T1_proxy_trap:self_consequence</text>
<text x="112.9" y="396.0" text-anchor="middle" font-family="sans-serif" font-size="10">0.00</text>
<rect x="153.7" y="400.0" width="50.0" height="0.0" fill="#1d4ed8"/>
<text x="178.8" y="414" transform="rotate(45 178.8 414)" font-family="sans-serif" font-size="10">T1_proxy_trap:neighbor_consequence</text>
<text x="178.8" y="396.0" text-anchor="middle" font-family="sans-serif" font-size="10">0.00</text>
<rect x="219.6" y="400.0" width="50.0" height="0.0" fill="#1d4ed8"/>
<text x="244.6" y="414" transform="rotate(45 244.6 414)" font-family="sans-serif" font-size="10">T1_proxy_trap:local_global_neighbor</text>
<text x="244.6" y="396.0" text-anchor="middle" font-family="sans-serif" font-size="10">0.00</text>
<rect x="285.4" y="400.0" width="50.0" height="0.0" fill="#1d4ed8"/>
<text x="310.4" y="414" transform="rotate(45 310.4 414)" font-family="sans-serif" font-size="10">T1_proxy_trap:response_to_neighbor_aid</text>
<text x="310.4" y="396.0" text-anchor="middle" font-family="sans-serif" font-size="10">0.00</text>
<rect x="351.2" y="400.0" width="50.0" height="0.0" fill="#1d4ed8"/>
<text x="376.2" y="414" transform="rotate(45 376.2 414)" font-family="sans-serif" font-size="10">T2_sag_ambiguity_trap:self_consequence</text>
<text x="376.2" y="396.0" text-anchor="middle" font-family="sans-serif" font-size="10">0.00</text>
<rect x="417.1" y="400.0" width="50.0" height="0.0" fill="#1d4ed8"/>
<text x="442.1" y="414" transform="rotate(45 442.1 414)" font-family="sans-serif" font-size="10">T2_sag_ambiguity_trap:neighbor_consequence</text>
<text x="442.1" y="396.0" text-anchor="middle" font-family="sans-serif" font-size="10">0.00</text>
<rect x="482.9" y="400.0" width="50.0" height="0.0" fill="#1d4ed8"/>
<text x="507.9" y="414" transform="rotate(45 507.9 414)" font-family="sans-serif" font-size="10">T2_sag_ambiguity_trap:local_global_neighbor</text>
<text x="507.9" y="396.0" text-anchor="middle" font-family="sans-serif" font-size="10">0.00</text>
<rect x="548.7" y="400.0" width="50.0" height="0.0" fill="#1d4ed8"/>
<text x="573.7" y="414" transform="rotate(45 573.7 414)" font-family="sans-serif" font-size="10">T2_sag_ambiguity_trap:response_to_neighbor_aid</text>
<text x="573.7" y="396.0" text-anchor="middle" font-family="sans-serif" font-size="10">0.00</text>
<rect x="614.6" y="400.0" width="50.0" height="0.0" fill="#1d4ed8"/>
<text x="639.6" y="414" transform="rotate(45 639.6 414)" font-family="sans-serif" font-size="10">T3_monoculture_trap:self_consequence</text>
<text x="639.6" y="396.0" text-anchor="middle" font-family="sans-serif" font-size="10">0.00</text>
<rect x="680.4" y="400.0" width="50.0" height="0.0" fill="#1d4ed8"/>
<text x="705.4" y="414" transform="rotate(45 705.4 414)" font-family="sans-serif" font-size="10">T3_monoculture_trap:neighbor_consequence</text>
<text x="705.4" y="396.0" text-anchor="middle" font-family="sans-serif" font-size="10">0.00</text>
<rect x="746.2" y="400.0" width="50.0" height="0.0" fill="#1d4ed8"/>
<text x="771.2" y="414" transform="rotate(45 771.2 414)" font-family="sans-serif" font-size="10">T3_monoculture_trap:local_global_neighbor</text>
<text x="771.2" y="396.0" text-anchor="middle" font-family="sans-serif" font-size="10">0.00</text>
<rect x="812.1" y="400.0" width="50.0" height="0.0" fill="#1d4ed8"/>
<text x="837.1" y="414" transform="rotate(45 837.1 414)" font-family="sans-serif" font-size="10">T3_monoculture_trap:response_to_neighbor_aid</text>
<text x="837.1" y="396.0" text-anchor="middle" font-family="sans-serif" font-size="10">0.00</text>
</svg>
