<svg xmlns="http://www.w3.org/2000/svg" width="900" height="520" viewBox="0 0 900 520">
<rect width="100%" height="100%" fill="white"/>
<text x="450.0" y="30" text-anchor="middle" font-family="sans-serif" font-size="18">Trivial Policy Survival: T2_sag_ambiguity_trap</text>
<line x1="80" y1="400" x2="870" y2="400" stroke="#111"/>
<line x1="80" y1="60" x2="80" y2="400" stroke="#111"/>
<text x="18" y="260.0" transform="rotate(-90 18 260.0)" font-family="sans-serif" font-size="12">permanence</text>
<rect x="88.6" y="400.0" width="54.6" height="0.0" fill="#1d4ed8"/>
<text x="115.9" y="414" transform="rotate(45 115.9 414)" font-family="sans-serif" font-size="10">feature_proxy</text>
<text x="115.9" y="396.0" text-anchor="middle" font-family="sans-serif" font-size="10">0.00</text>
<rect x="160.4" y="400.0" width="54.6" height="0.0" fill="#1d4ed8"/>
<text x="187.7" y="414" transform="rotate(45 187.7 414)" font-family="sans-serif" font-size="10">always_cut_sagging</text>
<text x="187.7" y="396.0" text-anchor="middle" font-family="sans-serif" font-size="10">0.00</text>
<rect x="232.3" y="400.0" width="54.6" height="0.0" fill="#1d4ed8"/>
<text x="259.5" y="414" transform="rotate(45 259.5 414)" font-family="sans-serif" font-size="10">always_aid_sagging</text>
<text x="259.5" y="396.0" text-anchor="middle" font-family="sans-serif" font-size="10">0.00</text>
<rect x="304.1" y="400.0" width="54.6" height="0.0" fill="#1d4ed8"/>
<text x="331.4" y="414" transform="rotate(45 331.4 414)" font-family="sans-serif" font-size="10">monoculture_optimizer</text>
<text x="331.4" y="396.0" text-anchor="middle" font-family="sans-serif" font-size="10">0.00</text>
<rect x="375.9" y="400.0" width="54.6" height="0.0" fill="#1d4ed8"/>
<text x="403.2" y="414" transform="rotate(45 403.2 414)" font-family="sans-serif" font-size="10">self_consequence</text>
<text x="403.2" y="396.0" text-anchor="middle" font-family="sans-serif" font-size="10">0.00</text>
<rect x="447.7" y="400.0" width="54.6" height="0.0" fill="#1d4ed8"/>
<text x="475.0" y="414" transform="rotate(45 475.0 414)" font-family="sans-serif" font-size="10">neighbor_consequence</text>
<text x="475.0" y="396.0" text-anchor="middle" font-family="sans-serif" font-size="10">0.00</text>
<rect x="519.5" y="400.0" width="54.6" height="0.0" fill="#1d4ed8"/>
<text x="546.8" y="414" transform="rotate(45 546.8 414)" font-family="sans-serif" font-size="10">local_global_neighbor</text>
<text x="546.8" y="396.0" text-anchor="middle" font-family="sans-serif" font-size="10">0.00</text>
<rect x="591.3" y="400.0" width="54.6" height="0.0" fill="#1d4ed8"/>
<text x="618.6" y="414" transform="rotate(45 618.6 414)" font-family="sans-serif" font-size="10">response_to_neighbor_aid</text>
<text x="618.6" y="396.0" text-anchor="middle" font-family="sans-serif" font-size="10">0.00</text>
<rect x="663.2" y="400.0" width="54.6" height="0.0" fill="#1d4ed8"/>
<text x="690.5" y="414" transform="rotate(45 690.5 414)" font-family="sans-serif" font-size="10">diversity_all_types</text>
<text x="690.5" y="396.0" text-anchor="middle" font-family="sans-serif" font-size="10">0.00</text>
<rect x="735.0" y="400.0" width="54.6" height="0.0" fill="#1d4ed8"/>
<text x="762.3" y="414" transform="rotate(45 762.3 414)" font-family="sans-serif" font-size="10">diversity_non_adversarial_only</text>
<text x="762.3" y="396.0" text-anchor="middle" font-family="sans-serif" font-size="10">0.00</text>
<rect x="806.8" y="400.0" width="54.6" height="0.0" fill="#1d4ed8"/>
<text x="834.1" y="414" transform="rotate(45 834.1 414)" font-family="sans-serif" font-size="10">no_diversity_floor</text>
<text x="834.1" y="396.0" text-anchor="middle" font-family="sans-serif" font-size="10">0.00</text>
</svg>
