<svg xmlns="http://www.w3.org/2000/svg" width="620" height="430" viewBox="0 0 620 430">
<rect width="100%" height="100%" fill="white"/>
<text x="235" y="28" text-anchor="middle" font-family="sans-serif" font-size="18">Fraction remaining partial</text>
<text x="116.0" y="55" text-anchor="middle" font-family="sans-serif" font-size="11">b=0.0</text>
<text x="158.0" y="55" text-anchor="middle" font-family="sans-serif" font-size="11">b=0.02</text>
<text x="200.0" y="55" text-anchor="middle" font-family="sans-serif" font-size="11">b=0.04</text>
<text x="242.0" y="55" text-anchor="middle" font-family="sans-serif" font-size="11">b=0.06</text>
<text x="284.0" y="55" text-anchor="middle" font-family="sans-serif" font-size="11">b=0.08</text>
<text x="326.0" y="55" text-anchor="middle" font-family="sans-serif" font-size="11">b=0.1</text>
<text x="368.0" y="55" text-anchor="middle" font-family="sans-serif" font-size="11">b=0.2</text>
<text x="410.0" y="55" text-anchor="middle" font-family="sans-serif" font-size="11">b=0.4</text>
<text x="452.0" y="55" text-anchor="middle" font-family="sans-serif" font-size="11">b=0.8</text>
<text x="72" y="90.0" text-anchor="end" font-family="sans-serif" font-size="11">p=0.0</text>
<rect x="95" y="65" width="38" height="38" fill="#365e46"/>
<text x="114.0" y="90.0" text-anchor="middle" font-family="sans-serif" font-size="12" fill="white">0.72</text>
<rect x="137" y="65" width="38" height="38" fill="#ae211f"/>
<text x="156.0" y="90.0" text-anchor="middle" font-family="sans-serif" font-size="12" fill="white">0.06</text>
<rect x="179" y="65" width="38" height="38" fill="#b91c1c"/>
<text x="198.0" y="90.0" text-anchor="middle" font-family="sans-serif" font-size="12" fill="white">0.00</text>
<rect x="221" y="65" width="38" height="38" fill="#b91c1c"/>
<text x="240.0" y="90.0" text-anchor="middle" font-family="sans-serif" font-size="12" fill="white">0.00</text>
<rect x="263" y="65" width="38" height="38" fill="#b91c1c"/>
<text x="282.0" y="90.0" text-anchor="middle" font-family="sans-serif" font-size="12" fill="white">0.00</text>
<rect x="305" y="65" width="38" height="38" fill="#b91c1c"/>
<text x="324.0" y="90.0" text-anchor="middle" font-family="sans-serif" font-size="12" fill="white">0.00</text>
<rect x="347" y="65" width="38" height="38" fill="#b91c1c"/>
<text x="366.0" y="90.0" text-anchor="middle" font-family="sans-serif" font-size="12" fill="white">0.00</text>
<rect x="389" y="65" width="38" height="38" fill="#b91c1c"/>
<text x="408.0" y="90.0" text-anchor="middle" font-family="sans-serif" font-size="12" fill="white">0.00</text>
<rect x="431" y="65" width="38" height="38" fill="#b91c1c"/>
<text x="450.0" y="90.0" text-anchor="middle" font-family="sans-serif" font-size="12" fill="white">0.00</text>
<text x="72" y="132.0" text-anchor="end" font-family="sans-serif" font-size="11">p=0.1</text>
<rect x="95" y="107" width="38" height="38" fill="#166e51"/>
<text x="114.0" y="132.0" text-anchor="middle" font-family="sans-serif" font-size="12" fill="white">0.90</text>
<rect x="137" y="107" width="38" height="38" fill="#7f392e"/>
<text x="156.0" y="132.0" text-anchor="middle" font-family="sans-serif" font-size="12" fill="white">0.32</text>
<rect x="179" y="107" width="38" height="38" fill="#b91c1c"/>
<text x="198.0" y="132.0" text-anchor="middle" font-family="sans-serif" font-size="12" fill="white">0.00</text>
<rect x="221" y="107" width="38" height="38" fill="#b91c1c"/>
<text x="240.0" y="132.0" text-anchor="middle" font-family="sans-serif" font-size="12" fill="white">0.00</text>
<rect x="263" y="107" width="38" height="38" fill="#b91c1c"/>
<text x="282.0" y="132.0" text-anchor="middle" font-family="sans-serif" font-size="12" fill="white">0.00</text>
<rect x="305" y="107" width="38" height="38" fill="#b91c1c"/>
<text x="324.0" y="132.0" text-anchor="middle" font-family="sans-serif" font-size="12" fill="white">0.00</text>
<rect x="347" y="107" width="38" height="38" fill="#b91c1c"/>
<text x="366.0" y="132.0" text-anchor="middle" font-family="sans-serif" font-size="12" fill="white">0.00</text>
<rect x="389" y="107" width="38" height="38" fill="#b91c1c"/>
<text x="408.0" y="132.0" text-anchor="middle" font-family="sans-serif" font-size="12" fill="white">0.00</text>
<rect x="431" y="107" width="38" height="38" fill="#b91c1c"/>
<text x="450.0" y="132.0" text-anchor="middle" font-family="sans-serif" font-size="12" fill="white">0.00</text>
<text x="72" y="174.0" text-anchor="end" font-family="sans-serif" font-size="11">p=0.2</text>
<rect x="95" y="149" width="38" height="38" fill="#2f6148"/>
<text x="114.0" y="174.0" text-anchor="middle" font-family="sans-serif" font-size="12" fill="white">0.76</text>
<rect x="137" y="149" width="38" height="38" fill="#982c26"/>
<text x="156.0" y="174.0" text-anchor="middle" font-family="sans-serif" font-size="12" fill="white">0.18</text>
<rect x="179" y="149" width="38" height="38" fill="#b91c1c"/>
<text x="198.0" y="174.0" text-anchor="middle" font-family="sans-serif" font-size="12" fill="white">0.00</text>
<rect x="221" y="149" width="38" height="38" fill="#b91c1c"/>
<text x="240.0" y="174.0" text-anchor="middle" font-family="sans-serif" font-size="12" fill="white">0.00</text>
<rect x="263" y="149" width="38" height="38" fill="#b91c1c"/>
<text x="282.0" y="174.0" text-anchor="middle" font-family="sans-serif" font-size="12" fill="white">0.00</text>
<rect x="305" y="149" width="38" height="38" fill="#b91c1c"/>
<text x="324.0" y="174.0" text-anchor="middle" font-family="sans-serif" font-size="12" fill="white">0.00</text>
<rect x="347" y="149" width="38" height="38" fill="#b91c1c"/>
<text x="366.0" y="174.0" text-anchor="middle" font-family="sans-serif" font-size="12" fill="white">0.00</text>
<rect x="389" y="149" width="38" height="38" fill="#b91c1c"/>
<text x="408.0" y="174.0" text-anchor="middle" font-family="sans-serif" font-size="12" fill="white">0.00</text>
<rect x="431" y="149" width="38" height="38" fill="#b91c1c"/>
<text x="450.0" y="174.0" text-anchor="middle" font-family="sans-serif" font-size="12" fill="white">0.00</text>
<text x="72" y="216.0" text-anchor="end" font-family="sans-serif" font-size="11">p=0.4</text>
<rect x="95" y="191" width="38" height="38" fill="#166e51"/>
<text x="114.0" y="216.0" text-anchor="middle" font-family="sans-serif" font-size="12" fill="white">0.90</text>
<rect x="137" y="191" width="38" height="38" fill="#9c2a25"/>
<text x="156.0" y="216.0" text-anchor="middle" font-family="sans-serif" font-size="12" fill="white">0.16</text>
<rect x="179" y="191" width="38" height="38" fill="#b91c1c"/>
<text x="198.0" y="216.0" text-anchor="middle" font-family="sans-serif" font-size="12" fill="white">0.00</text>
<rect x="221" y="191" width="38" height="38" fill="#b91c1c"/>
<text x="240.0" y="216.0" text-anchor="middle" font-family="sans-serif" font-size="12" fill="white">0.00</text>
<rect x="263" y="191" width="38" height="38" fill="#b91c1c"/>
<text x="282.0" y="216.0" text-anchor="middle" font-family="sans-serif" font-size="12" fill="white">0.00</text>
<rect x="305" y="191" width="38" height="38" fill="#b91c1c"/>
<text x="324.0" y="216.0" text-anchor="middle" font-family="sans-serif" font-size="12" fill="white">0.00</text>
<rect x="347" y="191" width="38" height="38" fill="#b91c1c"/>
<text x="366.0" y="216.0" text-anchor="middle" font-family="sans-serif" font-size="12" fill="white">0.00</text>
<rect x="389" y="191" width="38" height="38" fill="#b91c1c"/>
<text x="408.0" y="216.0" text-anchor="middle" font-family="sans-serif" font-size="12" fill="white">0.00</text>
<rect x="431" y="191" width="38" height="38" fill="#b91c1c"/>
<text x="450.0" y="216.0" text-anchor="middle" font-family="sans-serif" font-size="12" fill="white">0.00</text>
<text x="72" y="258.0" text-anchor="end" font-family="sans-serif" font-size="11">p=0.8</text>
<rect x="95" y="233" width="38" height="38" fill="#196c4f"/>
<text x="114.0" y="258.0" text-anchor="middle" font-family="sans-serif" font-size="12" fill="white">0.88</text>
<rect x="137" y="233" width="38" height="38" fill="#982c26"/>
<text x="156.0" y="258.0" text-anchor="middle" font-family="sans-serif" font-size="12" fill="white">0.18</text>
<rect x="179" y="233" width="38" height="38" fill="#b91c1c"/>
<text x="198.0" y="258.0" text-anchor="middle" font-family="sans-serif" font-size="12" fill="white">0.00</text>
<rect x="221" y="233" width="38" height="38" fill="#b91c1c"/>
<text x="240.0" y="258.0" text-anchor="middle" font-family="sans-serif" font-size="12" fill="white">0.00</text>
<rect x="263" y="233" width="38" height="38" fill="#b91c1c"/>
<text x="282.0" y="258.0" text-anchor="middle" font-family="sans-serif" font-size="12" fill="white">0.00</text>
<rect x="305" y="233" width="38" height="38" fill="#b91c1c"/>
<text x="324.0" y="258.0" text-anchor="middle" font-family="sans-serif" font-size="12" fill="white">0.00</text>
<rect x="347" y="233" width="38" height="38" fill="#b91c1c"/>
<text x="366.0" y="258.0" text-anchor="middle" font-family="sans-serif" font-size="12" fill="white">0.00</text>
<rect x="389" y="233" width="38" height="38" fill="#b91c1c"/>
<text x="408.0" y="258.0" text-anchor="middle" font-family="sans-serif" font-size="12" fill="white">0.00</text>
<rect x="431" y="233" width="38" height="38" fill="#b91c1c"/>
<text x="450.0" y="258.0" text-anchor="middle" font-family="sans-serif" font-size="12" fill="white">0.00</text>
</svg>