<svg xmlns="http://www.w3.org/2000/svg" width="980" height="560" viewBox="0 0 980 560">
<rect width="100%" height="100%" fill="white"/>
<text x="490.0" y="30" text-anchor="middle" font-family="sans-serif" font-size="18">W2 Capture by Policy</text>
<line x1="90" y1="400.0" x2="950" y2="400.0" stroke="#111"/>
<line x1="90" y1="60" x2="90" y2="400" stroke="#111"/>
<text x="18" y="280.0" transform="rotate(-90 18 280.0)" font-family="sans-serif" font-size="12">capture index</text>
<rect x="99.4" y="184.2" width="59.4" height="215.8" fill="#047857"/>
<text x="129.1" y="414" transform="rotate(45 129.1 414)" font-family="sans-serif" font-size="10">feature_proxy</text>
<text x="129.1" y="180.2" text-anchor="middle" font-family="sans-serif" font-size="10">0.63</text>
<rect x="177.6" y="158.5" width="59.4" height="241.5" fill="#047857"/>
<text x="207.3" y="414" transform="rotate(45 207.3 414)" font-family="sans-serif" font-size="10">consequence_neighbor</text>
<text x="207.3" y="154.5" text-anchor="middle" font-family="sans-serif" font-size="10">0.71</text>
<rect x="255.7" y="172.8" width="59.4" height="227.2" fill="#047857"/>
<text x="285.5" y="414" transform="rotate(45 285.5 414)" font-family="sans-serif" font-size="10">response_to_aid</text>
<text x="285.5" y="168.8" text-anchor="middle" font-family="sans-serif" font-size="10">0.67</text>
<rect x="333.9" y="215.2" width="59.4" height="184.8" fill="#047857"/>
<text x="363.6" y="414" transform="rotate(45 363.6 414)" font-family="sans-serif" font-size="10">action_channel_containment</text>
<text x="363.6" y="211.2" text-anchor="middle" font-family="sans-serif" font-size="10">0.54</text>
<rect x="412.1" y="215.7" width="59.4" height="184.3" fill="#047857"/>
<text x="441.8" y="414" transform="rotate(45 441.8 414)" font-family="sans-serif" font-size="10">consequence_plus_diversity</text>
<text x="441.8" y="211.7" text-anchor="middle" font-family="sans-serif" font-size="10">0.54</text>
<rect x="490.3" y="217.5" width="59.4" height="182.5" fill="#047857"/>
<text x="520.0" y="414" transform="rotate(45 520.0 414)" font-family="sans-serif" font-size="10">consequence_plus_diversity</text>
<text x="520.0" y="213.5" text-anchor="middle" font-family="sans-serif" font-size="10">0.54</text>
<rect x="568.5" y="207.0" width="59.4" height="193.0" fill="#047857"/>
<text x="598.2" y="414" transform="rotate(45 598.2 414)" font-family="sans-serif" font-size="10">consequence_plus_diversity</text>
<text x="598.2" y="203.0" text-anchor="middle" font-family="sans-serif" font-size="10">0.57</text>
<rect x="646.7" y="184.7" width="59.4" height="215.3" fill="#047857"/>
<text x="676.4" y="414" transform="rotate(45 676.4 414)" font-family="sans-serif" font-size="10">consequence_plus_diversity</text>
<text x="676.4" y="180.7" text-anchor="middle" font-family="sans-serif" font-size="10">0.63</text>
<rect x="724.8" y="135.8" width="59.4" height="264.2" fill="#047857"/>
<text x="754.5" y="414" transform="rotate(45 754.5 414)" font-family="sans-serif" font-size="10">consequence_plus_diversity</text>
<text x="754.5" y="131.8" text-anchor="middle" font-family="sans-serif" font-size="10">0.78</text>
<rect x="803.0" y="184.2" width="59.4" height="215.8" fill="#047857"/>
<text x="832.7" y="414" transform="rotate(45 832.7 414)" font-family="sans-serif" font-size="10">action_channel_containment</text>
<text x="832.7" y="180.2" text-anchor="middle" font-family="sans-serif" font-size="10">0.63</text>
<rect x="881.2" y="215.6" width="59.4" height="184.4" fill="#047857"/>
<text x="910.9" y="414" transform="rotate(45 910.9 414)" font-family="sans-serif" font-size="10">action_channel_containment</text>
<text x="910.9" y="211.6" text-anchor="middle" font-family="sans-serif" font-size="10">0.54</text>
</svg>
