<svg xmlns="http://www.w3.org/2000/svg" width="920" height="480" viewBox="0 0 920 480">
<rect width="100%" height="100%" fill="white"/>
<text x="460" y="28" text-anchor="middle" font-family="sans-serif" font-size="18">Admissible set fraction vs frame width</text>
<polyline points="60.0,416.6 260.0,400.7 460.0,362.0 660.0,301.6 860.0,228.5" fill="none" stroke="#047857" stroke-width="3"/>
<circle cx="60.0" cy="416.6" r="3" fill="#047857"/>
<circle cx="260.0" cy="400.7" r="3" fill="#047857"/>
<circle cx="460.0" cy="362.0" r="3" fill="#047857"/>
<circle cx="660.0" cy="301.6" r="3" fill="#047857"/>
<circle cx="860.0" cy="228.5" r="3" fill="#047857"/>
<polyline points="60.0,420.0 260.0,418.1 460.0,400.7 660.0,354.3 860.0,284.5" fill="none" stroke="#1d4ed8" stroke-width="3"/>
<circle cx="60.0" cy="420.0" r="3" fill="#1d4ed8"/>
<circle cx="260.0" cy="418.1" r="3" fill="#1d4ed8"/>
<circle cx="460.0" cy="400.7" r="3" fill="#1d4ed8"/>
<circle cx="660.0" cy="354.3" r="3" fill="#1d4ed8"/>
<circle cx="860.0" cy="284.5" r="3" fill="#1d4ed8"/>
<polyline points="60.0,420.0 260.0,419.8 460.0,415.6 660.0,391.4 860.0,338.7" fill="none" stroke="#7c3aed" stroke-width="3"/>
<circle cx="60.0" cy="420.0" r="3" fill="#7c3aed"/>
<circle cx="260.0" cy="419.8" r="3" fill="#7c3aed"/>
<circle cx="460.0" cy="415.6" r="3" fill="#7c3aed"/>
<circle cx="660.0" cy="391.4" r="3" fill="#7c3aed"/>
<circle cx="860.0" cy="338.7" r="3" fill="#7c3aed"/>
<polyline points="60.0,420.0 260.0,420.0 460.0,419.7 660.0,410.4 860.0,373.9" fill="none" stroke="#b45309" stroke-width="3"/>
<circle cx="60.0" cy="420.0" r="3" fill="#b45309"/>
<circle cx="260.0" cy="420.0" r="3" fill="#b45309"/>
<circle cx="460.0" cy="419.7" r="3" fill="#b45309"/>
<circle cx="660.0" cy="410.4" r="3" fill="#b45309"/>
<circle cx="860.0" cy="373.9" r="3" fill="#b45309"/>
<polyline points="60.0,420.0 260.0,420.0 460.0,420.0 660.0,416.8 860.0,390.5" fill="none" stroke="#b91c1c" stroke-width="3"/>
<circle cx="60.0" cy="420.0" r="3" fill="#b91c1c"/>
<circle cx="260.0" cy="420.0" r="3" fill="#b91c1c"/>
<circle cx="460.0" cy="420.0" r="3" fill="#b91c1c"/>
<circle cx="660.0" cy="416.8" r="3" fill="#b91c1c"/>
<circle cx="860.0" cy="390.5" r="3" fill="#b91c1c"/>
<polyline points="60.0,418.8 260.0,396.9 460.0,346.7 660.0,269.1 860.0,166.5" fill="none" stroke="#047857" stroke-width="3" stroke-dasharray="6 4"/>
<circle cx="60.0" cy="418.8" r="3" fill="#047857"/>
<circle cx="260.0" cy="396.9" r="3" fill="#047857"/>
<circle cx="460.0" cy="346.7" r="3" fill="#047857"/>
<circle cx="660.0" cy="269.1" r="3" fill="#047857"/>
<circle cx="860.0" cy="166.5" r="3" fill="#047857"/>
<polyline points="60.0,420.0 260.0,407.9 460.0,368.0 660.0,300.6 860.0,206.6" fill="none" stroke="#1d4ed8" stroke-width="3" stroke-dasharray="6 4"/>
<circle cx="60.0" cy="420.0" r="3" fill="#1d4ed8"/>
<circle cx="260.0" cy="407.9" r="3" fill="#1d4ed8"/>
<circle cx="460.0" cy="368.0" r="3" fill="#1d4ed8"/>
<circle cx="660.0" cy="300.6" r="3" fill="#1d4ed8"/>
<circle cx="860.0" cy="206.6" r="3" fill="#1d4ed8"/>
<polyline points="60.0,420.0 260.0,414.5 460.0,383.2 660.0,324.4 860.0,238.3" fill="none" stroke="#7c3aed" stroke-width="3" stroke-dasharray="6 4"/>
<circle cx="60.0" cy="420.0" r="3" fill="#7c3aed"/>
<circle cx="260.0" cy="414.5" r="3" fill="#7c3aed"/>
<circle cx="460.0" cy="383.2" r="3" fill="#7c3aed"/>
<circle cx="660.0" cy="324.4" r="3" fill="#7c3aed"/>
<circle cx="860.0" cy="238.3" r="3" fill="#7c3aed"/>
<polyline points="60.0,420.0 260.0,417.1 460.0,390.8 660.0,336.9 860.0,255.7" fill="none" stroke="#b45309" stroke-width="3" stroke-dasharray="6 4"/>
<circle cx="60.0" cy="420.0" r="3" fill="#b45309"/>
<circle cx="260.0" cy="417.1" r="3" fill="#b45309"/>
<circle cx="460.0" cy="390.8" r="3" fill="#b45309"/>
<circle cx="660.0" cy="336.9" r="3" fill="#b45309"/>
<circle cx="860.0" cy="255.7" r="3" fill="#b45309"/>
<polyline points="60.0,420.0 260.0,419.0 460.0,398.4 660.0,350.3 860.0,274.8" fill="none" stroke="#b91c1c" stroke-width="3" stroke-dasharray="6 4"/>
<circle cx="60.0" cy="420.0" r="3" fill="#b91c1c"/>
<circle cx="260.0" cy="419.0" r="3" fill="#b91c1c"/>
<circle cx="460.0" cy="398.4" r="3" fill="#b91c1c"/>
<circle cx="660.0" cy="350.3" r="3" fill="#b91c1c"/>
<circle cx="860.0" cy="274.8" r="3" fill="#b91c1c"/>
<polyline points="60.0,415.5 260.0,391.9 460.0,339.5 660.0,274.7 860.0,200.2" fill="none" stroke="#047857" stroke-width="3" stroke-dasharray="2 4"/>
<circle cx="60.0" cy="415.5" r="3" fill="#047857"/>
<circle cx="260.0" cy="391.9" r="3" fill="#047857"/>
<circle cx="460.0" cy="339.5" r="3" fill="#047857"/>
<circle cx="660.0" cy="274.7" r="3" fill="#047857"/>
<circle cx="860.0" cy="200.2" r="3" fill="#047857"/>
<polyline points="60.0,420.0 260.0,414.7 460.0,384.7 660.0,329.4 860.0,250.7" fill="none" stroke="#1d4ed8" stroke-width="3" stroke-dasharray="2 4"/>
<circle cx="60.0" cy="420.0" r="3" fill="#1d4ed8"/>
<circle cx="260.0" cy="414.7" r="3" fill="#1d4ed8"/>
<circle cx="460.0" cy="384.7" r="3" fill="#1d4ed8"/>
<circle cx="660.0" cy="329.4" r="3" fill="#1d4ed8"/>
<circle cx="860.0" cy="250.7" r="3" fill="#1d4ed8"/>
<polyline points="60.0,420.0 260.0,419.6 460.0,403.6 660.0,359.8 860.0,288.9" fill="none" stroke="#7c3aed" stroke-width="3" stroke-dasharray="2 4"/>
<circle cx="60.0" cy="420.0" r="3" fill="#7c3aed"/>
<circle cx="260.0" cy="419.6" r="3" fill="#7c3aed"/>
<circle cx="460.0" cy="403.6" r="3" fill="#7c3aed"/>
<circle cx="660.0" cy="359.8" r="3" fill="#7c3aed"/>
<circle cx="860.0" cy="288.9" r="3" fill="#7c3aed"/>
<polyline points="60.0,420.0 260.0,420.0 460.0,410.9 660.0,374.9 860.0,311.5" fill="none" stroke="#b45309" stroke-width="3" stroke-dasharray="2 4"/>
<circle cx="60.0" cy="420.0" r="3" fill="#b45309"/>
<circle cx="260.0" cy="420.0" r="3" fill="#b45309"/>
<circle cx="460.0" cy="410.9" r="3" fill="#b45309"/>
<circle cx="660.0" cy="374.9" r="3" fill="#b45309"/>
<circle cx="860.0" cy="311.5" r="3" fill="#b45309"/>
<polyline points="60.0,420.0 260.0,420.0 460.0,413.9 660.0,382.1 860.0,322.8" fill="none" stroke="#b91c1c" stroke-width="3" stroke-dasharray="2 4"/>
<circle cx="60.0" cy="420.0" r="3" fill="#b91c1c"/>
<circle cx="260.0" cy="420.0" r="3" fill="#b91c1c"/>
<circle cx="460.0" cy="413.9" r="3" fill="#b91c1c"/>
<circle cx="660.0" cy="382.1" r="3" fill="#b91c1c"/>
<circle cx="860.0" cy="322.8" r="3" fill="#b91c1c"/>
<line x1="60" y1="420" x2="860" y2="420" stroke="#111"/>
<line x1="60" y1="60" x2="60" y2="420" stroke="#111"/>
<rect x="710" y="55" width="14" height="14" fill="#047857"/>
<text x="730" y="67" font-family="sans-serif" font-size="12">N=2</text>
<rect x="710" y="77" width="14" height="14" fill="#1d4ed8"/>
<text x="730" y="89" font-family="sans-serif" font-size="12">N=4</text>
<rect x="710" y="99" width="14" height="14" fill="#7c3aed"/>
<text x="730" y="111" font-family="sans-serif" font-size="12">N=8</text>
<rect x="710" y="121" width="14" height="14" fill="#b45309"/>
<text x="730" y="133" font-family="sans-serif" font-size="12">N=16</text>
<rect x="710" y="143" width="14" height="14" fill="#b91c1c"/>
<text x="730" y="155" font-family="sans-serif" font-size="12">N=32</text>
<text x="710" y="185" font-family="sans-serif" font-size="12">solid: iid_beta</text>
<text x="710" y="205" font-family="sans-serif" font-size="12">dashed: clustered</text>
<text x="710" y="225" font-family="sans-serif" font-size="12">dotted: cross_cutting</text>
</svg>