<svg xmlns="http://www.w3.org/2000/svg" width="900" height="520" viewBox="0 0 900 520">
<rect width="100%" height="100%" fill="white"/>
<text x="450.0" y="28" text-anchor="middle" font-family="sans-serif" font-size="18">Strategic camouflage calibration gate</text>
<line x1="70" y1="460" x2="870" y2="460" stroke="#111"/>
<line x1="70" y1="50" x2="70" y2="460" stroke="#111"/>
<text x="450.0" y="505" text-anchor="middle" font-family="sans-serif" font-size="12">R</text>
<text x="18" y="260.0" transform="rotate(-90 18 260.0)" font-family="sans-serif" font-size="12">rate / c / scaled corr</text>
<polyline fill="none" stroke="#1d4ed8" stroke-width="2" points="70.0,460.0 89.2,460.0 94.5,460.0 119.3,460.0 152.5,460.0 198.9,460.0 300.2,460.0 469.0,460.0 870.0,460.0"/>
<polyline fill="none" stroke="#b45309" stroke-width="2" points="70.0,59.8 89.2,52.2 94.5,50.3 119.3,50.2 152.5,50.0 198.9,50.0 300.2,50.4 469.0,50.3 870.0,50.3"/>
<polyline fill="none" stroke="#047857" stroke-width="2" points="70.0,446.3 89.2,460.0 94.5,460.0 119.3,460.0 152.5,460.0 198.9,460.0 300.2,460.0 469.0,460.0 870.0,460.0"/>
<rect x="620" y="62" width="12" height="12" fill="#1d4ed8"/>
<text x="638" y="73" font-family="sans-serif" font-size="11">permanence</text>
<rect x="620" y="80" width="12" height="12" fill="#b45309"/>
<text x="638" y="91" font-family="sans-serif" font-size="11">adversary c*</text>
<rect x="620" y="98" width="12" height="12" fill="#047857"/>
<text x="638" y="109" font-family="sans-serif" font-size="11">corr scaled</text>
</svg>
