<svg xmlns="http://www.w3.org/2000/svg" width="720" height="520" viewBox="0 0 720 520">
<rect width="100%" height="100%" fill="white"/>
<text x="360.0" y="30" text-anchor="middle" font-family="sans-serif" font-size="18">Adversary c* at gamma=0.6, kappa=0</text>
<rect x="80.0" y="320.0" width="200.0" height="130.0" fill="rgb(237,238,237)" stroke="white"/>
<text x="180.0" y="389.0" text-anchor="middle" font-family="sans-serif" font-size="11">0.01</text>
<rect x="280.0" y="320.0" width="200.0" height="130.0" fill="rgb(237,238,236)" stroke="white"/>
<text x="380.0" y="389.0" text-anchor="middle" font-family="sans-serif" font-size="11">0.01</text>
<rect x="480.0" y="320.0" width="200.0" height="130.0" fill="rgb(237,238,236)" stroke="white"/>
<text x="580.0" y="389.0" text-anchor="middle" font-family="sans-serif" font-size="11">0.01</text>
<rect x="80.0" y="190.0" width="200.0" height="130.0" fill="rgb(237,238,237)" stroke="white"/>
<text x="180.0" y="259.0" text-anchor="middle" font-family="sans-serif" font-size="11">0.01</text>
<rect x="280.0" y="190.0" width="200.0" height="130.0" fill="rgb(237,238,236)" stroke="white"/>
<text x="380.0" y="259.0" text-anchor="middle" font-family="sans-serif" font-size="11">0.01</text>
<rect x="480.0" y="190.0" width="200.0" height="130.0" fill="rgb(237,238,236)" stroke="white"/>
<text x="580.0" y="259.0" text-anchor="middle" font-family="sans-serif" font-size="11">0.01</text>
<rect x="80.0" y="60.0" width="200.0" height="130.0" fill="rgb(237,238,237)" stroke="white"/>
<text x="180.0" y="129.0" text-anchor="middle" font-family="sans-serif" font-size="11">0.01</text>
<rect x="280.0" y="60.0" width="200.0" height="130.0" fill="rgb(237,238,236)" stroke="white"/>
<text x="380.0" y="129.0" text-anchor="middle" font-family="sans-serif" font-size="11">0.01</text>
<rect x="480.0" y="60.0" width="200.0" height="130.0" fill="rgb(237,238,236)" stroke="white"/>
<text x="580.0" y="129.0" text-anchor="middle" font-family="sans-serif" font-size="11">0.01</text>
<text x="180.0" y="472" text-anchor="middle" font-family="sans-serif" font-size="11">p=0.0</text>
<text x="380.0" y="472" text-anchor="middle" font-family="sans-serif" font-size="11">p=0.25</text>
<text x="580.0" y="472" text-anchor="middle" font-family="sans-serif" font-size="11">p=0.5</text>
<text x="70" y="389.0" text-anchor="end" font-family="sans-serif" font-size="11">C=0.0</text>
<text x="70" y="259.0" text-anchor="end" font-family="sans-serif" font-size="11">C=0.5</text>
<text x="70" y="129.0" text-anchor="end" font-family="sans-serif" font-size="11">C=1.0</text>
</svg>
