<svg xmlns="http://www.w3.org/2000/svg" width="980" height="560" viewBox="0 0 980 560">
<rect width="100%" height="100%" fill="white"/>
<text x="490.0" y="30" text-anchor="middle" font-family="sans-serif" font-size="18">W6 Action Ablation Permanence</text>
<line x1="90" y1="405" x2="950" y2="405" stroke="#111"/>
<line x1="90" y1="60" x2="90" y2="405" stroke="#111"/>
<text x="18" y="280.0" transform="rotate(-90 18 280.0)" font-family="sans-serif" font-size="12">permanence</text>
<rect x="99.4" y="60.0" width="59.4" height="345.0" fill="#7c3aed"/>
<text x="129.1" y="419" transform="rotate(45 129.1 419)" font-family="sans-serif" font-size="10">full</text>
<text x="129.1" y="56.0" text-anchor="middle" font-family="sans-serif" font-size="10">1.00</text>
<rect x="177.6" y="405.0" width="59.4" height="0.0" fill="#7c3aed"/>
<text x="207.3" y="419" transform="rotate(45 207.3 419)" font-family="sans-serif" font-size="10">no_containment</text>
<text x="207.3" y="401.0" text-anchor="middle" font-family="sans-serif" font-size="10">0.00</text>
<rect x="255.7" y="60.0" width="59.4" height="345.0" fill="#7c3aed"/>
<text x="285.5" y="419" transform="rotate(45 285.5 419)" font-family="sans-serif" font-size="10">no_diversity_support</text>
<text x="285.5" y="56.0" text-anchor="middle" font-family="sans-serif" font-size="10">1.00</text>
<rect x="333.9" y="60.0" width="59.4" height="345.0" fill="#7c3aed"/>
<text x="363.6" y="419" transform="rotate(45 363.6 419)" font-family="sans-serif" font-size="10">no_response_to_aid</text>
<text x="363.6" y="56.0" text-anchor="middle" font-family="sans-serif" font-size="10">1.00</text>
<rect x="412.1" y="405.0" width="59.4" height="0.0" fill="#7c3aed"/>
<text x="441.8" y="419" transform="rotate(45 441.8 419)" font-family="sans-serif" font-size="10">no_anti_concentratio</text>
<text x="441.8" y="401.0" text-anchor="middle" font-family="sans-serif" font-size="10">0.00</text>
<rect x="490.3" y="73.8" width="59.4" height="331.2" fill="#7c3aed"/>
<text x="520.0" y="419" transform="rotate(45 520.0 419)" font-family="sans-serif" font-size="10">no_aid_escrow</text>
<text x="520.0" y="69.8" text-anchor="middle" font-family="sans-serif" font-size="10">0.96</text>
<rect x="568.5" y="73.8" width="59.4" height="331.2" fill="#7c3aed"/>
<text x="598.2" y="419" transform="rotate(45 598.2 419)" font-family="sans-serif" font-size="10">no_migration_frictio</text>
<text x="598.2" y="69.8" text-anchor="middle" font-family="sans-serif" font-size="10">0.96</text>
<rect x="646.7" y="60.0" width="59.4" height="345.0" fill="#7c3aed"/>
<text x="676.4" y="419" transform="rotate(45 676.4 419)" font-family="sans-serif" font-size="10">no_replication_throt</text>
<text x="676.4" y="56.0" text-anchor="middle" font-family="sans-serif" font-size="10">1.00</text>
<rect x="724.8" y="60.0" width="59.4" height="345.0" fill="#7c3aed"/>
<text x="754.5" y="419" transform="rotate(45 754.5 419)" font-family="sans-serif" font-size="10">no_neighbor_conseque</text>
<text x="754.5" y="56.0" text-anchor="middle" font-family="sans-serif" font-size="10">1.00</text>
<rect x="803.0" y="60.0" width="59.4" height="345.0" fill="#7c3aed"/>
<text x="832.7" y="419" transform="rotate(45 832.7 419)" font-family="sans-serif" font-size="10">feature_proxy_only</text>
<text x="832.7" y="56.0" text-anchor="middle" font-family="sans-serif" font-size="10">1.00</text>
<rect x="881.2" y="60.0" width="59.4" height="345.0" fill="#7c3aed"/>
<text x="910.9" y="419" transform="rotate(45 910.9 419)" font-family="sans-serif" font-size="10">random_allocation</text>
<text x="910.9" y="56.0" text-anchor="middle" font-family="sans-serif" font-size="10">1.00</text>
</svg>
