<svg xmlns="http://www.w3.org/2000/svg" width="980" height="460" viewBox="0 0 980 460">
<rect width="100%" height="100%" fill="white"/>
<text x="490" y="28" text-anchor="middle" font-family="sans-serif" font-size="18">Held-out Sugarscape population survival</text>
<rect x="276.2" y="60" width="432.4" height="340" fill="#fee2e2" opacity="0.55"/>
<polygon points="60.0,70.7 64.8,70.7 69.6,70.7 74.4,70.7 79.2,70.7 84.0,68.0 88.8,68.0 93.6,68.0 98.4,68.0 103.2,68.0 108.0,68.0 112.8,68.0 117.7,68.0 122.5,68.0 127.3,68.0 132.1,65.4 136.9,65.4 141.7,65.4 146.5,65.4 151.3,65.4 156.1,65.4 160.9,65.4 165.7,65.4 170.5,65.4 175.3,65.4 180.1,62.7 184.9,62.7 189.7,65.4 194.5,65.4 199.3,68.0 204.1,68.0 208.9,68.7 213.7,71.4 218.5,73.4 223.4,76.1 228.2,76.1 233.0,81.4 237.8,84.1 242.6,89.4 247.4,92.1 252.2,95.5 257.0,97.5 261.8,100.2 266.6,106.2 271.4,110.9 276.2,116.9 281.0,121.6 285.8,129.6 290.6,135.0 295.4,140.3 300.2,146.3 305.0,151.7 309.8,157.7 314.6,167.8 319.4,175.8 324.2,185.8 329.1,199.2 333.9,209.9 338.7,221.3 343.5,231.3 348.3,244.7 353.1,253.4 357.9,261.5 362.7,272.2 367.5,279.5 372.3,290.2 377.1,298.3 381.9,303.6 386.7,311.7 391.5,317.0 396.3,325.0 401.1,327.7 405.9,333.1 410.7,336.4 415.5,342.4 420.3,346.5 425.1,351.8 429.9,354.5 434.7,359.8 439.6,362.5 444.4,367.9 449.2,367.9 454.0,370.6 458.8,373.2 463.6,376.6 468.4,378.6 473.2,381.3 478.0,383.9 482.8,386.6 487.6,389.3 492.4,389.3 497.2,392.0 502.0,392.0 506.8,392.6 511.6,394.6 516.4,394.6 521.2,394.6 526.0,394.6 530.8,394.6 535.6,394.6 540.4,395.3 545.3,397.3 550.1,397.3 554.9,397.3 559.7,397.3 564.5,397.3 569.3,397.3 574.1,397.3 578.9,397.3 583.7,397.3 588.5,397.3 593.3,397.3 598.1,397.3 602.9,397.3 607.7,397.3 612.5,397.3 617.3,397.3 622.1,397.3 626.9,398.0 631.7,398.0 636.5,400.0 641.3,400.0 646.1,400.0 650.9,400.0 655.8,400.0 660.6,400.0 665.4,400.0 670.2,400.0 675.0,400.0 679.8,400.0 684.6,400.0 689.4,400.0 694.2,400.0 699.0,400.0 703.8,400.0 708.6,400.0 713.4,400.0 718.2,400.0 723.0,400.0 727.8,400.0 732.6,400.0 737.4,400.0 742.2,400.0 747.0,400.0 751.8,400.0 756.6,400.0 761.5,400.0 766.3,400.0 771.1,400.0 775.9,400.0 780.7,400.0 785.5,400.0 790.3,400.0 795.1,400.0 799.9,400.0 804.7,400.0 809.5,400.0 814.3,400.0 819.1,400.0 823.9,400.0 828.7,400.0 833.5,400.0 838.3,400.0 843.1,400.0 847.9,400.0 852.7,400.0 857.5,400.0 862.3,400.0 867.2,400.0 872.0,400.0 876.8,400.0 881.6,400.0 886.4,400.0 891.2,400.0 896.0,400.0 900.8,400.0 905.6,400.0 910.4,400.0 915.2,400.0 920.0,400.0 920.0,400.0 915.2,400.0 910.4,400.0 905.6,400.0 900.8,400.0 896.0,400.0 891.2,400.0 886.4,400.0 881.6,400.0 876.8,400.0 872.0,400.0 867.2,400.0 862.3,400.0 857.5,400.0 852.7,400.0 847.9,400.0 843.1,400.0 838.3,400.0 833.5,400.0 828.7,400.0 823.9,400.0 819.1,400.0 814.3,400.0 809.5,400.0 804.7,400.0 799.9,400.0 795.1,400.0 790.3,400.0 785.5,400.0 780.7,400.0 775.9,400.0 771.1,400.0 766.3,400.0 761.5,400.0 756.6,400.0 751.8,400.0 747.0,400.0 742.2,400.0 737.4,400.0 732.6,400.0 727.8,400.0 723.0,400.0 718.2,400.0 713.4,400.0 708.6,400.0 703.8,400.0 699.0,400.0 694.2,400.0 689.4,400.0 684.6,400.0 679.8,400.0 675.0,400.0 670.2,400.0 665.4,400.0 660.6,400.0 655.8,400.0 650.9,400.0 646.1,400.0 641.3,400.0 636.5,400.0 631.7,400.0 626.9,400.0 622.1,400.0 617.3,400.0 612.5,400.0 607.7,400.0 602.9,400.0 598.1,400.0 593.3,400.0 588.5,400.0 583.7,400.0 578.9,400.0 574.1,400.0 569.3,400.0 564.5,400.0 559.7,400.0 554.9,400.0 550.1,400.0 545.3,400.0 540.4,400.0 535.6,400.0 530.8,400.0 526.0,399.3 521.2,399.3 516.4,397.3 511.6,397.3 506.8,397.3 502.0,397.3 497.2,397.3 492.4,397.3 487.6,394.6 482.8,392.0 478.0,392.0 473.2,391.3 468.4,389.3 463.6,388.6 458.8,385.9 454.0,383.9 449.2,381.3 444.4,378.6 439.6,373.2 434.7,367.9 429.9,365.2 425.1,359.8 420.3,354.5 415.5,351.8 410.7,348.5 405.9,343.8 401.1,340.4 396.3,333.1 391.5,327.7 386.7,322.4 381.9,316.3 377.1,309.0 372.3,303.0 367.5,292.9 362.7,287.6 357.9,274.2 353.1,265.5 348.3,257.4 343.5,246.7 338.7,233.3 333.9,223.3 329.1,211.9 324.2,203.9 319.4,195.9 314.6,187.2 309.8,183.1 305.0,171.8 300.2,166.4 295.4,161.1 290.6,150.4 285.8,147.7 281.0,137.6 276.2,131.6 271.4,126.3 266.6,122.9 261.8,112.9 257.0,107.5 252.2,105.5 247.4,102.2 242.6,96.8 237.8,92.1 233.0,89.4 228.2,86.8 223.4,88.1 218.5,83.4 213.7,81.4 208.9,76.1 204.1,73.4 199.3,72.7 194.5,70.7 189.7,70.0 184.9,68.0 180.1,68.0 175.3,68.0 170.5,68.0 165.7,68.0 160.9,68.0 156.1,68.0 151.3,68.0 146.5,68.0 141.7,68.0 136.9,68.0 132.1,68.0 127.3,68.0 122.5,68.0 117.7,68.0 112.8,68.0 108.0,68.0 103.2,68.0 98.4,68.0 93.6,68.0 88.8,68.0 84.0,68.0 79.2,70.7 74.4,70.7 69.6,70.7 64.8,70.7 60.0,70.7" fill="#6b7280" opacity="0.14"/>
<polyline points="60.0,70.7 64.8,70.7 69.6,70.7 74.4,70.7 79.2,70.7 84.0,68.0 88.8,68.0 93.6,68.0 98.4,68.0 103.2,68.0 108.0,68.0 112.8,68.0 117.7,68.0 122.5,68.0 127.3,68.0 132.1,65.4 136.9,65.4 141.7,65.4 146.5,65.4 151.3,65.4 156.1,65.4 160.9,65.4 165.7,65.4 170.5,65.4 175.3,66.7 180.1,65.4 184.9,65.4 189.7,68.0 194.5,68.0 199.3,70.7 204.1,70.7 208.9,73.4 213.7,76.1 218.5,78.7 223.4,81.4 228.2,81.4 233.0,84.1 237.8,86.8 242.6,90.8 247.4,96.1 252.2,100.2 257.0,102.8 261.8,105.5 266.6,113.5 271.4,117.6 276.2,122.9 281.0,129.6 285.8,133.6 290.6,140.3 295.4,148.3 300.2,156.4 305.0,161.7 309.8,167.1 314.6,176.5 319.4,184.5 324.2,193.9 329.1,204.6 333.9,213.9 338.7,224.6 343.5,238.0 348.3,247.4 353.1,258.1 357.9,270.2 362.7,279.5 367.5,287.6 372.3,295.6 377.1,302.3 381.9,310.3 386.7,315.7 391.5,321.0 396.3,330.4 401.1,333.1 405.9,338.4 410.7,343.8 415.5,346.5 420.3,351.8 425.1,355.8 429.9,359.8 434.7,363.9 439.6,366.5 444.4,370.6 449.2,373.2 454.0,377.2 458.8,378.6 463.6,381.3 468.4,383.9 473.2,385.3 478.0,388.0 482.8,389.3 487.6,390.6 492.4,394.6 497.2,394.6 502.0,394.6 506.8,396.0 511.6,397.3 516.4,397.3 521.2,397.3 526.0,397.3 530.8,397.3 535.6,397.3 540.4,397.3 545.3,397.3 550.1,397.3 554.9,397.3 559.7,397.3 564.5,397.3 569.3,400.0 574.1,400.0 578.9,400.0 583.7,400.0 588.5,400.0 593.3,400.0 598.1,400.0 602.9,400.0 607.7,400.0 612.5,400.0 617.3,400.0 622.1,400.0 626.9,400.0 631.7,400.0 636.5,400.0 641.3,400.0 646.1,400.0 650.9,400.0 655.8,400.0 660.6,400.0 665.4,400.0 670.2,400.0 675.0,400.0 679.8,400.0 684.6,400.0 689.4,400.0 694.2,400.0 699.0,400.0 703.8,400.0 708.6,400.0 713.4,400.0 718.2,400.0 723.0,400.0 727.8,400.0 732.6,400.0 737.4,400.0 742.2,400.0 747.0,400.0 751.8,400.0 756.6,400.0 761.5,400.0 766.3,400.0 771.1,400.0 775.9,400.0 780.7,400.0 785.5,400.0 790.3,400.0 795.1,400.0 799.9,400.0 804.7,400.0 809.5,400.0 814.3,400.0 819.1,400.0 823.9,400.0 828.7,400.0 833.5,400.0 838.3,400.0 843.1,400.0 847.9,400.0 852.7,400.0 857.5,400.0 862.3,400.0 867.2,400.0 872.0,400.0 876.8,400.0 881.6,400.0 886.4,400.0 891.2,400.0 896.0,400.0 900.8,400.0 905.6,400.0 910.4,400.0 915.2,400.0 920.0,400.0" fill="none" stroke="#6b7280" stroke-width="3"/>
<polygon points="60.0,70.7 64.8,70.7 69.6,68.0 74.4,68.0 79.2,68.0 84.0,68.0 88.8,68.0 93.6,68.0 98.4,65.4 103.2,65.4 108.0,65.4 112.8,65.4 117.7,65.4 122.5,62.7 127.3,62.7 132.1,62.7 136.9,62.7 141.7,62.7 146.5,62.7 151.3,62.7 156.1,60.0 160.9,60.7 165.7,60.0 170.5,60.0 175.3,60.0 180.1,60.0 184.9,60.0 189.7,60.0 194.5,60.0 199.3,62.7 204.1,62.7 208.9,62.7 213.7,66.0 218.5,66.0 223.4,68.0 228.2,70.7 233.0,74.1 237.8,76.7 242.6,81.4 247.4,84.1 252.2,87.4 257.0,92.1 261.8,92.1 266.6,97.5 271.4,102.8 276.2,108.2 281.0,110.9 285.8,118.9 290.6,126.9 295.4,135.0 300.2,140.3 305.0,145.7 309.8,153.7 314.6,162.4 319.4,172.4 324.2,183.1 329.1,196.5 333.9,204.6 338.7,215.9 343.5,231.3 348.3,239.4 353.1,252.8 357.9,258.1 362.7,269.5 367.5,276.9 372.3,282.2 377.1,292.9 381.9,298.9 386.7,306.3 391.5,312.3 396.3,319.7 401.1,323.0 405.9,333.1 410.7,333.7 415.5,341.1 420.3,343.8 425.1,349.1 429.9,349.8 434.7,357.2 439.6,357.8 444.4,360.5 449.2,365.2 454.0,365.2 458.8,365.9 463.6,373.2 468.4,373.9 473.2,375.9 478.0,378.6 482.8,381.3 487.6,381.9 492.4,383.9 497.2,384.6 502.0,386.6 506.8,386.6 511.6,387.3 516.4,389.3 521.2,389.3 526.0,389.3 530.8,389.3 535.6,389.3 540.4,389.3 545.3,389.3 550.1,389.3 554.9,389.3 559.7,392.0 564.5,392.0 569.3,392.0 574.1,392.0 578.9,392.0 583.7,392.0 588.5,392.0 593.3,392.0 598.1,392.6 602.9,392.6 607.7,394.6 612.5,394.6 617.3,394.6 622.1,394.6 626.9,394.6 631.7,394.6 636.5,394.6 641.3,394.6 646.1,394.6 650.9,392.6 655.8,392.6 660.6,394.6 665.4,394.6 670.2,394.6 675.0,394.6 679.8,394.6 684.6,394.6 689.4,394.6 694.2,394.6 699.0,394.6 703.8,394.6 708.6,394.6 713.4,394.6 718.2,392.6 723.0,394.6 727.8,392.6 732.6,392.0 737.4,392.0 742.2,392.0 747.0,392.0 751.8,392.0 756.6,389.3 761.5,389.3 766.3,389.3 771.1,389.3 775.9,387.3 780.7,386.6 785.5,386.6 790.3,386.6 795.1,386.6 799.9,386.6 804.7,383.9 809.5,383.9 814.3,383.9 819.1,383.9 823.9,383.9 828.7,381.9 833.5,381.3 838.3,381.3 843.1,381.3 847.9,381.3 852.7,381.3 857.5,379.3 862.3,378.6 867.2,378.6 872.0,378.6 876.8,378.6 881.6,378.6 886.4,378.6 891.2,375.9 896.0,375.9 900.8,375.9 905.6,375.9 910.4,375.9 915.2,373.2 920.0,373.2 920.0,400.0 915.2,400.0 910.4,400.0 905.6,400.0 900.8,400.0 896.0,400.0 891.2,400.0 886.4,400.0 881.6,400.0 876.8,400.0 872.0,400.0 867.2,400.0 862.3,400.0 857.5,400.0 852.7,400.0 847.9,400.0 843.1,400.0 838.3,400.0 833.5,400.0 828.7,400.0 823.9,400.0 819.1,400.0 814.3,400.0 809.5,400.0 804.7,400.0 799.9,400.0 795.1,400.0 790.3,400.0 785.5,400.0 780.7,400.0 775.9,400.0 771.1,400.0 766.3,400.0 761.5,400.0 756.6,400.0 751.8,400.0 747.0,400.0 742.2,400.0 737.4,400.0 732.6,400.0 727.8,400.0 723.0,400.0 718.2,400.0 713.4,400.0 708.6,400.0 703.8,400.0 699.0,400.0 694.2,400.0 689.4,400.0 684.6,400.0 679.8,400.0 675.0,400.0 670.2,399.3 665.4,397.3 660.6,397.3 655.8,397.3 650.9,397.3 646.1,397.3 641.3,397.3 636.5,397.3 631.7,397.3 626.9,397.3 622.1,397.3 617.3,397.3 612.5,397.3 607.7,397.3 602.9,397.3 598.1,397.3 593.3,396.7 588.5,394.6 583.7,394.6 578.9,394.6 574.1,394.6 569.3,394.6 564.5,394.6 559.7,394.6 554.9,394.6 550.1,394.6 545.3,394.6 540.4,394.6 535.6,394.6 530.8,394.6 526.0,394.6 521.2,394.6 516.4,394.6 511.6,394.6 506.8,394.0 502.0,392.0 497.2,392.0 492.4,392.0 487.6,389.3 482.8,386.6 478.0,386.6 473.2,386.6 468.4,383.9 463.6,381.3 458.8,381.3 454.0,380.6 449.2,375.9 444.4,373.2 439.6,367.9 434.7,365.2 429.9,361.9 425.1,359.2 420.3,353.8 415.5,351.8 410.7,348.5 405.9,343.1 401.1,340.4 396.3,335.1 391.5,330.4 386.7,323.7 381.9,316.3 377.1,311.0 372.3,300.9 367.5,292.9 362.7,286.9 357.9,274.2 353.1,262.8 348.3,252.8 343.5,244.7 338.7,233.3 333.9,220.6 329.1,209.9 324.2,199.2 319.4,191.2 314.6,180.5 309.8,174.4 305.0,163.7 300.2,158.4 295.4,150.4 290.6,144.3 285.8,139.6 281.0,132.3 276.2,124.3 271.4,118.9 266.6,114.9 261.8,104.8 257.0,102.2 252.2,99.5 247.4,94.1 242.6,91.5 237.8,86.8 233.0,83.4 228.2,81.4 223.4,80.7 218.5,75.4 213.7,73.4 208.9,70.0 204.1,68.0 199.3,68.0 194.5,65.4 189.7,65.4 184.9,65.4 180.1,62.7 175.3,62.7 170.5,65.4 165.7,64.7 160.9,62.7 156.1,62.7 151.3,65.4 146.5,65.4 141.7,65.4 136.9,65.4 132.1,65.4 127.3,65.4 122.5,65.4 117.7,65.4 112.8,65.4 108.0,65.4 103.2,65.4 98.4,65.4 93.6,68.0 88.8,68.0 84.0,68.0 79.2,68.0 74.4,68.0 69.6,68.0 64.8,70.7 60.0,70.7" fill="#b45309" opacity="0.14"/>
<polyline points="60.0,70.7 64.8,70.7 69.6,68.0 74.4,68.0 79.2,68.0 84.0,68.0 88.8,68.0 93.6,68.0 98.4,65.4 103.2,65.4 108.0,65.4 112.8,65.4 117.7,65.4 122.5,65.4 127.3,62.7 132.1,62.7 136.9,62.7 141.7,62.7 146.5,62.7 151.3,62.7 156.1,62.7 160.9,62.7 165.7,62.7 170.5,62.7 175.3,62.7 180.1,60.0 184.9,62.7 189.7,64.0 194.5,65.4 199.3,65.4 204.1,65.4 208.9,68.0 213.7,68.0 218.5,70.7 223.4,74.7 228.2,76.1 233.0,78.7 237.8,81.4 242.6,84.1 247.4,90.8 252.2,92.1 257.0,93.5 261.8,96.1 266.6,101.5 271.4,106.9 276.2,112.2 281.0,118.9 285.8,124.3 290.6,132.3 295.4,140.3 300.2,149.7 305.0,155.0 309.8,163.1 314.6,175.1 319.4,183.1 324.2,191.2 329.1,201.9 333.9,216.6 338.7,223.3 343.5,234.0 348.3,247.4 353.1,258.1 357.9,267.5 362.7,275.5 367.5,283.5 372.3,290.2 377.1,296.9 381.9,306.3 386.7,311.7 391.5,319.7 396.3,326.4 401.1,330.4 405.9,335.7 410.7,341.1 415.5,343.8 420.3,349.1 425.1,351.8 429.9,358.5 434.7,359.8 439.6,363.9 444.4,367.9 449.2,370.6 454.0,373.2 458.8,375.9 463.6,378.6 468.4,378.6 473.2,383.9 478.0,383.9 482.8,383.9 487.6,386.6 492.4,386.6 497.2,386.6 502.0,388.0 506.8,389.3 511.6,390.6 516.4,392.0 521.2,392.0 526.0,392.0 530.8,392.0 535.6,392.0 540.4,393.3 545.3,393.3 550.1,394.6 554.9,394.6 559.7,394.6 564.5,394.6 569.3,394.6 574.1,394.6 578.9,394.6 583.7,394.6 588.5,394.6 593.3,394.6 598.1,394.6 602.9,394.6 607.7,394.6 612.5,396.0 617.3,397.3 622.1,397.3 626.9,397.3 631.7,397.3 636.5,397.3 641.3,397.3 646.1,397.3 650.9,397.3 655.8,397.3 660.6,397.3 665.4,397.3 670.2,397.3 675.0,397.3 679.8,396.0 684.6,396.0 689.4,397.3 694.2,397.3 699.0,397.3 703.8,397.3 708.6,394.6 713.4,394.6 718.2,394.6 723.0,394.6 727.8,394.6 732.6,394.6 737.4,394.6 742.2,394.6 747.0,394.6 751.8,393.3 756.6,392.0 761.5,392.0 766.3,390.6 771.1,389.3 775.9,389.3 780.7,389.3 785.5,389.3 790.3,388.0 795.1,388.0 799.9,388.0 804.7,386.6 809.5,386.6 814.3,386.6 819.1,386.6 823.9,385.3 828.7,385.3 833.5,383.9 838.3,383.9 843.1,383.9 847.9,383.9 852.7,382.6 857.5,381.3 862.3,381.3 867.2,381.3 872.0,381.3 876.8,381.3 881.6,378.6 886.4,378.6 891.2,378.6 896.0,378.6 900.8,378.6 905.6,375.9 910.4,375.9 915.2,375.9 920.0,375.9" fill="none" stroke="#b45309" stroke-width="3"/>
<polygon points="60.0,70.7 64.8,70.7 69.6,70.7 74.4,70.7 79.2,68.0 84.0,68.0 88.8,68.0 93.6,68.0 98.4,68.0 103.2,68.0 108.0,68.0 112.8,68.0 117.7,68.0 122.5,68.0 127.3,65.4 132.1,65.4 136.9,65.4 141.7,65.4 146.5,65.4 151.3,65.4 156.1,65.4 160.9,65.4 165.7,65.4 170.5,65.4 175.3,62.7 180.1,62.7 184.9,63.3 189.7,65.4 194.5,65.4 199.3,68.0 204.1,68.0 208.9,70.7 213.7,71.4 218.5,73.4 223.4,73.4 228.2,76.1 233.0,81.4 237.8,84.1 242.6,86.8 247.4,90.1 252.2,92.8 257.0,94.8 261.8,98.1 266.6,102.8 271.4,105.5 276.2,113.5 281.0,116.2 285.8,124.3 290.6,132.3 295.4,138.3 300.2,143.0 305.0,149.0 309.8,159.1 314.6,167.8 319.4,173.8 324.2,185.8 329.1,199.2 333.9,209.9 338.7,218.0 343.5,232.0 348.3,242.0 353.1,252.8 357.9,260.8 362.7,271.5 367.5,279.5 372.3,284.9 377.1,293.6 381.9,301.6 386.7,309.0 391.5,314.3 396.3,322.4 401.1,325.0 405.9,333.1 410.7,336.4 415.5,341.1 420.3,344.4 425.1,349.8 429.9,352.5 434.7,359.8 439.6,362.5 444.4,365.2 449.2,367.9 454.0,370.6 458.8,375.9 463.6,375.9 468.4,376.6 473.2,381.3 478.0,383.9 482.8,383.9 487.6,386.6 492.4,387.3 497.2,389.3 502.0,389.3 506.8,392.0 511.6,392.0 516.4,392.0 521.2,392.6 526.0,392.6 530.8,392.6 535.6,394.6 540.4,394.6 545.3,394.6 550.1,394.6 554.9,394.6 559.7,394.6 564.5,394.6 569.3,394.6 574.1,394.6 578.9,394.6 583.7,394.6 588.5,394.6 593.3,394.6 598.1,394.6 602.9,394.6 607.7,394.6 612.5,395.3 617.3,397.3 622.1,397.3 626.9,397.3 631.7,397.3 636.5,397.3 641.3,397.3 646.1,397.3 650.9,397.3 655.8,397.3 660.6,397.3 665.4,397.3 670.2,397.3 675.0,398.0 679.8,400.0 684.6,400.0 689.4,400.0 694.2,400.0 699.0,400.0 703.8,400.0 708.6,400.0 713.4,400.0 718.2,400.0 723.0,400.0 727.8,400.0 732.6,400.0 737.4,400.0 742.2,400.0 747.0,400.0 751.8,400.0 756.6,400.0 761.5,400.0 766.3,400.0 771.1,400.0 775.9,400.0 780.7,400.0 785.5,400.0 790.3,400.0 795.1,400.0 799.9,400.0 804.7,400.0 809.5,400.0 814.3,400.0 819.1,400.0 823.9,400.0 828.7,400.0 833.5,400.0 838.3,400.0 843.1,400.0 847.9,400.0 852.7,400.0 857.5,400.0 862.3,400.0 867.2,400.0 872.0,400.0 876.8,400.0 881.6,400.0 886.4,400.0 891.2,400.0 896.0,400.0 900.8,400.0 905.6,400.0 910.4,400.0 915.2,400.0 920.0,400.0 920.0,400.0 915.2,400.0 910.4,400.0 905.6,400.0 900.8,400.0 896.0,400.0 891.2,400.0 886.4,400.0 881.6,400.0 876.8,400.0 872.0,400.0 867.2,400.0 862.3,400.0 857.5,400.0 852.7,400.0 847.9,400.0 843.1,400.0 838.3,400.0 833.5,400.0 828.7,400.0 823.9,400.0 819.1,400.0 814.3,400.0 809.5,400.0 804.7,400.0 799.9,400.0 795.1,400.0 790.3,400.0 785.5,400.0 780.7,400.0 775.9,400.0 771.1,400.0 766.3,400.0 761.5,400.0 756.6,400.0 751.8,400.0 747.0,400.0 742.2,400.0 737.4,400.0 732.6,400.0 727.8,400.0 723.0,400.0 718.2,400.0 713.4,400.0 708.6,400.0 703.8,400.0 699.0,400.0 694.2,400.0 689.4,400.0 684.6,400.0 679.8,400.0 675.0,400.0 670.2,400.0 665.4,400.0 660.6,400.0 655.8,400.0 650.9,400.0 646.1,400.0 641.3,400.0 636.5,400.0 631.7,400.0 626.9,400.0 622.1,400.0 617.3,400.0 612.5,400.0 607.7,400.0 602.9,400.0 598.1,400.0 593.3,400.0 588.5,400.0 583.7,400.0 578.9,400.0 574.1,400.0 569.3,400.0 564.5,400.0 559.7,400.0 554.9,400.0 550.1,399.3 545.3,397.3 540.4,397.3 535.6,397.3 530.8,397.3 526.0,397.3 521.2,397.3 516.4,397.3 511.6,397.3 506.8,396.7 502.0,394.6 497.2,394.6 492.4,394.6 487.6,392.0 482.8,389.3 478.0,389.3 473.2,389.3 468.4,386.6 463.6,386.6 458.8,383.9 454.0,381.3 449.2,380.6 444.4,377.9 439.6,373.2 434.7,370.6 429.9,365.2 425.1,359.8 420.3,357.2 415.5,351.8 410.7,350.5 405.9,343.8 401.1,340.4 396.3,333.1 391.5,327.7 386.7,324.4 381.9,318.3 377.1,311.0 372.3,303.6 367.5,292.9 362.7,284.9 357.9,276.9 353.1,268.1 348.3,258.1 343.5,247.4 338.7,236.7 333.9,228.0 329.1,215.3 324.2,206.6 319.4,196.5 314.6,185.2 309.8,180.5 305.0,171.1 300.2,165.7 295.4,157.7 290.6,150.4 285.8,143.0 281.0,137.6 276.2,129.6 271.4,123.6 266.6,118.9 261.8,112.9 257.0,107.5 252.2,104.8 247.4,99.5 242.6,97.5 237.8,92.1 233.0,89.4 228.2,86.8 223.4,84.1 218.5,80.7 213.7,78.7 208.9,76.1 204.1,73.4 199.3,73.4 194.5,70.7 189.7,68.0 184.9,68.0 180.1,65.4 175.3,65.4 170.5,68.0 165.7,68.0 160.9,68.0 156.1,68.0 151.3,68.0 146.5,68.0 141.7,68.0 136.9,65.4 132.1,65.4 127.3,65.4 122.5,68.0 117.7,68.0 112.8,68.0 108.0,68.0 103.2,68.0 98.4,68.0 93.6,68.0 88.8,68.0 84.0,68.0 79.2,68.0 74.4,70.7 69.6,70.7 64.8,70.7 60.0,70.7" fill="#047857" opacity="0.14"/>
<polyline points="60.0,70.7 64.8,70.7 69.6,70.7 74.4,70.7 79.2,68.0 84.0,68.0 88.8,68.0 93.6,68.0 98.4,68.0 103.2,68.0 108.0,68.0 112.8,68.0 117.7,68.0 122.5,68.0 127.3,65.4 132.1,65.4 136.9,65.4 141.7,65.4 146.5,65.4 151.3,65.4 156.1,66.7 160.9,66.7 165.7,66.7 170.5,66.7 175.3,65.4 180.1,65.4 184.9,65.4 189.7,68.0 194.5,68.0 199.3,70.7 204.1,70.7 208.9,73.4 213.7,76.1 218.5,76.1 223.4,78.7 228.2,81.4 233.0,85.4 237.8,86.8 242.6,92.1 247.4,94.8 252.2,97.5 257.0,100.2 261.8,102.8 266.6,108.2 271.4,113.5 276.2,120.2 281.0,126.9 285.8,129.6 290.6,140.3 295.4,145.7 300.2,155.0 305.0,160.4 309.8,165.7 314.6,177.8 319.4,184.5 324.2,192.5 329.1,203.2 333.9,213.9 338.7,226.0 343.5,236.7 348.3,248.7 353.1,256.8 357.9,267.5 362.7,278.2 367.5,287.6 372.3,296.9 377.1,305.0 381.9,311.7 386.7,317.0 391.5,322.4 396.3,327.7 401.1,334.4 405.9,337.1 410.7,343.8 415.5,349.1 420.3,351.8 425.1,354.5 429.9,359.8 434.7,363.9 439.6,366.5 444.4,370.6 449.2,373.2 454.0,375.9 458.8,377.2 463.6,379.9 468.4,382.6 473.2,383.9 478.0,386.6 482.8,386.6 487.6,389.3 492.4,389.3 497.2,392.0 502.0,392.0 506.8,393.3 511.6,394.6 516.4,394.6 521.2,394.6 526.0,396.0 530.8,397.3 535.6,397.3 540.4,397.3 545.3,397.3 550.1,397.3 554.9,397.3 559.7,397.3 564.5,397.3 569.3,397.3 574.1,397.3 578.9,397.3 583.7,397.3 588.5,397.3 593.3,397.3 598.1,397.3 602.9,397.3 607.7,397.3 612.5,397.3 617.3,397.3 622.1,397.3 626.9,397.3 631.7,400.0 636.5,400.0 641.3,400.0 646.1,400.0 650.9,400.0 655.8,400.0 660.6,400.0 665.4,400.0 670.2,400.0 675.0,400.0 679.8,400.0 684.6,400.0 689.4,400.0 694.2,400.0 699.0,400.0 703.8,400.0 708.6,400.0 713.4,400.0 718.2,400.0 723.0,400.0 727.8,400.0 732.6,400.0 737.4,400.0 742.2,400.0 747.0,400.0 751.8,400.0 756.6,400.0 761.5,400.0 766.3,400.0 771.1,400.0 775.9,400.0 780.7,400.0 785.5,400.0 790.3,400.0 795.1,400.0 799.9,400.0 804.7,400.0 809.5,400.0 814.3,400.0 819.1,400.0 823.9,400.0 828.7,400.0 833.5,400.0 838.3,400.0 843.1,400.0 847.9,400.0 852.7,400.0 857.5,400.0 862.3,400.0 867.2,400.0 872.0,400.0 876.8,400.0 881.6,400.0 886.4,400.0 891.2,400.0 896.0,400.0 900.8,400.0 905.6,400.0 910.4,400.0 915.2,400.0 920.0,400.0" fill="none" stroke="#047857" stroke-width="3"/>
<line x1="60" y1="400" x2="920" y2="400" stroke="#111"/>
<line x1="60" y1="60" x2="60" y2="400" stroke="#111"/>
<text x="455" y="430" font-family="sans-serif" font-size="12">step</text>
<text x="16" y="235" font-family="sans-serif" font-size="12" transform="rotate(-90 16 235)">population</text>
<text x="735" y="86" font-family="sans-serif" font-size="12">red band: drought shock</text>
<rect x="735" y="110" width="14" height="14" fill="#6b7280"/>
<text x="755" y="122" font-family="sans-serif" font-size="12">arithmetic_mean</text>
<rect x="735" y="134" width="14" height="14" fill="#b45309"/>
<text x="755" y="146" font-family="sans-serif" font-size="12">geometric_mean</text>
<rect x="735" y="158" width="14" height="14" fill="#047857"/>
<text x="755" y="170" font-family="sans-serif" font-size="12">incomplete_preference</text>
</svg>
